<svg xmlns="http://www.w3.org/2000/svg" version="1.1" xmlns:xlink="http://www.w3.org/1999/xlink" xmlns:svgjs="http://svgjs.com/svgjs" width="2000" height="1440" preserveAspectRatio="none" viewBox="0 0 1440 1440"><g mask="url(&quot;#SvgjsMask1027&quot;)" fill="none"><rect width="1440" height="1440" x="0" y="0" fill="#0e2a47"></rect><path d="M13.51 423.22L76.73 459.72L76.73 532.72L13.51 569.22L-49.71 532.72L-49.71 459.72zM76.73 532.72L139.95 569.22L139.95 642.22L76.73 678.72L13.51 642.22L13.51 569.22zM76.73 1189.72L139.95 1226.22L139.95 1299.22L76.73 1335.72L13.51 1299.22L13.51 1226.22zM139.95 1080.22L203.17 1116.72L203.17 1189.72L139.95 1226.22L76.73 1189.72L76.73 1116.72zM329.62 970.72L392.84 1007.22L392.84 1080.22L329.62 1116.72L266.4 1080.22L266.4 1007.22zM266.4 1080.22L329.62 1116.72L329.62 1189.72L266.4 1226.22L203.17 1189.72L203.17 1116.72zM266.4 1299.22L329.62 1335.72L329.62 1408.72L266.4 1445.22L203.17 1408.72L203.17 1335.72zM329.62 1408.72L392.84 1445.22L392.84 1518.22L329.62 1554.72L266.4 1518.22L266.4 1445.22zM392.84 -14.78L456.06 21.72L456.06 94.72L392.84 131.22L329.62 94.72L329.62 21.72zM392.84 423.22L456.06 459.72L456.06 532.72L392.84 569.22L329.62 532.72L329.62 459.72zM392.84 1299.22L456.06 1335.72L456.06 1408.72L392.84 1445.22L329.62 1408.72L329.62 1335.72zM708.95 1189.72L772.17 1226.22L772.17 1299.22L708.95 1335.72L645.73 1299.22L645.73 1226.22zM961.83 1408.72L1025.06 1445.22L1025.06 1518.22L961.83 1554.72L898.61 1518.22L898.61 1445.22zM1025.06 642.22L1088.28 678.72L1088.28 751.72L1025.06 788.22L961.83 751.72L961.83 678.72zM1341.16 313.72L1404.39 350.22L1404.39 423.22L1341.16 459.72L1277.94 423.22L1277.94 350.22zM1341.16 751.72L1404.39 788.22L1404.39 861.22L1341.16 897.72L1277.94 861.22L1277.94 788.22z" stroke="#03305d" stroke-width="2"></path><path d="M6.21 423.22 a7.3 7.3 0 1 0 14.6 0 a7.3 7.3 0 1 0 -14.6 0zM69.43 459.72 a7.3 7.3 0 1 0 14.6 0 a7.3 7.3 0 1 0 -14.6 0zM69.43 532.72 a7.3 7.3 0 1 0 14.6 0 a7.3 7.3 0 1 0 -14.6 0zM6.21 569.22 a7.3 7.3 0 1 0 14.6 0 a7.3 7.3 0 1 0 -14.6 0zM-57.01 532.72 a7.3 7.3 0 1 0 14.6 0 a7.3 7.3 0 1 0 -14.6 0zM-57.01 459.72 a7.3 7.3 0 1 0 14.6 0 a7.3 7.3 0 1 0 -14.6 0zM132.65 569.22 a7.3 7.3 0 1 0 14.6 0 a7.3 7.3 0 1 0 -14.6 0zM132.65 642.22 a7.3 7.3 0 1 0 14.6 0 a7.3 7.3 0 1 0 -14.6 0zM69.43 678.72 a7.3 7.3 0 1 0 14.6 0 a7.3 7.3 0 1 0 -14.6 0zM6.21 642.22 a7.3 7.3 0 1 0 14.6 0 a7.3 7.3 0 1 0 -14.6 0zM69.43 1189.72 a7.3 7.3 0 1 0 14.6 0 a7.3 7.3 0 1 0 -14.6 0zM132.65 1226.22 a7.3 7.3 0 1 0 14.6 0 a7.3 7.3 0 1 0 -14.6 0zM132.65 1299.22 a7.3 7.3 0 1 0 14.6 0 a7.3 7.3 0 1 0 -14.6 0zM69.43 1335.72 a7.3 7.3 0 1 0 14.6 0 a7.3 7.3 0 1 0 -14.6 0zM6.21 1299.22 a7.3 7.3 0 1 0 14.6 0 a7.3 7.3 0 1 0 -14.6 0zM6.21 1226.22 a7.3 7.3 0 1 0 14.6 0 a7.3 7.3 0 1 0 -14.6 0zM132.65 1080.22 a7.3 7.3 0 1 0 14.6 0 a7.3 7.3 0 1 0 -14.6 0zM195.87 1116.72 a7.3 7.3 0 1 0 14.6 0 a7.3 7.3 0 1 0 -14.6 0zM195.87 1189.72 a7.3 7.3 0 1 0 14.6 0 a7.3 7.3 0 1 0 -14.6 0zM69.43 1116.72 a7.3 7.3 0 1 0 14.6 0 a7.3 7.3 0 1 0 -14.6 0zM322.32 970.72 a7.3 7.3 0 1 0 14.6 0 a7.3 7.3 0 1 0 -14.6 0zM385.54 1007.22 a7.3 7.3 0 1 0 14.6 0 a7.3 7.3 0 1 0 -14.6 0zM385.54 1080.22 a7.3 7.3 0 1 0 14.6 0 a7.3 7.3 0 1 0 -14.6 0zM322.32 1116.72 a7.3 7.3 0 1 0 14.6 0 a7.3 7.3 0 1 0 -14.6 0zM259.1 1080.22 a7.3 7.3 0 1 0 14.6 0 a7.3 7.3 0 1 0 -14.6 0zM259.1 1007.22 a7.3 7.3 0 1 0 14.6 0 a7.3 7.3 0 1 0 -14.6 0zM322.32 1189.72 a7.3 7.3 0 1 0 14.6 0 a7.3 7.3 0 1 0 -14.6 0zM259.1 1226.22 a7.3 7.3 0 1 0 14.6 0 a7.3 7.3 0 1 0 -14.6 0zM259.1 1299.22 a7.3 7.3 0 1 0 14.6 0 a7.3 7.3 0 1 0 -14.6 0zM322.32 1335.72 a7.3 7.3 0 1 0 14.6 0 a7.3 7.3 0 1 0 -14.6 0zM322.32 1408.72 a7.3 7.3 0 1 0 14.6 0 a7.3 7.3 0 1 0 -14.6 0zM259.1 1445.22 a7.3 7.3 0 1 0 14.6 0 a7.3 7.3 0 1 0 -14.6 0zM195.87 1408.72 a7.3 7.3 0 1 0 14.6 0 a7.3 7.3 0 1 0 -14.6 0zM195.87 1335.72 a7.3 7.3 0 1 0 14.6 0 a7.3 7.3 0 1 0 -14.6 0zM385.54 1445.22 a7.3 7.3 0 1 0 14.6 0 a7.3 7.3 0 1 0 -14.6 0zM385.54 1518.22 a7.3 7.3 0 1 0 14.6 0 a7.3 7.3 0 1 0 -14.6 0zM322.32 1554.72 a7.3 7.3 0 1 0 14.6 0 a7.3 7.3 0 1 0 -14.6 0zM259.1 1518.22 a7.3 7.3 0 1 0 14.6 0 a7.3 7.3 0 1 0 -14.6 0zM385.54 -14.78 a7.3 7.3 0 1 0 14.6 0 a7.3 7.3 0 1 0 -14.6 0zM448.76 21.72 a7.3 7.3 0 1 0 14.6 0 a7.3 7.3 0 1 0 -14.6 0zM448.76 94.72 a7.3 7.3 0 1 0 14.6 0 a7.3 7.3 0 1 0 -14.6 0zM385.54 131.22 a7.3 7.3 0 1 0 14.6 0 a7.3 7.3 0 1 0 -14.6 0zM322.32 94.72 a7.3 7.3 0 1 0 14.6 0 a7.3 7.3 0 1 0 -14.6 0zM322.32 21.72 a7.3 7.3 0 1 0 14.6 0 a7.3 7.3 0 1 0 -14.6 0zM385.54 423.22 a7.3 7.3 0 1 0 14.6 0 a7.3 7.3 0 1 0 -14.6 0zM448.76 459.72 a7.3 7.3 0 1 0 14.6 0 a7.3 7.3 0 1 0 -14.6 0zM448.76 532.72 a7.3 7.3 0 1 0 14.6 0 a7.3 7.3 0 1 0 -14.6 0zM385.54 569.22 a7.3 7.3 0 1 0 14.6 0 a7.3 7.3 0 1 0 -14.6 0zM322.32 532.72 a7.3 7.3 0 1 0 14.6 0 a7.3 7.3 0 1 0 -14.6 0zM322.32 459.72 a7.3 7.3 0 1 0 14.6 0 a7.3 7.3 0 1 0 -14.6 0zM385.54 1299.22 a7.3 7.3 0 1 0 14.6 0 a7.3 7.3 0 1 0 -14.6 0zM448.76 1335.72 a7.3 7.3 0 1 0 14.6 0 a7.3 7.3 0 1 0 -14.6 0zM448.76 1408.72 a7.3 7.3 0 1 0 14.6 0 a7.3 7.3 0 1 0 -14.6 0zM701.65 1189.72 a7.3 7.3 0 1 0 14.6 0 a7.3 7.3 0 1 0 -14.6 0zM764.87 1226.22 a7.3 7.3 0 1 0 14.6 0 a7.3 7.3 0 1 0 -14.6 0zM764.87 1299.22 a7.3 7.3 0 1 0 14.6 0 a7.3 7.3 0 1 0 -14.6 0zM701.65 1335.72 a7.3 7.3 0 1 0 14.6 0 a7.3 7.3 0 1 0 -14.6 0zM638.43 1299.22 a7.3 7.3 0 1 0 14.6 0 a7.3 7.3 0 1 0 -14.6 0zM638.43 1226.22 a7.3 7.3 0 1 0 14.6 0 a7.3 7.3 0 1 0 -14.6 0zM954.53 1408.72 a7.3 7.3 0 1 0 14.6 0 a7.3 7.3 0 1 0 -14.6 0zM1017.76 1445.22 a7.3 7.3 0 1 0 14.6 0 a7.3 7.3 0 1 0 -14.6 0zM1017.76 1518.22 a7.3 7.3 0 1 0 14.6 0 a7.3 7.3 0 1 0 -14.6 0zM954.53 1554.72 a7.3 7.3 0 1 0 14.6 0 a7.3 7.3 0 1 0 -14.6 0zM891.31 1518.22 a7.3 7.3 0 1 0 14.6 0 a7.3 7.3 0 1 0 -14.6 0zM891.31 1445.22 a7.3 7.3 0 1 0 14.6 0 a7.3 7.3 0 1 0 -14.6 0zM1017.76 642.22 a7.3 7.3 0 1 0 14.6 0 a7.3 7.3 0 1 0 -14.6 0zM1080.98 678.72 a7.3 7.3 0 1 0 14.6 0 a7.3 7.3 0 1 0 -14.6 0zM1080.98 751.72 a7.3 7.3 0 1 0 14.6 0 a7.3 7.3 0 1 0 -14.6 0zM1017.76 788.22 a7.3 7.3 0 1 0 14.6 0 a7.3 7.3 0 1 0 -14.6 0zM954.53 751.72 a7.3 7.3 0 1 0 14.6 0 a7.3 7.3 0 1 0 -14.6 0zM954.53 678.72 a7.3 7.3 0 1 0 14.6 0 a7.3 7.3 0 1 0 -14.6 0zM1333.86 313.72 a7.3 7.3 0 1 0 14.6 0 a7.3 7.3 0 1 0 -14.6 0zM1397.09 350.22 a7.3 7.3 0 1 0 14.6 0 a7.3 7.3 0 1 0 -14.6 0zM1397.09 423.22 a7.3 7.3 0 1 0 14.6 0 a7.3 7.3 0 1 0 -14.6 0zM1333.86 459.72 a7.3 7.3 0 1 0 14.6 0 a7.3 7.3 0 1 0 -14.6 0zM1270.64 423.22 a7.3 7.3 0 1 0 14.6 0 a7.3 7.3 0 1 0 -14.6 0zM1270.64 350.22 a7.3 7.3 0 1 0 14.6 0 a7.3 7.3 0 1 0 -14.6 0zM1333.86 751.72 a7.3 7.3 0 1 0 14.6 0 a7.3 7.3 0 1 0 -14.6 0zM1397.09 788.22 a7.3 7.3 0 1 0 14.6 0 a7.3 7.3 0 1 0 -14.6 0zM1397.09 861.22 a7.3 7.3 0 1 0 14.6 0 a7.3 7.3 0 1 0 -14.6 0zM1333.86 897.72 a7.3 7.3 0 1 0 14.6 0 a7.3 7.3 0 1 0 -14.6 0zM1270.64 861.22 a7.3 7.3 0 1 0 14.6 0 a7.3 7.3 0 1 0 -14.6 0zM1270.64 788.22 a7.3 7.3 0 1 0 14.6 0 a7.3 7.3 0 1 0 -14.6 0z" fill="#03305d"></path><path d="M9.2 137.03L50.77 161.03L50.77 209.03L9.2 233.03L-32.37 209.03L-32.37 161.03zM9.2 425.03L50.77 449.03L50.77 497.03L9.2 521.03L-32.37 497.03L-32.37 449.03zM9.2 1289.03L50.77 1313.03L50.77 1361.03L9.2 1385.03L-32.37 1361.03L-32.37 1313.03zM50.77 1361.03L92.34 1385.03L92.34 1433.03L50.77 1457.03L9.2 1433.03L9.2 1385.03zM9.2 1433.03L50.77 1457.03L50.77 1505.03L9.2 1529.03L-32.37 1505.03L-32.37 1457.03zM92.34 -6.97L133.91 17.03L133.91 65.03L92.34 89.03L50.77 65.03L50.77 17.03zM133.91 65.03L175.48 89.03L175.48 137.03L133.91 161.03L92.34 137.03L92.34 89.03zM92.34 137.03L133.91 161.03L133.91 209.03L92.34 233.03L50.77 209.03L50.77 161.03zM133.91 209.03L175.48 233.03L175.48 281.03L133.91 305.03L92.34 281.03L92.34 233.03zM92.34 281.03L133.91 305.03L133.91 353.03L92.34 377.03L50.77 353.03L50.77 305.03zM92.34 713.03L133.91 737.03L133.91 785.03L92.34 809.03L50.77 785.03L50.77 737.03zM92.34 857.03L133.91 881.03L133.91 929.03L92.34 953.03L50.77 929.03L50.77 881.03zM92.34 1001.03L133.91 1025.03L133.91 1073.03L92.34 1097.03L50.77 1073.03L50.77 1025.03zM133.91 1073.03L175.48 1097.03L175.48 1145.03L133.91 1169.03L92.34 1145.03L92.34 1097.03zM92.34 1145.03L133.91 1169.03L133.91 1217.03L92.34 1241.03L50.77 1217.03L50.77 1169.03zM217.05 65.03L258.62 89.03L258.62 137.03L217.05 161.03L175.48 137.03L175.48 89.03zM217.05 497.03L258.62 521.03L258.62 569.03L217.05 593.03L175.48 569.03L175.48 521.03zM175.48 857.03L217.05 881.03L217.05 929.03L175.48 953.03L133.91 929.03L133.91 881.03zM300.19 65.03L341.76 89.03L341.76 137.03L300.19 161.03L258.62 137.03L258.62 89.03zM300.19 497.03L341.76 521.03L341.76 569.03L300.19 593.03L258.62 569.03L258.62 521.03zM300.19 1073.03L341.76 1097.03L341.76 1145.03L300.19 1169.03L258.62 1145.03L258.62 1097.03zM300.19 1217.03L341.76 1241.03L341.76 1289.03L300.19 1313.03L258.62 1289.03L258.62 1241.03zM258.62 1289.03L300.19 1313.03L300.19 1361.03L258.62 1385.03L217.05 1361.03L217.05 1313.03zM300.19 1361.03L341.76 1385.03L341.76 1433.03L300.19 1457.03L258.62 1433.03L258.62 1385.03zM383.33 65.03L424.9 89.03L424.9 137.03L383.33 161.03L341.76 137.03L341.76 89.03zM383.33 497.03L424.9 521.03L424.9 569.03L383.33 593.03L341.76 569.03L341.76 521.03zM383.33 929.03L424.9 953.03L424.9 1001.03L383.33 1025.03L341.76 1001.03L341.76 953.03zM383.33 1073.03L424.9 1097.03L424.9 1145.03L383.33 1169.03L341.76 1145.03L341.76 1097.03zM383.33 1217.03L424.9 1241.03L424.9 1289.03L383.33 1313.03L341.76 1289.03L341.76 1241.03zM466.47 65.03L508.04 89.03L508.04 137.03L466.47 161.03L424.9 137.03L424.9 89.03zM466.47 209.03L508.04 233.03L508.04 281.03L466.47 305.03L424.9 281.03L424.9 233.03zM424.9 281.03L466.47 305.03L466.47 353.03L424.9 377.03L383.33 353.03L383.33 305.03zM466.47 497.03L508.04 521.03L508.04 569.03L466.47 593.03L424.9 569.03L424.9 521.03zM424.9 569.03L466.47 593.03L466.47 641.03L424.9 665.03L383.33 641.03L383.33 593.03zM424.9 1001.03L466.47 1025.03L466.47 1073.03L424.9 1097.03L383.33 1073.03L383.33 1025.03zM466.47 1073.03L508.04 1097.03L508.04 1145.03L466.47 1169.03L424.9 1145.03L424.9 1097.03zM424.9 1145.03L466.47 1169.03L466.47 1217.03L424.9 1241.03L383.33 1217.03L383.33 1169.03zM508.04 137.03L549.62 161.03L549.62 209.03L508.04 233.03L466.47 209.03L466.47 161.03zM549.62 209.03L591.19 233.03L591.19 281.03L549.62 305.03L508.04 281.03L508.04 233.03zM508.04 425.03L549.62 449.03L549.62 497.03L508.04 521.03L466.47 497.03L466.47 449.03zM549.62 1217.03L591.19 1241.03L591.19 1289.03L549.62 1313.03L508.04 1289.03L508.04 1241.03zM508.04 1433.03L549.62 1457.03L549.62 1505.03L508.04 1529.03L466.47 1505.03L466.47 1457.03zM632.76 209.03L674.33 233.03L674.33 281.03L632.76 305.03L591.19 281.03L591.19 233.03zM591.19 281.03L632.76 305.03L632.76 353.03L591.19 377.03L549.62 353.03L549.62 305.03zM591.19 425.03L632.76 449.03L632.76 497.03L591.19 521.03L549.62 497.03L549.62 449.03zM632.76 497.03L674.33 521.03L674.33 569.03L632.76 593.03L591.19 569.03L591.19 521.03zM591.19 713.03L632.76 737.03L632.76 785.03L591.19 809.03L549.62 785.03L549.62 737.03zM591.19 857.03L632.76 881.03L632.76 929.03L591.19 953.03L549.62 929.03L549.62 881.03zM591.19 1001.03L632.76 1025.03L632.76 1073.03L591.19 1097.03L549.62 1073.03L549.62 1025.03zM715.9 209.03L757.47 233.03L757.47 281.03L715.9 305.03L674.33 281.03L674.33 233.03zM674.33 425.03L715.9 449.03L715.9 497.03L674.33 521.03L632.76 497.03L632.76 449.03zM715.9 785.03L757.47 809.03L757.47 857.03L715.9 881.03L674.33 857.03L674.33 809.03zM674.33 1001.03L715.9 1025.03L715.9 1073.03L674.33 1097.03L632.76 1073.03L632.76 1025.03zM757.47 -6.97L799.04 17.03L799.04 65.03L757.47 89.03L715.9 65.03L715.9 17.03zM757.47 425.03L799.04 449.03L799.04 497.03L757.47 521.03L715.9 497.03L715.9 449.03zM757.47 1145.03L799.04 1169.03L799.04 1217.03L757.47 1241.03L715.9 1217.03L715.9 1169.03zM840.61 -6.97L882.18 17.03L882.18 65.03L840.61 89.03L799.04 65.03L799.04 17.03zM840.61 137.03L882.18 161.03L882.18 209.03L840.61 233.03L799.04 209.03L799.04 161.03zM840.61 425.03L882.18 449.03L882.18 497.03L840.61 521.03L799.04 497.03L799.04 449.03zM840.61 569.03L882.18 593.03L882.18 641.03L840.61 665.03L799.04 641.03L799.04 593.03zM840.61 713.03L882.18 737.03L882.18 785.03L840.61 809.03L799.04 785.03L799.04 737.03zM840.61 857.03L882.18 881.03L882.18 929.03L840.61 953.03L799.04 929.03L799.04 881.03zM882.18 929.03L923.75 953.03L923.75 1001.03L882.18 1025.03L840.61 1001.03L840.61 953.03zM840.61 1001.03L882.18 1025.03L882.18 1073.03L840.61 1097.03L799.04 1073.03L799.04 1025.03zM882.18 1073.03L923.75 1097.03L923.75 1145.03L882.18 1169.03L840.61 1145.03L840.61 1097.03zM840.61 1289.03L882.18 1313.03L882.18 1361.03L840.61 1385.03L799.04 1361.03L799.04 1313.03zM840.61 1433.03L882.18 1457.03L882.18 1505.03L840.61 1529.03L799.04 1505.03L799.04 1457.03zM965.32 209.03L1006.89 233.03L1006.89 281.03L965.32 305.03L923.75 281.03L923.75 233.03zM923.75 569.03L965.32 593.03L965.32 641.03L923.75 665.03L882.18 641.03L882.18 593.03zM923.75 1001.03L965.32 1025.03L965.32 1073.03L923.75 1097.03L882.18 1073.03L882.18 1025.03zM965.32 1073.03L1006.89 1097.03L1006.89 1145.03L965.32 1169.03L923.75 1145.03L923.75 1097.03zM965.32 1217.03L1006.89 1241.03L1006.89 1289.03L965.32 1313.03L923.75 1289.03L923.75 1241.03zM1006.89 -6.97L1048.46 17.03L1048.46 65.03L1006.89 89.03L965.32 65.03L965.32 17.03zM1048.46 65.03L1090.03 89.03L1090.03 137.03L1048.46 161.03L1006.89 137.03L1006.89 89.03zM1006.89 137.03L1048.46 161.03L1048.46 209.03L1006.89 233.03L965.32 209.03L965.32 161.03zM1048.46 209.03L1090.03 233.03L1090.03 281.03L1048.46 305.03L1006.89 281.03L1006.89 233.03zM1048.46 353.03L1090.03 377.03L1090.03 425.03L1048.46 449.03L1006.89 425.03L1006.89 377.03zM1048.46 497.03L1090.03 521.03L1090.03 569.03L1048.46 593.03L1006.89 569.03L1006.89 521.03zM1006.89 857.03L1048.46 881.03L1048.46 929.03L1006.89 953.03L965.32 929.03L965.32 881.03zM1006.89 1001.03L1048.46 1025.03L1048.46 1073.03L1006.89 1097.03L965.32 1073.03L965.32 1025.03zM1131.6 65.03L1173.17 89.03L1173.17 137.03L1131.6 161.03L1090.03 137.03L1090.03 89.03zM1131.6 497.03L1173.17 521.03L1173.17 569.03L1131.6 593.03L1090.03 569.03L1090.03 521.03zM1131.6 641.03L1173.17 665.03L1173.17 713.03L1131.6 737.03L1090.03 713.03L1090.03 665.03zM1090.03 713.03L1131.6 737.03L1131.6 785.03L1090.03 809.03L1048.46 785.03L1048.46 737.03zM1131.6 929.03L1173.17 953.03L1173.17 1001.03L1131.6 1025.03L1090.03 1001.03L1090.03 953.03zM1090.03 1433.03L1131.6 1457.03L1131.6 1505.03L1090.03 1529.03L1048.46 1505.03L1048.46 1457.03zM1173.17 281.03L1214.74 305.03L1214.74 353.03L1173.17 377.03L1131.6 353.03L1131.6 305.03zM1173.17 569.03L1214.74 593.03L1214.74 641.03L1173.17 665.03L1131.6 641.03L1131.6 593.03zM1214.74 641.03L1256.31 665.03L1256.31 713.03L1214.74 737.03L1173.17 713.03L1173.17 665.03zM1173.17 713.03L1214.74 737.03L1214.74 785.03L1173.17 809.03L1131.6 785.03L1131.6 737.03zM1214.74 929.03L1256.31 953.03L1256.31 1001.03L1214.74 1025.03L1173.17 1001.03L1173.17 953.03zM1173.17 1001.03L1214.74 1025.03L1214.74 1073.03L1173.17 1097.03L1131.6 1073.03L1131.6 1025.03zM1214.74 1217.03L1256.31 1241.03L1256.31 1289.03L1214.74 1313.03L1173.17 1289.03L1173.17 1241.03zM1214.74 1361.03L1256.31 1385.03L1256.31 1433.03L1214.74 1457.03L1173.17 1433.03L1173.17 1385.03zM1256.31 281.03L1297.88 305.03L1297.88 353.03L1256.31 377.03L1214.74 353.03L1214.74 305.03zM1297.88 353.03L1339.45 377.03L1339.45 425.03L1297.88 449.03L1256.31 425.03L1256.31 377.03zM1256.31 569.03L1297.88 593.03L1297.88 641.03L1256.31 665.03L1214.74 641.03L1214.74 593.03zM1256.31 713.03L1297.88 737.03L1297.88 785.03L1256.31 809.03L1214.74 785.03L1214.74 737.03zM1297.88 1073.03L1339.45 1097.03L1339.45 1145.03L1297.88 1169.03L1256.31 1145.03L1256.31 1097.03zM1297.88 1217.03L1339.45 1241.03L1339.45 1289.03L1297.88 1313.03L1256.31 1289.03L1256.31 1241.03zM1256.31 1289.03L1297.88 1313.03L1297.88 1361.03L1256.31 1385.03L1214.74 1361.03L1214.74 1313.03zM1256.31 1433.03L1297.88 1457.03L1297.88 1505.03L1256.31 1529.03L1214.74 1505.03L1214.74 1457.03zM1381.02 65.03L1422.59 89.03L1422.59 137.03L1381.02 161.03L1339.45 137.03L1339.45 89.03zM1339.45 137.03L1381.02 161.03L1381.02 209.03L1339.45 233.03L1297.88 209.03L1297.88 161.03zM1381.02 209.03L1422.59 233.03L1422.59 281.03L1381.02 305.03L1339.45 281.03L1339.45 233.03zM1339.45 569.03L1381.02 593.03L1381.02 641.03L1339.45 665.03L1297.88 641.03L1297.88 593.03zM1381.02 641.03L1422.59 665.03L1422.59 713.03L1381.02 737.03L1339.45 713.03L1339.45 665.03zM1339.45 713.03L1381.02 737.03L1381.02 785.03L1339.45 809.03L1297.88 785.03L1297.88 737.03zM1339.45 857.03L1381.02 881.03L1381.02 929.03L1339.45 953.03L1297.88 929.03L1297.88 881.03zM1381.02 1073.03L1422.59 1097.03L1422.59 1145.03L1381.02 1169.03L1339.45 1145.03L1339.45 1097.03zM1339.45 1145.03L1381.02 1169.03L1381.02 1217.03L1339.45 1241.03L1297.88 1217.03L1297.88 1169.03zM1422.59 -6.97L1464.16 17.03L1464.16 65.03L1422.59 89.03L1381.02 65.03L1381.02 17.03zM1464.16 65.03L1505.73 89.03L1505.73 137.03L1464.16 161.03L1422.59 137.03L1422.59 89.03zM1422.59 281.03L1464.16 305.03L1464.16 353.03L1422.59 377.03L1381.02 353.03L1381.02 305.03zM1464.16 353.03L1505.73 377.03L1505.73 425.03L1464.16 449.03L1422.59 425.03L1422.59 377.03zM1422.59 425.03L1464.16 449.03L1464.16 497.03L1422.59 521.03L1381.02 497.03L1381.02 449.03zM1464.16 497.03L1505.73 521.03L1505.73 569.03L1464.16 593.03L1422.59 569.03L1422.59 521.03zM1422.59 713.03L1464.16 737.03L1464.16 785.03L1422.59 809.03L1381.02 785.03L1381.02 737.03zM1422.59 857.03L1464.16 881.03L1464.16 929.03L1422.59 953.03L1381.02 929.03L1381.02 881.03zM1422.59 1001.03L1464.16 1025.03L1464.16 1073.03L1422.59 1097.03L1381.02 1073.03L1381.02 1025.03zM1464.16 1073.03L1505.73 1097.03L1505.73 1145.03L1464.16 1169.03L1422.59 1145.03L1422.59 1097.03zM1422.59 1145.03L1464.16 1169.03L1464.16 1217.03L1422.59 1241.03L1381.02 1217.03L1381.02 1169.03z" stroke="rgba(6, 80, 156, 0.93)" stroke-width="2"></path></g><defs><mask id="SvgjsMask1027"><rect width="1440" height="1440" fill="#ffffff"></rect></mask></defs></svg>