<svg xmlns="http://www.w3.org/2000/svg" version="1.1" xmlns:xlink="http://www.w3.org/1999/xlink" xmlns:svgjs="http://svgjs.com/svgjs" width="2000" height="1440" preserveAspectRatio="none" viewBox="0 0 2000 1440"><g mask="url(&quot;#SvgjsMask1031&quot;)" fill="none"><rect width="2000" height="1440" x="0" y="0" fill="#0e2a47"></rect><path d="M72.67 -8.69L135.89 27.81L135.89 100.81L72.67 137.31L9.45 100.81L9.45 27.81zM135.89 100.81L199.11 137.31L199.11 210.31L135.89 246.81L72.67 210.31L72.67 137.31zM135.89 319.81L199.11 356.31L199.11 429.31L135.89 465.81L72.67 429.31L72.67 356.31zM72.67 429.31L135.89 465.81L135.89 538.81L72.67 575.31L9.45 538.81L9.45 465.81zM135.89 976.81L199.11 1013.31L199.11 1086.31L135.89 1122.81L72.67 1086.31L72.67 1013.31zM72.67 1086.31L135.89 1122.81L135.89 1195.81L72.67 1232.31L9.45 1195.81L9.45 1122.81zM135.89 1195.81L199.11 1232.31L199.11 1305.31L135.89 1341.81L72.67 1305.31L72.67 1232.31zM199.11 210.31L262.33 246.81L262.33 319.81L199.11 356.31L135.89 319.81L135.89 246.81zM262.33 319.81L325.56 356.31L325.56 429.31L262.33 465.81L199.11 429.31L199.11 356.31zM199.11 429.31L262.33 465.81L262.33 538.81L199.11 575.31L135.89 538.81L135.89 465.81zM262.33 538.81L325.56 575.31L325.56 648.31L262.33 684.81L199.11 648.31L199.11 575.31zM199.11 648.31L262.33 684.81L262.33 757.81L199.11 794.31L135.89 757.81L135.89 684.81zM199.11 867.31L262.33 903.81L262.33 976.81L199.11 1013.31L135.89 976.81L135.89 903.81zM262.33 976.81L325.56 1013.31L325.56 1086.31L262.33 1122.81L199.11 1086.31L199.11 1013.31zM199.11 1086.31L262.33 1122.81L262.33 1195.81L199.11 1232.31L135.89 1195.81L135.89 1122.81zM199.11 1305.31L262.33 1341.81L262.33 1414.81L199.11 1451.31L135.89 1414.81L135.89 1341.81zM262.33 1414.81L325.56 1451.31L325.56 1524.31L262.33 1560.81L199.11 1524.31L199.11 1451.31zM325.56 -8.69L388.78 27.81L388.78 100.81L325.56 137.31L262.33 100.81L262.33 27.81zM388.78 538.81L452 575.31L452 648.31L388.78 684.81L325.56 648.31L325.56 575.31zM325.56 1086.31L388.78 1122.81L388.78 1195.81L325.56 1232.31L262.33 1195.81L262.33 1122.81zM325.56 1305.31L388.78 1341.81L388.78 1414.81L325.56 1451.31L262.33 1414.81L262.33 1341.81zM388.78 1414.81L452 1451.31L452 1524.31L388.78 1560.81L325.56 1524.31L325.56 1451.31zM452 429.31L515.22 465.81L515.22 538.81L452 575.31L388.78 538.81L388.78 465.81zM515.22 757.81L578.44 794.31L578.44 867.31L515.22 903.81L452 867.31L452 794.31zM515.22 976.81L578.44 1013.31L578.44 1086.31L515.22 1122.81L452 1086.31L452 1013.31zM515.22 1195.81L578.44 1232.31L578.44 1305.31L515.22 1341.81L452 1305.31L452 1232.31zM452 1305.31L515.22 1341.81L515.22 1414.81L452 1451.31L388.78 1414.81L388.78 1341.81zM578.44 210.31L641.66 246.81L641.66 319.81L578.44 356.31L515.22 319.81L515.22 246.81zM641.66 1195.81L704.89 1232.31L704.89 1305.31L641.66 1341.81L578.44 1305.31L578.44 1232.31zM704.89 -8.69L768.11 27.81L768.11 100.81L704.89 137.31L641.66 100.81L641.66 27.81zM768.11 100.81L831.33 137.31L831.33 210.31L768.11 246.81L704.89 210.31L704.89 137.31zM704.89 210.31L768.11 246.81L768.11 319.81L704.89 356.31L641.66 319.81L641.66 246.81zM768.11 319.81L831.33 356.31L831.33 429.31L768.11 465.81L704.89 429.31L704.89 356.31zM704.89 429.31L768.11 465.81L768.11 538.81L704.89 575.31L641.66 538.81L641.66 465.81zM768.11 538.81L831.33 575.31L831.33 648.31L768.11 684.81L704.89 648.31L704.89 575.31zM768.11 757.81L831.33 794.31L831.33 867.31L768.11 903.81L704.89 867.31L704.89 794.31zM704.89 867.31L768.11 903.81L768.11 976.81L704.89 1013.31L641.66 976.81L641.66 903.81zM704.89 1086.31L768.11 1122.81L768.11 1195.81L704.89 1232.31L641.66 1195.81L641.66 1122.81zM768.11 1195.81L831.33 1232.31L831.33 1305.31L768.11 1341.81L704.89 1305.31L704.89 1232.31zM704.89 1305.31L768.11 1341.81L768.11 1414.81L704.89 1451.31L641.66 1414.81L641.66 1341.81zM768.11 1414.81L831.33 1451.31L831.33 1524.31L768.11 1560.81L704.89 1524.31L704.89 1451.31zM831.33 429.31L894.55 465.81L894.55 538.81L831.33 575.31L768.11 538.81L768.11 465.81zM894.55 757.81L957.77 794.31L957.77 867.31L894.55 903.81L831.33 867.31L831.33 794.31zM831.33 1086.31L894.55 1122.81L894.55 1195.81L831.33 1232.31L768.11 1195.81L768.11 1122.81zM831.33 1305.31L894.55 1341.81L894.55 1414.81L831.33 1451.31L768.11 1414.81L768.11 1341.81zM957.77 210.31L1020.99 246.81L1020.99 319.81L957.77 356.31L894.55 319.81L894.55 246.81zM1020.99 319.81L1084.22 356.31L1084.22 429.31L1020.99 465.81L957.77 429.31L957.77 356.31zM1020.99 1195.81L1084.22 1232.31L1084.22 1305.31L1020.99 1341.81L957.77 1305.31L957.77 1232.31zM1084.22 -8.69L1147.44 27.81L1147.44 100.81L1084.22 137.31L1020.99 100.81L1020.99 27.81zM1147.44 319.81L1210.66 356.31L1210.66 429.31L1147.44 465.81L1084.22 429.31L1084.22 356.31zM1084.22 429.31L1147.44 465.81L1147.44 538.81L1084.22 575.31L1020.99 538.81L1020.99 465.81zM1084.22 648.31L1147.44 684.81L1147.44 757.81L1084.22 794.31L1020.99 757.81L1020.99 684.81zM1147.44 757.81L1210.66 794.31L1210.66 867.31L1147.44 903.81L1084.22 867.31L1084.22 794.31zM1147.44 976.81L1210.66 1013.31L1210.66 1086.31L1147.44 1122.81L1084.22 1086.31L1084.22 1013.31zM1084.22 1305.31L1147.44 1341.81L1147.44 1414.81L1084.22 1451.31L1020.99 1414.81L1020.99 1341.81zM1210.66 -8.69L1273.88 27.81L1273.88 100.81L1210.66 137.31L1147.44 100.81L1147.44 27.81zM1273.88 319.81L1337.1 356.31L1337.1 429.31L1273.88 465.81L1210.66 429.31L1210.66 356.31zM1210.66 429.31L1273.88 465.81L1273.88 538.81L1210.66 575.31L1147.44 538.81L1147.44 465.81zM1210.66 1086.31L1273.88 1122.81L1273.88 1195.81L1210.66 1232.31L1147.44 1195.81L1147.44 1122.81zM1273.88 1195.81L1337.1 1232.31L1337.1 1305.31L1273.88 1341.81L1210.66 1305.31L1210.66 1232.31zM1337.1 -8.69L1400.32 27.81L1400.32 100.81L1337.1 137.31L1273.88 100.81L1273.88 27.81zM1337.1 648.31L1400.32 684.81L1400.32 757.81L1337.1 794.31L1273.88 757.81L1273.88 684.81zM1400.32 757.81L1463.55 794.31L1463.55 867.31L1400.32 903.81L1337.1 867.31L1337.1 794.31zM1337.1 867.31L1400.32 903.81L1400.32 976.81L1337.1 1013.31L1273.88 976.81L1273.88 903.81zM1400.32 1195.81L1463.55 1232.31L1463.55 1305.31L1400.32 1341.81L1337.1 1305.31L1337.1 1232.31zM1526.77 100.81L1589.99 137.31L1589.99 210.31L1526.77 246.81L1463.55 210.31L1463.55 137.31zM1463.55 210.31L1526.77 246.81L1526.77 319.81L1463.55 356.31L1400.32 319.81L1400.32 246.81zM1526.77 319.81L1589.99 356.31L1589.99 429.31L1526.77 465.81L1463.55 429.31L1463.55 356.31zM1463.55 429.31L1526.77 465.81L1526.77 538.81L1463.55 575.31L1400.32 538.81L1400.32 465.81zM1463.55 648.31L1526.77 684.81L1526.77 757.81L1463.55 794.31L1400.32 757.81L1400.32 684.81zM1463.55 867.31L1526.77 903.81L1526.77 976.81L1463.55 1013.31L1400.32 976.81L1400.32 903.81zM1526.77 1195.81L1589.99 1232.31L1589.99 1305.31L1526.77 1341.81L1463.55 1305.31L1463.55 1232.31zM1526.77 1414.81L1589.99 1451.31L1589.99 1524.31L1526.77 1560.81L1463.55 1524.31L1463.55 1451.31zM1653.21 100.81L1716.43 137.31L1716.43 210.31L1653.21 246.81L1589.99 210.31L1589.99 137.31zM1589.99 210.31L1653.21 246.81L1653.21 319.81L1589.99 356.31L1526.77 319.81L1526.77 246.81zM1589.99 429.31L1653.21 465.81L1653.21 538.81L1589.99 575.31L1526.77 538.81L1526.77 465.81zM1653.21 538.81L1716.43 575.31L1716.43 648.31L1653.21 684.81L1589.99 648.31L1589.99 575.31zM1589.99 867.31L1653.21 903.81L1653.21 976.81L1589.99 1013.31L1526.77 976.81L1526.77 903.81zM1653.21 1414.81L1716.43 1451.31L1716.43 1524.31L1653.21 1560.81L1589.99 1524.31L1589.99 1451.31zM1779.65 319.81L1842.88 356.31L1842.88 429.31L1779.65 465.81L1716.43 429.31L1716.43 356.31zM1716.43 429.31L1779.65 465.81L1779.65 538.81L1716.43 575.31L1653.21 538.81L1653.21 465.81zM1779.65 538.81L1842.88 575.31L1842.88 648.31L1779.65 684.81L1716.43 648.31L1716.43 575.31zM1716.43 648.31L1779.65 684.81L1779.65 757.81L1716.43 794.31L1653.21 757.81L1653.21 684.81zM1716.43 867.31L1779.65 903.81L1779.65 976.81L1716.43 1013.31L1653.21 976.81L1653.21 903.81zM1716.43 1086.31L1779.65 1122.81L1779.65 1195.81L1716.43 1232.31L1653.21 1195.81L1653.21 1122.81zM1779.65 1414.81L1842.88 1451.31L1842.88 1524.31L1779.65 1560.81L1716.43 1524.31L1716.43 1451.31zM1906.1 319.81L1969.32 356.31L1969.32 429.31L1906.1 465.81L1842.88 429.31L1842.88 356.31zM1906.1 538.81L1969.32 575.31L1969.32 648.31L1906.1 684.81L1842.88 648.31L1842.88 575.31zM1906.1 757.81L1969.32 794.31L1969.32 867.31L1906.1 903.81L1842.88 867.31L1842.88 794.31zM1842.88 867.31L1906.1 903.81L1906.1 976.81L1842.88 1013.31L1779.65 976.81L1779.65 903.81zM1906.1 1195.81L1969.32 1232.31L1969.32 1305.31L1906.1 1341.81L1842.88 1305.31L1842.88 1232.31zM1969.32 -8.69L2032.54 27.81L2032.54 100.81L1969.32 137.31L1906.1 100.81L1906.1 27.81zM1969.32 210.31L2032.54 246.81L2032.54 319.81L1969.32 356.31L1906.1 319.81L1906.1 246.81zM1969.32 429.31L2032.54 465.81L2032.54 538.81L1969.32 575.31L1906.1 538.81L1906.1 465.81zM2032.54 538.81L2095.76 575.31L2095.76 648.31L2032.54 684.81L1969.32 648.31L1969.32 575.31zM1969.32 648.31L2032.54 684.81L2032.54 757.81L1969.32 794.31L1906.1 757.81L1906.1 684.81zM1969.32 867.31L2032.54 903.81L2032.54 976.81L1969.32 1013.31L1906.1 976.81L1906.1 903.81zM2032.54 976.81L2095.76 1013.31L2095.76 1086.31L2032.54 1122.81L1969.32 1086.31L1969.32 1013.31zM2032.54 1195.81L2095.76 1232.31L2095.76 1305.31L2032.54 1341.81L1969.32 1305.31L1969.32 1232.31zM1969.32 1305.31L2032.54 1341.81L2032.54 1414.81L1969.32 1451.31L1906.1 1414.81L1906.1 1341.81z" stroke="#03305d" stroke-width="2"></path><path d="M65.37 -8.69 a7.3 7.3 0 1 0 14.6 0 a7.3 7.3 0 1 0 -14.6 0zM128.59 27.81 a7.3 7.3 0 1 0 14.6 0 a7.3 7.3 0 1 0 -14.6 0zM128.59 100.81 a7.3 7.3 0 1 0 14.6 0 a7.3 7.3 0 1 0 -14.6 0zM65.37 137.31 a7.3 7.3 0 1 0 14.6 0 a7.3 7.3 0 1 0 -14.6 0zM2.15 100.81 a7.3 7.3 0 1 0 14.6 0 a7.3 7.3 0 1 0 -14.6 0zM2.15 27.81 a7.3 7.3 0 1 0 14.6 0 a7.3 7.3 0 1 0 -14.6 0zM191.81 137.31 a7.3 7.3 0 1 0 14.6 0 a7.3 7.3 0 1 0 -14.6 0zM191.81 210.31 a7.3 7.3 0 1 0 14.6 0 a7.3 7.3 0 1 0 -14.6 0zM128.59 246.81 a7.3 7.3 0 1 0 14.6 0 a7.3 7.3 0 1 0 -14.6 0zM65.37 210.31 a7.3 7.3 0 1 0 14.6 0 a7.3 7.3 0 1 0 -14.6 0zM128.59 319.81 a7.3 7.3 0 1 0 14.6 0 a7.3 7.3 0 1 0 -14.6 0zM191.81 356.31 a7.3 7.3 0 1 0 14.6 0 a7.3 7.3 0 1 0 -14.6 0zM191.81 429.31 a7.3 7.3 0 1 0 14.6 0 a7.3 7.3 0 1 0 -14.6 0zM128.59 465.81 a7.3 7.3 0 1 0 14.6 0 a7.3 7.3 0 1 0 -14.6 0zM65.37 429.31 a7.3 7.3 0 1 0 14.6 0 a7.3 7.3 0 1 0 -14.6 0zM65.37 356.31 a7.3 7.3 0 1 0 14.6 0 a7.3 7.3 0 1 0 -14.6 0zM128.59 538.81 a7.3 7.3 0 1 0 14.6 0 a7.3 7.3 0 1 0 -14.6 0zM65.37 575.31 a7.3 7.3 0 1 0 14.6 0 a7.3 7.3 0 1 0 -14.6 0zM2.15 538.81 a7.3 7.3 0 1 0 14.6 0 a7.3 7.3 0 1 0 -14.6 0zM2.15 465.81 a7.3 7.3 0 1 0 14.6 0 a7.3 7.3 0 1 0 -14.6 0zM128.59 976.81 a7.3 7.3 0 1 0 14.6 0 a7.3 7.3 0 1 0 -14.6 0zM191.81 1013.31 a7.3 7.3 0 1 0 14.6 0 a7.3 7.3 0 1 0 -14.6 0zM191.81 1086.31 a7.3 7.3 0 1 0 14.6 0 a7.3 7.3 0 1 0 -14.6 0zM128.59 1122.81 a7.3 7.3 0 1 0 14.6 0 a7.3 7.3 0 1 0 -14.6 0zM65.37 1086.31 a7.3 7.3 0 1 0 14.6 0 a7.3 7.3 0 1 0 -14.6 0zM65.37 1013.31 a7.3 7.3 0 1 0 14.6 0 a7.3 7.3 0 1 0 -14.6 0zM128.59 1195.81 a7.3 7.3 0 1 0 14.6 0 a7.3 7.3 0 1 0 -14.6 0zM65.37 1232.31 a7.3 7.3 0 1 0 14.6 0 a7.3 7.3 0 1 0 -14.6 0zM2.15 1195.81 a7.3 7.3 0 1 0 14.6 0 a7.3 7.3 0 1 0 -14.6 0zM2.15 1122.81 a7.3 7.3 0 1 0 14.6 0 a7.3 7.3 0 1 0 -14.6 0zM191.81 1232.31 a7.3 7.3 0 1 0 14.6 0 a7.3 7.3 0 1 0 -14.6 0zM191.81 1305.31 a7.3 7.3 0 1 0 14.6 0 a7.3 7.3 0 1 0 -14.6 0zM128.59 1341.81 a7.3 7.3 0 1 0 14.6 0 a7.3 7.3 0 1 0 -14.6 0zM65.37 1305.31 a7.3 7.3 0 1 0 14.6 0 a7.3 7.3 0 1 0 -14.6 0zM255.03 246.81 a7.3 7.3 0 1 0 14.6 0 a7.3 7.3 0 1 0 -14.6 0zM255.03 319.81 a7.3 7.3 0 1 0 14.6 0 a7.3 7.3 0 1 0 -14.6 0zM318.26 356.31 a7.3 7.3 0 1 0 14.6 0 a7.3 7.3 0 1 0 -14.6 0zM318.26 429.31 a7.3 7.3 0 1 0 14.6 0 a7.3 7.3 0 1 0 -14.6 0zM255.03 465.81 a7.3 7.3 0 1 0 14.6 0 a7.3 7.3 0 1 0 -14.6 0zM255.03 538.81 a7.3 7.3 0 1 0 14.6 0 a7.3 7.3 0 1 0 -14.6 0zM191.81 575.31 a7.3 7.3 0 1 0 14.6 0 a7.3 7.3 0 1 0 -14.6 0zM318.26 575.31 a7.3 7.3 0 1 0 14.6 0 a7.3 7.3 0 1 0 -14.6 0zM318.26 648.31 a7.3 7.3 0 1 0 14.6 0 a7.3 7.3 0 1 0 -14.6 0zM255.03 684.81 a7.3 7.3 0 1 0 14.6 0 a7.3 7.3 0 1 0 -14.6 0zM191.81 648.31 a7.3 7.3 0 1 0 14.6 0 a7.3 7.3 0 1 0 -14.6 0zM255.03 757.81 a7.3 7.3 0 1 0 14.6 0 a7.3 7.3 0 1 0 -14.6 0zM191.81 794.31 a7.3 7.3 0 1 0 14.6 0 a7.3 7.3 0 1 0 -14.6 0zM128.59 757.81 a7.3 7.3 0 1 0 14.6 0 a7.3 7.3 0 1 0 -14.6 0zM128.59 684.81 a7.3 7.3 0 1 0 14.6 0 a7.3 7.3 0 1 0 -14.6 0zM191.81 867.31 a7.3 7.3 0 1 0 14.6 0 a7.3 7.3 0 1 0 -14.6 0zM255.03 903.81 a7.3 7.3 0 1 0 14.6 0 a7.3 7.3 0 1 0 -14.6 0zM255.03 976.81 a7.3 7.3 0 1 0 14.6 0 a7.3 7.3 0 1 0 -14.6 0zM128.59 903.81 a7.3 7.3 0 1 0 14.6 0 a7.3 7.3 0 1 0 -14.6 0zM318.26 1013.31 a7.3 7.3 0 1 0 14.6 0 a7.3 7.3 0 1 0 -14.6 0zM318.26 1086.31 a7.3 7.3 0 1 0 14.6 0 a7.3 7.3 0 1 0 -14.6 0zM255.03 1122.81 a7.3 7.3 0 1 0 14.6 0 a7.3 7.3 0 1 0 -14.6 0zM255.03 1195.81 a7.3 7.3 0 1 0 14.6 0 a7.3 7.3 0 1 0 -14.6 0zM255.03 1341.81 a7.3 7.3 0 1 0 14.6 0 a7.3 7.3 0 1 0 -14.6 0zM255.03 1414.81 a7.3 7.3 0 1 0 14.6 0 a7.3 7.3 0 1 0 -14.6 0zM191.81 1451.31 a7.3 7.3 0 1 0 14.6 0 a7.3 7.3 0 1 0 -14.6 0zM128.59 1414.81 a7.3 7.3 0 1 0 14.6 0 a7.3 7.3 0 1 0 -14.6 0zM318.26 1451.31 a7.3 7.3 0 1 0 14.6 0 a7.3 7.3 0 1 0 -14.6 0zM318.26 1524.31 a7.3 7.3 0 1 0 14.6 0 a7.3 7.3 0 1 0 -14.6 0zM255.03 1560.81 a7.3 7.3 0 1 0 14.6 0 a7.3 7.3 0 1 0 -14.6 0zM191.81 1524.31 a7.3 7.3 0 1 0 14.6 0 a7.3 7.3 0 1 0 -14.6 0zM318.26 -8.69 a7.3 7.3 0 1 0 14.6 0 a7.3 7.3 0 1 0 -14.6 0zM381.48 27.81 a7.3 7.3 0 1 0 14.6 0 a7.3 7.3 0 1 0 -14.6 0zM381.48 100.81 a7.3 7.3 0 1 0 14.6 0 a7.3 7.3 0 1 0 -14.6 0zM318.26 137.31 a7.3 7.3 0 1 0 14.6 0 a7.3 7.3 0 1 0 -14.6 0zM255.03 100.81 a7.3 7.3 0 1 0 14.6 0 a7.3 7.3 0 1 0 -14.6 0zM255.03 27.81 a7.3 7.3 0 1 0 14.6 0 a7.3 7.3 0 1 0 -14.6 0zM381.48 538.81 a7.3 7.3 0 1 0 14.6 0 a7.3 7.3 0 1 0 -14.6 0zM444.7 575.31 a7.3 7.3 0 1 0 14.6 0 a7.3 7.3 0 1 0 -14.6 0zM444.7 648.31 a7.3 7.3 0 1 0 14.6 0 a7.3 7.3 0 1 0 -14.6 0zM381.48 684.81 a7.3 7.3 0 1 0 14.6 0 a7.3 7.3 0 1 0 -14.6 0zM381.48 1122.81 a7.3 7.3 0 1 0 14.6 0 a7.3 7.3 0 1 0 -14.6 0zM381.48 1195.81 a7.3 7.3 0 1 0 14.6 0 a7.3 7.3 0 1 0 -14.6 0zM318.26 1232.31 a7.3 7.3 0 1 0 14.6 0 a7.3 7.3 0 1 0 -14.6 0zM318.26 1305.31 a7.3 7.3 0 1 0 14.6 0 a7.3 7.3 0 1 0 -14.6 0zM381.48 1341.81 a7.3 7.3 0 1 0 14.6 0 a7.3 7.3 0 1 0 -14.6 0zM381.48 1414.81 a7.3 7.3 0 1 0 14.6 0 a7.3 7.3 0 1 0 -14.6 0zM444.7 1451.31 a7.3 7.3 0 1 0 14.6 0 a7.3 7.3 0 1 0 -14.6 0zM444.7 1524.31 a7.3 7.3 0 1 0 14.6 0 a7.3 7.3 0 1 0 -14.6 0zM381.48 1560.81 a7.3 7.3 0 1 0 14.6 0 a7.3 7.3 0 1 0 -14.6 0zM444.7 429.31 a7.3 7.3 0 1 0 14.6 0 a7.3 7.3 0 1 0 -14.6 0zM507.92 465.81 a7.3 7.3 0 1 0 14.6 0 a7.3 7.3 0 1 0 -14.6 0zM507.92 538.81 a7.3 7.3 0 1 0 14.6 0 a7.3 7.3 0 1 0 -14.6 0zM381.48 465.81 a7.3 7.3 0 1 0 14.6 0 a7.3 7.3 0 1 0 -14.6 0zM507.92 757.81 a7.3 7.3 0 1 0 14.6 0 a7.3 7.3 0 1 0 -14.6 0zM571.14 794.31 a7.3 7.3 0 1 0 14.6 0 a7.3 7.3 0 1 0 -14.6 0zM571.14 867.31 a7.3 7.3 0 1 0 14.6 0 a7.3 7.3 0 1 0 -14.6 0zM507.92 903.81 a7.3 7.3 0 1 0 14.6 0 a7.3 7.3 0 1 0 -14.6 0zM444.7 867.31 a7.3 7.3 0 1 0 14.6 0 a7.3 7.3 0 1 0 -14.6 0zM444.7 794.31 a7.3 7.3 0 1 0 14.6 0 a7.3 7.3 0 1 0 -14.6 0zM507.92 976.81 a7.3 7.3 0 1 0 14.6 0 a7.3 7.3 0 1 0 -14.6 0zM571.14 1013.31 a7.3 7.3 0 1 0 14.6 0 a7.3 7.3 0 1 0 -14.6 0zM571.14 1086.31 a7.3 7.3 0 1 0 14.6 0 a7.3 7.3 0 1 0 -14.6 0zM507.92 1122.81 a7.3 7.3 0 1 0 14.6 0 a7.3 7.3 0 1 0 -14.6 0zM444.7 1086.31 a7.3 7.3 0 1 0 14.6 0 a7.3 7.3 0 1 0 -14.6 0zM444.7 1013.31 a7.3 7.3 0 1 0 14.6 0 a7.3 7.3 0 1 0 -14.6 0zM507.92 1195.81 a7.3 7.3 0 1 0 14.6 0 a7.3 7.3 0 1 0 -14.6 0zM571.14 1232.31 a7.3 7.3 0 1 0 14.6 0 a7.3 7.3 0 1 0 -14.6 0zM571.14 1305.31 a7.3 7.3 0 1 0 14.6 0 a7.3 7.3 0 1 0 -14.6 0zM507.92 1341.81 a7.3 7.3 0 1 0 14.6 0 a7.3 7.3 0 1 0 -14.6 0zM444.7 1305.31 a7.3 7.3 0 1 0 14.6 0 a7.3 7.3 0 1 0 -14.6 0zM444.7 1232.31 a7.3 7.3 0 1 0 14.6 0 a7.3 7.3 0 1 0 -14.6 0zM507.92 1414.81 a7.3 7.3 0 1 0 14.6 0 a7.3 7.3 0 1 0 -14.6 0zM571.14 210.31 a7.3 7.3 0 1 0 14.6 0 a7.3 7.3 0 1 0 -14.6 0zM634.36 246.81 a7.3 7.3 0 1 0 14.6 0 a7.3 7.3 0 1 0 -14.6 0zM634.36 319.81 a7.3 7.3 0 1 0 14.6 0 a7.3 7.3 0 1 0 -14.6 0zM571.14 356.31 a7.3 7.3 0 1 0 14.6 0 a7.3 7.3 0 1 0 -14.6 0zM507.92 319.81 a7.3 7.3 0 1 0 14.6 0 a7.3 7.3 0 1 0 -14.6 0zM507.92 246.81 a7.3 7.3 0 1 0 14.6 0 a7.3 7.3 0 1 0 -14.6 0zM634.36 1195.81 a7.3 7.3 0 1 0 14.6 0 a7.3 7.3 0 1 0 -14.6 0zM697.59 1232.31 a7.3 7.3 0 1 0 14.6 0 a7.3 7.3 0 1 0 -14.6 0zM697.59 1305.31 a7.3 7.3 0 1 0 14.6 0 a7.3 7.3 0 1 0 -14.6 0zM634.36 1341.81 a7.3 7.3 0 1 0 14.6 0 a7.3 7.3 0 1 0 -14.6 0zM697.59 -8.69 a7.3 7.3 0 1 0 14.6 0 a7.3 7.3 0 1 0 -14.6 0zM760.81 27.81 a7.3 7.3 0 1 0 14.6 0 a7.3 7.3 0 1 0 -14.6 0zM760.81 100.81 a7.3 7.3 0 1 0 14.6 0 a7.3 7.3 0 1 0 -14.6 0zM697.59 137.31 a7.3 7.3 0 1 0 14.6 0 a7.3 7.3 0 1 0 -14.6 0zM634.36 100.81 a7.3 7.3 0 1 0 14.6 0 a7.3 7.3 0 1 0 -14.6 0zM634.36 27.81 a7.3 7.3 0 1 0 14.6 0 a7.3 7.3 0 1 0 -14.6 0zM824.03 137.31 a7.3 7.3 0 1 0 14.6 0 a7.3 7.3 0 1 0 -14.6 0zM824.03 210.31 a7.3 7.3 0 1 0 14.6 0 a7.3 7.3 0 1 0 -14.6 0zM760.81 246.81 a7.3 7.3 0 1 0 14.6 0 a7.3 7.3 0 1 0 -14.6 0zM697.59 210.31 a7.3 7.3 0 1 0 14.6 0 a7.3 7.3 0 1 0 -14.6 0zM760.81 319.81 a7.3 7.3 0 1 0 14.6 0 a7.3 7.3 0 1 0 -14.6 0zM697.59 356.31 a7.3 7.3 0 1 0 14.6 0 a7.3 7.3 0 1 0 -14.6 0zM824.03 356.31 a7.3 7.3 0 1 0 14.6 0 a7.3 7.3 0 1 0 -14.6 0zM824.03 429.31 a7.3 7.3 0 1 0 14.6 0 a7.3 7.3 0 1 0 -14.6 0zM760.81 465.81 a7.3 7.3 0 1 0 14.6 0 a7.3 7.3 0 1 0 -14.6 0zM697.59 429.31 a7.3 7.3 0 1 0 14.6 0 a7.3 7.3 0 1 0 -14.6 0zM760.81 538.81 a7.3 7.3 0 1 0 14.6 0 a7.3 7.3 0 1 0 -14.6 0zM697.59 575.31 a7.3 7.3 0 1 0 14.6 0 a7.3 7.3 0 1 0 -14.6 0zM634.36 538.81 a7.3 7.3 0 1 0 14.6 0 a7.3 7.3 0 1 0 -14.6 0zM634.36 465.81 a7.3 7.3 0 1 0 14.6 0 a7.3 7.3 0 1 0 -14.6 0zM824.03 575.31 a7.3 7.3 0 1 0 14.6 0 a7.3 7.3 0 1 0 -14.6 0zM824.03 648.31 a7.3 7.3 0 1 0 14.6 0 a7.3 7.3 0 1 0 -14.6 0zM760.81 684.81 a7.3 7.3 0 1 0 14.6 0 a7.3 7.3 0 1 0 -14.6 0zM697.59 648.31 a7.3 7.3 0 1 0 14.6 0 a7.3 7.3 0 1 0 -14.6 0zM760.81 757.81 a7.3 7.3 0 1 0 14.6 0 a7.3 7.3 0 1 0 -14.6 0zM824.03 794.31 a7.3 7.3 0 1 0 14.6 0 a7.3 7.3 0 1 0 -14.6 0zM824.03 867.31 a7.3 7.3 0 1 0 14.6 0 a7.3 7.3 0 1 0 -14.6 0zM760.81 903.81 a7.3 7.3 0 1 0 14.6 0 a7.3 7.3 0 1 0 -14.6 0zM697.59 867.31 a7.3 7.3 0 1 0 14.6 0 a7.3 7.3 0 1 0 -14.6 0zM697.59 794.31 a7.3 7.3 0 1 0 14.6 0 a7.3 7.3 0 1 0 -14.6 0zM760.81 976.81 a7.3 7.3 0 1 0 14.6 0 a7.3 7.3 0 1 0 -14.6 0zM697.59 1013.31 a7.3 7.3 0 1 0 14.6 0 a7.3 7.3 0 1 0 -14.6 0zM634.36 976.81 a7.3 7.3 0 1 0 14.6 0 a7.3 7.3 0 1 0 -14.6 0zM634.36 903.81 a7.3 7.3 0 1 0 14.6 0 a7.3 7.3 0 1 0 -14.6 0zM697.59 1086.31 a7.3 7.3 0 1 0 14.6 0 a7.3 7.3 0 1 0 -14.6 0zM760.81 1122.81 a7.3 7.3 0 1 0 14.6 0 a7.3 7.3 0 1 0 -14.6 0zM760.81 1195.81 a7.3 7.3 0 1 0 14.6 0 a7.3 7.3 0 1 0 -14.6 0zM634.36 1122.81 a7.3 7.3 0 1 0 14.6 0 a7.3 7.3 0 1 0 -14.6 0zM824.03 1232.31 a7.3 7.3 0 1 0 14.6 0 a7.3 7.3 0 1 0 -14.6 0zM824.03 1305.31 a7.3 7.3 0 1 0 14.6 0 a7.3 7.3 0 1 0 -14.6 0zM760.81 1341.81 a7.3 7.3 0 1 0 14.6 0 a7.3 7.3 0 1 0 -14.6 0zM760.81 1414.81 a7.3 7.3 0 1 0 14.6 0 a7.3 7.3 0 1 0 -14.6 0zM697.59 1451.31 a7.3 7.3 0 1 0 14.6 0 a7.3 7.3 0 1 0 -14.6 0zM634.36 1414.81 a7.3 7.3 0 1 0 14.6 0 a7.3 7.3 0 1 0 -14.6 0zM824.03 1451.31 a7.3 7.3 0 1 0 14.6 0 a7.3 7.3 0 1 0 -14.6 0zM824.03 1524.31 a7.3 7.3 0 1 0 14.6 0 a7.3 7.3 0 1 0 -14.6 0zM760.81 1560.81 a7.3 7.3 0 1 0 14.6 0 a7.3 7.3 0 1 0 -14.6 0zM697.59 1524.31 a7.3 7.3 0 1 0 14.6 0 a7.3 7.3 0 1 0 -14.6 0zM887.25 465.81 a7.3 7.3 0 1 0 14.6 0 a7.3 7.3 0 1 0 -14.6 0zM887.25 538.81 a7.3 7.3 0 1 0 14.6 0 a7.3 7.3 0 1 0 -14.6 0zM887.25 757.81 a7.3 7.3 0 1 0 14.6 0 a7.3 7.3 0 1 0 -14.6 0zM950.47 794.31 a7.3 7.3 0 1 0 14.6 0 a7.3 7.3 0 1 0 -14.6 0zM950.47 867.31 a7.3 7.3 0 1 0 14.6 0 a7.3 7.3 0 1 0 -14.6 0zM887.25 903.81 a7.3 7.3 0 1 0 14.6 0 a7.3 7.3 0 1 0 -14.6 0zM824.03 1086.31 a7.3 7.3 0 1 0 14.6 0 a7.3 7.3 0 1 0 -14.6 0zM887.25 1122.81 a7.3 7.3 0 1 0 14.6 0 a7.3 7.3 0 1 0 -14.6 0zM887.25 1195.81 a7.3 7.3 0 1 0 14.6 0 a7.3 7.3 0 1 0 -14.6 0zM887.25 1341.81 a7.3 7.3 0 1 0 14.6 0 a7.3 7.3 0 1 0 -14.6 0zM887.25 1414.81 a7.3 7.3 0 1 0 14.6 0 a7.3 7.3 0 1 0 -14.6 0zM950.47 210.31 a7.3 7.3 0 1 0 14.6 0 a7.3 7.3 0 1 0 -14.6 0zM1013.69 246.81 a7.3 7.3 0 1 0 14.6 0 a7.3 7.3 0 1 0 -14.6 0zM1013.69 319.81 a7.3 7.3 0 1 0 14.6 0 a7.3 7.3 0 1 0 -14.6 0zM950.47 356.31 a7.3 7.3 0 1 0 14.6 0 a7.3 7.3 0 1 0 -14.6 0zM887.25 319.81 a7.3 7.3 0 1 0 14.6 0 a7.3 7.3 0 1 0 -14.6 0zM887.25 246.81 a7.3 7.3 0 1 0 14.6 0 a7.3 7.3 0 1 0 -14.6 0zM1076.92 356.31 a7.3 7.3 0 1 0 14.6 0 a7.3 7.3 0 1 0 -14.6 0zM1076.92 429.31 a7.3 7.3 0 1 0 14.6 0 a7.3 7.3 0 1 0 -14.6 0zM1013.69 465.81 a7.3 7.3 0 1 0 14.6 0 a7.3 7.3 0 1 0 -14.6 0zM950.47 429.31 a7.3 7.3 0 1 0 14.6 0 a7.3 7.3 0 1 0 -14.6 0zM1013.69 1195.81 a7.3 7.3 0 1 0 14.6 0 a7.3 7.3 0 1 0 -14.6 0zM1076.92 1232.31 a7.3 7.3 0 1 0 14.6 0 a7.3 7.3 0 1 0 -14.6 0zM1076.92 1305.31 a7.3 7.3 0 1 0 14.6 0 a7.3 7.3 0 1 0 -14.6 0zM1013.69 1341.81 a7.3 7.3 0 1 0 14.6 0 a7.3 7.3 0 1 0 -14.6 0zM950.47 1305.31 a7.3 7.3 0 1 0 14.6 0 a7.3 7.3 0 1 0 -14.6 0zM950.47 1232.31 a7.3 7.3 0 1 0 14.6 0 a7.3 7.3 0 1 0 -14.6 0zM1076.92 -8.69 a7.3 7.3 0 1 0 14.6 0 a7.3 7.3 0 1 0 -14.6 0zM1140.14 27.81 a7.3 7.3 0 1 0 14.6 0 a7.3 7.3 0 1 0 -14.6 0zM1140.14 100.81 a7.3 7.3 0 1 0 14.6 0 a7.3 7.3 0 1 0 -14.6 0zM1076.92 137.31 a7.3 7.3 0 1 0 14.6 0 a7.3 7.3 0 1 0 -14.6 0zM1013.69 100.81 a7.3 7.3 0 1 0 14.6 0 a7.3 7.3 0 1 0 -14.6 0zM1013.69 27.81 a7.3 7.3 0 1 0 14.6 0 a7.3 7.3 0 1 0 -14.6 0zM1140.14 319.81 a7.3 7.3 0 1 0 14.6 0 a7.3 7.3 0 1 0 -14.6 0zM1203.36 356.31 a7.3 7.3 0 1 0 14.6 0 a7.3 7.3 0 1 0 -14.6 0zM1203.36 429.31 a7.3 7.3 0 1 0 14.6 0 a7.3 7.3 0 1 0 -14.6 0zM1140.14 465.81 a7.3 7.3 0 1 0 14.6 0 a7.3 7.3 0 1 0 -14.6 0zM1140.14 538.81 a7.3 7.3 0 1 0 14.6 0 a7.3 7.3 0 1 0 -14.6 0zM1076.92 575.31 a7.3 7.3 0 1 0 14.6 0 a7.3 7.3 0 1 0 -14.6 0zM1013.69 538.81 a7.3 7.3 0 1 0 14.6 0 a7.3 7.3 0 1 0 -14.6 0zM1076.92 648.31 a7.3 7.3 0 1 0 14.6 0 a7.3 7.3 0 1 0 -14.6 0zM1140.14 684.81 a7.3 7.3 0 1 0 14.6 0 a7.3 7.3 0 1 0 -14.6 0zM1140.14 757.81 a7.3 7.3 0 1 0 14.6 0 a7.3 7.3 0 1 0 -14.6 0zM1076.92 794.31 a7.3 7.3 0 1 0 14.6 0 a7.3 7.3 0 1 0 -14.6 0zM1013.69 757.81 a7.3 7.3 0 1 0 14.6 0 a7.3 7.3 0 1 0 -14.6 0zM1013.69 684.81 a7.3 7.3 0 1 0 14.6 0 a7.3 7.3 0 1 0 -14.6 0zM1203.36 794.31 a7.3 7.3 0 1 0 14.6 0 a7.3 7.3 0 1 0 -14.6 0zM1203.36 867.31 a7.3 7.3 0 1 0 14.6 0 a7.3 7.3 0 1 0 -14.6 0zM1140.14 903.81 a7.3 7.3 0 1 0 14.6 0 a7.3 7.3 0 1 0 -14.6 0zM1076.92 867.31 a7.3 7.3 0 1 0 14.6 0 a7.3 7.3 0 1 0 -14.6 0zM1140.14 976.81 a7.3 7.3 0 1 0 14.6 0 a7.3 7.3 0 1 0 -14.6 0zM1203.36 1013.31 a7.3 7.3 0 1 0 14.6 0 a7.3 7.3 0 1 0 -14.6 0zM1203.36 1086.31 a7.3 7.3 0 1 0 14.6 0 a7.3 7.3 0 1 0 -14.6 0zM1140.14 1122.81 a7.3 7.3 0 1 0 14.6 0 a7.3 7.3 0 1 0 -14.6 0zM1076.92 1086.31 a7.3 7.3 0 1 0 14.6 0 a7.3 7.3 0 1 0 -14.6 0zM1076.92 1013.31 a7.3 7.3 0 1 0 14.6 0 a7.3 7.3 0 1 0 -14.6 0zM1140.14 1341.81 a7.3 7.3 0 1 0 14.6 0 a7.3 7.3 0 1 0 -14.6 0zM1140.14 1414.81 a7.3 7.3 0 1 0 14.6 0 a7.3 7.3 0 1 0 -14.6 0zM1076.92 1451.31 a7.3 7.3 0 1 0 14.6 0 a7.3 7.3 0 1 0 -14.6 0zM1013.69 1414.81 a7.3 7.3 0 1 0 14.6 0 a7.3 7.3 0 1 0 -14.6 0zM1203.36 -8.69 a7.3 7.3 0 1 0 14.6 0 a7.3 7.3 0 1 0 -14.6 0zM1266.58 27.81 a7.3 7.3 0 1 0 14.6 0 a7.3 7.3 0 1 0 -14.6 0zM1266.58 100.81 a7.3 7.3 0 1 0 14.6 0 a7.3 7.3 0 1 0 -14.6 0zM1203.36 137.31 a7.3 7.3 0 1 0 14.6 0 a7.3 7.3 0 1 0 -14.6 0zM1266.58 319.81 a7.3 7.3 0 1 0 14.6 0 a7.3 7.3 0 1 0 -14.6 0zM1329.8 356.31 a7.3 7.3 0 1 0 14.6 0 a7.3 7.3 0 1 0 -14.6 0zM1329.8 429.31 a7.3 7.3 0 1 0 14.6 0 a7.3 7.3 0 1 0 -14.6 0zM1266.58 465.81 a7.3 7.3 0 1 0 14.6 0 a7.3 7.3 0 1 0 -14.6 0zM1266.58 538.81 a7.3 7.3 0 1 0 14.6 0 a7.3 7.3 0 1 0 -14.6 0zM1203.36 575.31 a7.3 7.3 0 1 0 14.6 0 a7.3 7.3 0 1 0 -14.6 0zM1266.58 1122.81 a7.3 7.3 0 1 0 14.6 0 a7.3 7.3 0 1 0 -14.6 0zM1266.58 1195.81 a7.3 7.3 0 1 0 14.6 0 a7.3 7.3 0 1 0 -14.6 0zM1203.36 1232.31 a7.3 7.3 0 1 0 14.6 0 a7.3 7.3 0 1 0 -14.6 0zM1140.14 1195.81 a7.3 7.3 0 1 0 14.6 0 a7.3 7.3 0 1 0 -14.6 0zM1329.8 1232.31 a7.3 7.3 0 1 0 14.6 0 a7.3 7.3 0 1 0 -14.6 0zM1329.8 1305.31 a7.3 7.3 0 1 0 14.6 0 a7.3 7.3 0 1 0 -14.6 0zM1266.58 1341.81 a7.3 7.3 0 1 0 14.6 0 a7.3 7.3 0 1 0 -14.6 0zM1203.36 1305.31 a7.3 7.3 0 1 0 14.6 0 a7.3 7.3 0 1 0 -14.6 0zM1329.8 -8.69 a7.3 7.3 0 1 0 14.6 0 a7.3 7.3 0 1 0 -14.6 0zM1393.02 27.81 a7.3 7.3 0 1 0 14.6 0 a7.3 7.3 0 1 0 -14.6 0zM1393.02 100.81 a7.3 7.3 0 1 0 14.6 0 a7.3 7.3 0 1 0 -14.6 0zM1329.8 137.31 a7.3 7.3 0 1 0 14.6 0 a7.3 7.3 0 1 0 -14.6 0zM1329.8 648.31 a7.3 7.3 0 1 0 14.6 0 a7.3 7.3 0 1 0 -14.6 0zM1393.02 684.81 a7.3 7.3 0 1 0 14.6 0 a7.3 7.3 0 1 0 -14.6 0zM1393.02 757.81 a7.3 7.3 0 1 0 14.6 0 a7.3 7.3 0 1 0 -14.6 0zM1329.8 794.31 a7.3 7.3 0 1 0 14.6 0 a7.3 7.3 0 1 0 -14.6 0zM1266.58 757.81 a7.3 7.3 0 1 0 14.6 0 a7.3 7.3 0 1 0 -14.6 0zM1266.58 684.81 a7.3 7.3 0 1 0 14.6 0 a7.3 7.3 0 1 0 -14.6 0zM1456.25 794.31 a7.3 7.3 0 1 0 14.6 0 a7.3 7.3 0 1 0 -14.6 0zM1456.25 867.31 a7.3 7.3 0 1 0 14.6 0 a7.3 7.3 0 1 0 -14.6 0zM1393.02 903.81 a7.3 7.3 0 1 0 14.6 0 a7.3 7.3 0 1 0 -14.6 0zM1329.8 867.31 a7.3 7.3 0 1 0 14.6 0 a7.3 7.3 0 1 0 -14.6 0zM1393.02 976.81 a7.3 7.3 0 1 0 14.6 0 a7.3 7.3 0 1 0 -14.6 0zM1329.8 1013.31 a7.3 7.3 0 1 0 14.6 0 a7.3 7.3 0 1 0 -14.6 0zM1266.58 976.81 a7.3 7.3 0 1 0 14.6 0 a7.3 7.3 0 1 0 -14.6 0zM1266.58 903.81 a7.3 7.3 0 1 0 14.6 0 a7.3 7.3 0 1 0 -14.6 0zM1393.02 1195.81 a7.3 7.3 0 1 0 14.6 0 a7.3 7.3 0 1 0 -14.6 0zM1456.25 1232.31 a7.3 7.3 0 1 0 14.6 0 a7.3 7.3 0 1 0 -14.6 0zM1456.25 1305.31 a7.3 7.3 0 1 0 14.6 0 a7.3 7.3 0 1 0 -14.6 0zM1393.02 1341.81 a7.3 7.3 0 1 0 14.6 0 a7.3 7.3 0 1 0 -14.6 0zM1519.47 100.81 a7.3 7.3 0 1 0 14.6 0 a7.3 7.3 0 1 0 -14.6 0zM1582.69 137.31 a7.3 7.3 0 1 0 14.6 0 a7.3 7.3 0 1 0 -14.6 0zM1582.69 210.31 a7.3 7.3 0 1 0 14.6 0 a7.3 7.3 0 1 0 -14.6 0zM1519.47 246.81 a7.3 7.3 0 1 0 14.6 0 a7.3 7.3 0 1 0 -14.6 0zM1456.25 210.31 a7.3 7.3 0 1 0 14.6 0 a7.3 7.3 0 1 0 -14.6 0zM1456.25 137.31 a7.3 7.3 0 1 0 14.6 0 a7.3 7.3 0 1 0 -14.6 0zM1519.47 319.81 a7.3 7.3 0 1 0 14.6 0 a7.3 7.3 0 1 0 -14.6 0zM1456.25 356.31 a7.3 7.3 0 1 0 14.6 0 a7.3 7.3 0 1 0 -14.6 0zM1393.02 319.81 a7.3 7.3 0 1 0 14.6 0 a7.3 7.3 0 1 0 -14.6 0zM1393.02 246.81 a7.3 7.3 0 1 0 14.6 0 a7.3 7.3 0 1 0 -14.6 0zM1582.69 356.31 a7.3 7.3 0 1 0 14.6 0 a7.3 7.3 0 1 0 -14.6 0zM1582.69 429.31 a7.3 7.3 0 1 0 14.6 0 a7.3 7.3 0 1 0 -14.6 0zM1519.47 465.81 a7.3 7.3 0 1 0 14.6 0 a7.3 7.3 0 1 0 -14.6 0zM1456.25 429.31 a7.3 7.3 0 1 0 14.6 0 a7.3 7.3 0 1 0 -14.6 0zM1519.47 538.81 a7.3 7.3 0 1 0 14.6 0 a7.3 7.3 0 1 0 -14.6 0zM1456.25 575.31 a7.3 7.3 0 1 0 14.6 0 a7.3 7.3 0 1 0 -14.6 0zM1393.02 538.81 a7.3 7.3 0 1 0 14.6 0 a7.3 7.3 0 1 0 -14.6 0zM1393.02 465.81 a7.3 7.3 0 1 0 14.6 0 a7.3 7.3 0 1 0 -14.6 0zM1456.25 648.31 a7.3 7.3 0 1 0 14.6 0 a7.3 7.3 0 1 0 -14.6 0zM1519.47 684.81 a7.3 7.3 0 1 0 14.6 0 a7.3 7.3 0 1 0 -14.6 0zM1519.47 757.81 a7.3 7.3 0 1 0 14.6 0 a7.3 7.3 0 1 0 -14.6 0zM1519.47 903.81 a7.3 7.3 0 1 0 14.6 0 a7.3 7.3 0 1 0 -14.6 0zM1519.47 976.81 a7.3 7.3 0 1 0 14.6 0 a7.3 7.3 0 1 0 -14.6 0zM1456.25 1013.31 a7.3 7.3 0 1 0 14.6 0 a7.3 7.3 0 1 0 -14.6 0zM1519.47 1195.81 a7.3 7.3 0 1 0 14.6 0 a7.3 7.3 0 1 0 -14.6 0zM1582.69 1232.31 a7.3 7.3 0 1 0 14.6 0 a7.3 7.3 0 1 0 -14.6 0zM1582.69 1305.31 a7.3 7.3 0 1 0 14.6 0 a7.3 7.3 0 1 0 -14.6 0zM1519.47 1341.81 a7.3 7.3 0 1 0 14.6 0 a7.3 7.3 0 1 0 -14.6 0zM1519.47 1414.81 a7.3 7.3 0 1 0 14.6 0 a7.3 7.3 0 1 0 -14.6 0zM1582.69 1451.31 a7.3 7.3 0 1 0 14.6 0 a7.3 7.3 0 1 0 -14.6 0zM1582.69 1524.31 a7.3 7.3 0 1 0 14.6 0 a7.3 7.3 0 1 0 -14.6 0zM1519.47 1560.81 a7.3 7.3 0 1 0 14.6 0 a7.3 7.3 0 1 0 -14.6 0zM1456.25 1524.31 a7.3 7.3 0 1 0 14.6 0 a7.3 7.3 0 1 0 -14.6 0zM1456.25 1451.31 a7.3 7.3 0 1 0 14.6 0 a7.3 7.3 0 1 0 -14.6 0zM1645.91 100.81 a7.3 7.3 0 1 0 14.6 0 a7.3 7.3 0 1 0 -14.6 0zM1709.13 137.31 a7.3 7.3 0 1 0 14.6 0 a7.3 7.3 0 1 0 -14.6 0zM1709.13 210.31 a7.3 7.3 0 1 0 14.6 0 a7.3 7.3 0 1 0 -14.6 0zM1645.91 246.81 a7.3 7.3 0 1 0 14.6 0 a7.3 7.3 0 1 0 -14.6 0zM1645.91 319.81 a7.3 7.3 0 1 0 14.6 0 a7.3 7.3 0 1 0 -14.6 0zM1645.91 465.81 a7.3 7.3 0 1 0 14.6 0 a7.3 7.3 0 1 0 -14.6 0zM1645.91 538.81 a7.3 7.3 0 1 0 14.6 0 a7.3 7.3 0 1 0 -14.6 0zM1582.69 575.31 a7.3 7.3 0 1 0 14.6 0 a7.3 7.3 0 1 0 -14.6 0zM1709.13 575.31 a7.3 7.3 0 1 0 14.6 0 a7.3 7.3 0 1 0 -14.6 0zM1709.13 648.31 a7.3 7.3 0 1 0 14.6 0 a7.3 7.3 0 1 0 -14.6 0zM1645.91 684.81 a7.3 7.3 0 1 0 14.6 0 a7.3 7.3 0 1 0 -14.6 0zM1582.69 648.31 a7.3 7.3 0 1 0 14.6 0 a7.3 7.3 0 1 0 -14.6 0zM1582.69 867.31 a7.3 7.3 0 1 0 14.6 0 a7.3 7.3 0 1 0 -14.6 0zM1645.91 903.81 a7.3 7.3 0 1 0 14.6 0 a7.3 7.3 0 1 0 -14.6 0zM1645.91 976.81 a7.3 7.3 0 1 0 14.6 0 a7.3 7.3 0 1 0 -14.6 0zM1582.69 1013.31 a7.3 7.3 0 1 0 14.6 0 a7.3 7.3 0 1 0 -14.6 0zM1645.91 1414.81 a7.3 7.3 0 1 0 14.6 0 a7.3 7.3 0 1 0 -14.6 0zM1709.13 1451.31 a7.3 7.3 0 1 0 14.6 0 a7.3 7.3 0 1 0 -14.6 0zM1709.13 1524.31 a7.3 7.3 0 1 0 14.6 0 a7.3 7.3 0 1 0 -14.6 0zM1645.91 1560.81 a7.3 7.3 0 1 0 14.6 0 a7.3 7.3 0 1 0 -14.6 0zM1772.35 319.81 a7.3 7.3 0 1 0 14.6 0 a7.3 7.3 0 1 0 -14.6 0zM1835.58 356.31 a7.3 7.3 0 1 0 14.6 0 a7.3 7.3 0 1 0 -14.6 0zM1835.58 429.31 a7.3 7.3 0 1 0 14.6 0 a7.3 7.3 0 1 0 -14.6 0zM1772.35 465.81 a7.3 7.3 0 1 0 14.6 0 a7.3 7.3 0 1 0 -14.6 0zM1709.13 429.31 a7.3 7.3 0 1 0 14.6 0 a7.3 7.3 0 1 0 -14.6 0zM1709.13 356.31 a7.3 7.3 0 1 0 14.6 0 a7.3 7.3 0 1 0 -14.6 0zM1772.35 538.81 a7.3 7.3 0 1 0 14.6 0 a7.3 7.3 0 1 0 -14.6 0zM1835.58 575.31 a7.3 7.3 0 1 0 14.6 0 a7.3 7.3 0 1 0 -14.6 0zM1835.58 648.31 a7.3 7.3 0 1 0 14.6 0 a7.3 7.3 0 1 0 -14.6 0zM1772.35 684.81 a7.3 7.3 0 1 0 14.6 0 a7.3 7.3 0 1 0 -14.6 0zM1772.35 757.81 a7.3 7.3 0 1 0 14.6 0 a7.3 7.3 0 1 0 -14.6 0zM1709.13 794.31 a7.3 7.3 0 1 0 14.6 0 a7.3 7.3 0 1 0 -14.6 0zM1645.91 757.81 a7.3 7.3 0 1 0 14.6 0 a7.3 7.3 0 1 0 -14.6 0zM1709.13 867.31 a7.3 7.3 0 1 0 14.6 0 a7.3 7.3 0 1 0 -14.6 0zM1772.35 903.81 a7.3 7.3 0 1 0 14.6 0 a7.3 7.3 0 1 0 -14.6 0zM1772.35 976.81 a7.3 7.3 0 1 0 14.6 0 a7.3 7.3 0 1 0 -14.6 0zM1709.13 1013.31 a7.3 7.3 0 1 0 14.6 0 a7.3 7.3 0 1 0 -14.6 0zM1709.13 1086.31 a7.3 7.3 0 1 0 14.6 0 a7.3 7.3 0 1 0 -14.6 0zM1772.35 1122.81 a7.3 7.3 0 1 0 14.6 0 a7.3 7.3 0 1 0 -14.6 0zM1772.35 1195.81 a7.3 7.3 0 1 0 14.6 0 a7.3 7.3 0 1 0 -14.6 0zM1709.13 1232.31 a7.3 7.3 0 1 0 14.6 0 a7.3 7.3 0 1 0 -14.6 0zM1645.91 1195.81 a7.3 7.3 0 1 0 14.6 0 a7.3 7.3 0 1 0 -14.6 0zM1645.91 1122.81 a7.3 7.3 0 1 0 14.6 0 a7.3 7.3 0 1 0 -14.6 0zM1772.35 1414.81 a7.3 7.3 0 1 0 14.6 0 a7.3 7.3 0 1 0 -14.6 0zM1835.58 1451.31 a7.3 7.3 0 1 0 14.6 0 a7.3 7.3 0 1 0 -14.6 0zM1835.58 1524.31 a7.3 7.3 0 1 0 14.6 0 a7.3 7.3 0 1 0 -14.6 0zM1772.35 1560.81 a7.3 7.3 0 1 0 14.6 0 a7.3 7.3 0 1 0 -14.6 0zM1898.8 319.81 a7.3 7.3 0 1 0 14.6 0 a7.3 7.3 0 1 0 -14.6 0zM1962.02 356.31 a7.3 7.3 0 1 0 14.6 0 a7.3 7.3 0 1 0 -14.6 0zM1962.02 429.31 a7.3 7.3 0 1 0 14.6 0 a7.3 7.3 0 1 0 -14.6 0zM1898.8 465.81 a7.3 7.3 0 1 0 14.6 0 a7.3 7.3 0 1 0 -14.6 0zM1898.8 538.81 a7.3 7.3 0 1 0 14.6 0 a7.3 7.3 0 1 0 -14.6 0zM1962.02 575.31 a7.3 7.3 0 1 0 14.6 0 a7.3 7.3 0 1 0 -14.6 0zM1962.02 648.31 a7.3 7.3 0 1 0 14.6 0 a7.3 7.3 0 1 0 -14.6 0zM1898.8 684.81 a7.3 7.3 0 1 0 14.6 0 a7.3 7.3 0 1 0 -14.6 0zM1898.8 757.81 a7.3 7.3 0 1 0 14.6 0 a7.3 7.3 0 1 0 -14.6 0zM1962.02 794.31 a7.3 7.3 0 1 0 14.6 0 a7.3 7.3 0 1 0 -14.6 0zM1962.02 867.31 a7.3 7.3 0 1 0 14.6 0 a7.3 7.3 0 1 0 -14.6 0zM1898.8 903.81 a7.3 7.3 0 1 0 14.6 0 a7.3 7.3 0 1 0 -14.6 0zM1835.58 867.31 a7.3 7.3 0 1 0 14.6 0 a7.3 7.3 0 1 0 -14.6 0zM1835.58 794.31 a7.3 7.3 0 1 0 14.6 0 a7.3 7.3 0 1 0 -14.6 0zM1898.8 976.81 a7.3 7.3 0 1 0 14.6 0 a7.3 7.3 0 1 0 -14.6 0zM1835.58 1013.31 a7.3 7.3 0 1 0 14.6 0 a7.3 7.3 0 1 0 -14.6 0zM1898.8 1195.81 a7.3 7.3 0 1 0 14.6 0 a7.3 7.3 0 1 0 -14.6 0zM1962.02 1232.31 a7.3 7.3 0 1 0 14.6 0 a7.3 7.3 0 1 0 -14.6 0zM1962.02 1305.31 a7.3 7.3 0 1 0 14.6 0 a7.3 7.3 0 1 0 -14.6 0zM1898.8 1341.81 a7.3 7.3 0 1 0 14.6 0 a7.3 7.3 0 1 0 -14.6 0zM1835.58 1305.31 a7.3 7.3 0 1 0 14.6 0 a7.3 7.3 0 1 0 -14.6 0zM1835.58 1232.31 a7.3 7.3 0 1 0 14.6 0 a7.3 7.3 0 1 0 -14.6 0zM1962.02 -8.69 a7.3 7.3 0 1 0 14.6 0 a7.3 7.3 0 1 0 -14.6 0zM2025.24 27.81 a7.3 7.3 0 1 0 14.6 0 a7.3 7.3 0 1 0 -14.6 0zM2025.24 100.81 a7.3 7.3 0 1 0 14.6 0 a7.3 7.3 0 1 0 -14.6 0zM1962.02 137.31 a7.3 7.3 0 1 0 14.6 0 a7.3 7.3 0 1 0 -14.6 0zM1898.8 100.81 a7.3 7.3 0 1 0 14.6 0 a7.3 7.3 0 1 0 -14.6 0zM1898.8 27.81 a7.3 7.3 0 1 0 14.6 0 a7.3 7.3 0 1 0 -14.6 0zM1962.02 210.31 a7.3 7.3 0 1 0 14.6 0 a7.3 7.3 0 1 0 -14.6 0zM2025.24 246.81 a7.3 7.3 0 1 0 14.6 0 a7.3 7.3 0 1 0 -14.6 0zM2025.24 319.81 a7.3 7.3 0 1 0 14.6 0 a7.3 7.3 0 1 0 -14.6 0zM1898.8 246.81 a7.3 7.3 0 1 0 14.6 0 a7.3 7.3 0 1 0 -14.6 0zM2025.24 465.81 a7.3 7.3 0 1 0 14.6 0 a7.3 7.3 0 1 0 -14.6 0zM2025.24 538.81 a7.3 7.3 0 1 0 14.6 0 a7.3 7.3 0 1 0 -14.6 0zM2088.46 575.31 a7.3 7.3 0 1 0 14.6 0 a7.3 7.3 0 1 0 -14.6 0zM2088.46 648.31 a7.3 7.3 0 1 0 14.6 0 a7.3 7.3 0 1 0 -14.6 0zM2025.24 684.81 a7.3 7.3 0 1 0 14.6 0 a7.3 7.3 0 1 0 -14.6 0zM2025.24 757.81 a7.3 7.3 0 1 0 14.6 0 a7.3 7.3 0 1 0 -14.6 0zM2025.24 903.81 a7.3 7.3 0 1 0 14.6 0 a7.3 7.3 0 1 0 -14.6 0zM2025.24 976.81 a7.3 7.3 0 1 0 14.6 0 a7.3 7.3 0 1 0 -14.6 0zM1962.02 1013.31 a7.3 7.3 0 1 0 14.6 0 a7.3 7.3 0 1 0 -14.6 0zM2088.46 1013.31 a7.3 7.3 0 1 0 14.6 0 a7.3 7.3 0 1 0 -14.6 0zM2088.46 1086.31 a7.3 7.3 0 1 0 14.6 0 a7.3 7.3 0 1 0 -14.6 0zM2025.24 1122.81 a7.3 7.3 0 1 0 14.6 0 a7.3 7.3 0 1 0 -14.6 0zM1962.02 1086.31 a7.3 7.3 0 1 0 14.6 0 a7.3 7.3 0 1 0 -14.6 0zM2025.24 1195.81 a7.3 7.3 0 1 0 14.6 0 a7.3 7.3 0 1 0 -14.6 0zM2088.46 1232.31 a7.3 7.3 0 1 0 14.6 0 a7.3 7.3 0 1 0 -14.6 0zM2088.46 1305.31 a7.3 7.3 0 1 0 14.6 0 a7.3 7.3 0 1 0 -14.6 0zM2025.24 1341.81 a7.3 7.3 0 1 0 14.6 0 a7.3 7.3 0 1 0 -14.6 0zM2025.24 1414.81 a7.3 7.3 0 1 0 14.6 0 a7.3 7.3 0 1 0 -14.6 0zM1962.02 1451.31 a7.3 7.3 0 1 0 14.6 0 a7.3 7.3 0 1 0 -14.6 0zM1898.8 1414.81 a7.3 7.3 0 1 0 14.6 0 a7.3 7.3 0 1 0 -14.6 0z" fill="#03305d"></path><path d="M82.34 207.05L123.91 231.05L123.91 279.05L82.34 303.05L40.77 279.05L40.77 231.05zM40.77 279.05L82.34 303.05L82.34 351.05L40.77 375.05L-0.8 351.05L-0.8 303.05zM40.77 423.05L82.34 447.05L82.34 495.05L40.77 519.05L-0.8 495.05L-0.8 447.05zM82.34 495.05L123.91 519.05L123.91 567.05L82.34 591.05L40.77 567.05L40.77 519.05zM82.34 639.05L123.91 663.05L123.91 711.05L82.34 735.05L40.77 711.05L40.77 663.05zM82.34 783.05L123.91 807.05L123.91 855.05L82.34 879.05L40.77 855.05L40.77 807.05zM123.91 -8.95L165.48 15.05L165.48 63.05L123.91 87.05L82.34 63.05L82.34 15.05zM165.48 63.05L207.05 87.05L207.05 135.05L165.48 159.05L123.91 135.05L123.91 87.05zM123.91 135.05L165.48 159.05L165.48 207.05L123.91 231.05L82.34 207.05L82.34 159.05zM165.48 207.05L207.05 231.05L207.05 279.05L165.48 303.05L123.91 279.05L123.91 231.05zM165.48 351.05L207.05 375.05L207.05 423.05L165.48 447.05L123.91 423.05L123.91 375.05zM123.91 423.05L165.48 447.05L165.48 495.05L123.91 519.05L82.34 495.05L82.34 447.05zM165.48 639.05L207.05 663.05L207.05 711.05L165.48 735.05L123.91 711.05L123.91 663.05zM123.91 711.05L165.48 735.05L165.48 783.05L123.91 807.05L82.34 783.05L82.34 735.05zM123.91 855.05L165.48 879.05L165.48 927.05L123.91 951.05L82.34 927.05L82.34 879.05zM123.91 999.05L165.48 1023.05L165.48 1071.05L123.91 1095.05L82.34 1071.05L82.34 1023.05zM165.48 1071.05L207.05 1095.05L207.05 1143.05L165.48 1167.05L123.91 1143.05L123.91 1095.05zM123.91 1143.05L165.48 1167.05L165.48 1215.05L123.91 1239.05L82.34 1215.05L82.34 1167.05zM165.48 1215.05L207.05 1239.05L207.05 1287.05L165.48 1311.05L123.91 1287.05L123.91 1239.05zM165.48 1359.05L207.05 1383.05L207.05 1431.05L165.48 1455.05L123.91 1431.05L123.91 1383.05zM248.62 207.05L290.19 231.05L290.19 279.05L248.62 303.05L207.05 279.05L207.05 231.05zM207.05 423.05L248.62 447.05L248.62 495.05L207.05 519.05L165.48 495.05L165.48 447.05zM248.62 639.05L290.19 663.05L290.19 711.05L248.62 735.05L207.05 711.05L207.05 663.05zM207.05 711.05L248.62 735.05L248.62 783.05L207.05 807.05L165.48 783.05L165.48 735.05zM248.62 783.05L290.19 807.05L290.19 855.05L248.62 879.05L207.05 855.05L207.05 807.05zM207.05 855.05L248.62 879.05L248.62 927.05L207.05 951.05L165.48 927.05L165.48 879.05zM248.62 1071.05L290.19 1095.05L290.19 1143.05L248.62 1167.05L207.05 1143.05L207.05 1095.05zM207.05 1143.05L248.62 1167.05L248.62 1215.05L207.05 1239.05L165.48 1215.05L165.48 1167.05zM207.05 1287.05L248.62 1311.05L248.62 1359.05L207.05 1383.05L165.48 1359.05L165.48 1311.05zM207.05 1431.05L248.62 1455.05L248.62 1503.05L207.05 1527.05L165.48 1503.05L165.48 1455.05zM290.19 -8.95L331.76 15.05L331.76 63.05L290.19 87.05L248.62 63.05L248.62 15.05zM331.76 63.05L373.33 87.05L373.33 135.05L331.76 159.05L290.19 135.05L290.19 87.05zM331.76 351.05L373.33 375.05L373.33 423.05L331.76 447.05L290.19 423.05L290.19 375.05zM331.76 495.05L373.33 519.05L373.33 567.05L331.76 591.05L290.19 567.05L290.19 519.05zM290.19 567.05L331.76 591.05L331.76 639.05L290.19 663.05L248.62 639.05L248.62 591.05zM331.76 639.05L373.33 663.05L373.33 711.05L331.76 735.05L290.19 711.05L290.19 663.05zM331.76 927.05L373.33 951.05L373.33 999.05L331.76 1023.05L290.19 999.05L290.19 951.05zM290.19 999.05L331.76 1023.05L331.76 1071.05L290.19 1095.05L248.62 1071.05L248.62 1023.05zM331.76 1071.05L373.33 1095.05L373.33 1143.05L331.76 1167.05L290.19 1143.05L290.19 1095.05zM414.9 63.05L456.47 87.05L456.47 135.05L414.9 159.05L373.33 135.05L373.33 87.05zM414.9 351.05L456.47 375.05L456.47 423.05L414.9 447.05L373.33 423.05L373.33 375.05zM373.33 423.05L414.9 447.05L414.9 495.05L373.33 519.05L331.76 495.05L331.76 447.05zM373.33 567.05L414.9 591.05L414.9 639.05L373.33 663.05L331.76 639.05L331.76 591.05zM373.33 711.05L414.9 735.05L414.9 783.05L373.33 807.05L331.76 783.05L331.76 735.05zM414.9 783.05L456.47 807.05L456.47 855.05L414.9 879.05L373.33 855.05L373.33 807.05zM373.33 855.05L414.9 879.05L414.9 927.05L373.33 951.05L331.76 927.05L331.76 879.05zM414.9 927.05L456.47 951.05L456.47 999.05L414.9 1023.05L373.33 999.05L373.33 951.05zM373.33 1143.05L414.9 1167.05L414.9 1215.05L373.33 1239.05L331.76 1215.05L331.76 1167.05zM414.9 1215.05L456.47 1239.05L456.47 1287.05L414.9 1311.05L373.33 1287.05L373.33 1239.05zM373.33 1287.05L414.9 1311.05L414.9 1359.05L373.33 1383.05L331.76 1359.05L331.76 1311.05zM373.33 1431.05L414.9 1455.05L414.9 1503.05L373.33 1527.05L331.76 1503.05L331.76 1455.05zM498.04 63.05L539.61 87.05L539.61 135.05L498.04 159.05L456.47 135.05L456.47 87.05zM498.04 495.05L539.61 519.05L539.61 567.05L498.04 591.05L456.47 567.05L456.47 519.05zM456.47 567.05L498.04 591.05L498.04 639.05L456.47 663.05L414.9 639.05L414.9 591.05zM456.47 711.05L498.04 735.05L498.04 783.05L456.47 807.05L414.9 783.05L414.9 735.05zM456.47 855.05L498.04 879.05L498.04 927.05L456.47 951.05L414.9 927.05L414.9 879.05zM498.04 1071.05L539.61 1095.05L539.61 1143.05L498.04 1167.05L456.47 1143.05L456.47 1095.05zM498.04 1215.05L539.61 1239.05L539.61 1287.05L498.04 1311.05L456.47 1287.05L456.47 1239.05zM456.47 1431.05L498.04 1455.05L498.04 1503.05L456.47 1527.05L414.9 1503.05L414.9 1455.05zM539.61 -8.95L581.19 15.05L581.19 63.05L539.61 87.05L498.04 63.05L498.04 15.05zM539.61 279.05L581.19 303.05L581.19 351.05L539.61 375.05L498.04 351.05L498.04 303.05zM581.19 351.05L622.76 375.05L622.76 423.05L581.19 447.05L539.61 423.05L539.61 375.05zM539.61 423.05L581.19 447.05L581.19 495.05L539.61 519.05L498.04 495.05L498.04 447.05zM539.61 567.05L581.19 591.05L581.19 639.05L539.61 663.05L498.04 639.05L498.04 591.05zM581.19 783.05L622.76 807.05L622.76 855.05L581.19 879.05L539.61 855.05L539.61 807.05zM539.61 855.05L581.19 879.05L581.19 927.05L539.61 951.05L498.04 927.05L498.04 879.05zM539.61 999.05L581.19 1023.05L581.19 1071.05L539.61 1095.05L498.04 1071.05L498.04 1023.05zM581.19 1071.05L622.76 1095.05L622.76 1143.05L581.19 1167.05L539.61 1143.05L539.61 1095.05zM581.19 1359.05L622.76 1383.05L622.76 1431.05L581.19 1455.05L539.61 1431.05L539.61 1383.05zM539.61 1431.05L581.19 1455.05L581.19 1503.05L539.61 1527.05L498.04 1503.05L498.04 1455.05zM664.33 63.05L705.9 87.05L705.9 135.05L664.33 159.05L622.76 135.05L622.76 87.05zM622.76 135.05L664.33 159.05L664.33 207.05L622.76 231.05L581.19 207.05L581.19 159.05zM664.33 207.05L705.9 231.05L705.9 279.05L664.33 303.05L622.76 279.05L622.76 231.05zM622.76 423.05L664.33 447.05L664.33 495.05L622.76 519.05L581.19 495.05L581.19 447.05zM664.33 495.05L705.9 519.05L705.9 567.05L664.33 591.05L622.76 567.05L622.76 519.05zM622.76 567.05L664.33 591.05L664.33 639.05L622.76 663.05L581.19 639.05L581.19 591.05zM664.33 639.05L705.9 663.05L705.9 711.05L664.33 735.05L622.76 711.05L622.76 663.05zM622.76 711.05L664.33 735.05L664.33 783.05L622.76 807.05L581.19 783.05L581.19 735.05zM664.33 927.05L705.9 951.05L705.9 999.05L664.33 1023.05L622.76 999.05L622.76 951.05zM664.33 1215.05L705.9 1239.05L705.9 1287.05L664.33 1311.05L622.76 1287.05L622.76 1239.05zM622.76 1287.05L664.33 1311.05L664.33 1359.05L622.76 1383.05L581.19 1359.05L581.19 1311.05zM705.9 -8.95L747.47 15.05L747.47 63.05L705.9 87.05L664.33 63.05L664.33 15.05zM747.47 63.05L789.04 87.05L789.04 135.05L747.47 159.05L705.9 135.05L705.9 87.05zM747.47 495.05L789.04 519.05L789.04 567.05L747.47 591.05L705.9 567.05L705.9 519.05zM705.9 567.05L747.47 591.05L747.47 639.05L705.9 663.05L664.33 639.05L664.33 591.05zM747.47 783.05L789.04 807.05L789.04 855.05L747.47 879.05L705.9 855.05L705.9 807.05zM705.9 999.05L747.47 1023.05L747.47 1071.05L705.9 1095.05L664.33 1071.05L664.33 1023.05zM747.47 1071.05L789.04 1095.05L789.04 1143.05L747.47 1167.05L705.9 1143.05L705.9 1095.05zM747.47 1215.05L789.04 1239.05L789.04 1287.05L747.47 1311.05L705.9 1287.05L705.9 1239.05zM830.61 207.05L872.18 231.05L872.18 279.05L830.61 303.05L789.04 279.05L789.04 231.05zM789.04 279.05L830.61 303.05L830.61 351.05L789.04 375.05L747.47 351.05L747.47 303.05zM789.04 423.05L830.61 447.05L830.61 495.05L789.04 519.05L747.47 495.05L747.47 447.05zM830.61 495.05L872.18 519.05L872.18 567.05L830.61 591.05L789.04 567.05L789.04 519.05zM830.61 783.05L872.18 807.05L872.18 855.05L830.61 879.05L789.04 855.05L789.04 807.05zM830.61 927.05L872.18 951.05L872.18 999.05L830.61 1023.05L789.04 999.05L789.04 951.05zM830.61 1071.05L872.18 1095.05L872.18 1143.05L830.61 1167.05L789.04 1143.05L789.04 1095.05zM830.61 1215.05L872.18 1239.05L872.18 1287.05L830.61 1311.05L789.04 1287.05L789.04 1239.05zM789.04 1287.05L830.61 1311.05L830.61 1359.05L789.04 1383.05L747.47 1359.05L747.47 1311.05zM913.75 351.05L955.32 375.05L955.32 423.05L913.75 447.05L872.18 423.05L872.18 375.05zM872.18 423.05L913.75 447.05L913.75 495.05L872.18 519.05L830.61 495.05L830.61 447.05zM913.75 495.05L955.32 519.05L955.32 567.05L913.75 591.05L872.18 567.05L872.18 519.05zM913.75 639.05L955.32 663.05L955.32 711.05L913.75 735.05L872.18 711.05L872.18 663.05zM872.18 711.05L913.75 735.05L913.75 783.05L872.18 807.05L830.61 783.05L830.61 735.05zM872.18 855.05L913.75 879.05L913.75 927.05L872.18 951.05L830.61 927.05L830.61 879.05zM872.18 999.05L913.75 1023.05L913.75 1071.05L872.18 1095.05L830.61 1071.05L830.61 1023.05zM872.18 1143.05L913.75 1167.05L913.75 1215.05L872.18 1239.05L830.61 1215.05L830.61 1167.05zM872.18 1287.05L913.75 1311.05L913.75 1359.05L872.18 1383.05L830.61 1359.05L830.61 1311.05zM955.32 -8.95L996.89 15.05L996.89 63.05L955.32 87.05L913.75 63.05L913.75 15.05zM996.89 63.05L1038.46 87.05L1038.46 135.05L996.89 159.05L955.32 135.05L955.32 87.05zM955.32 135.05L996.89 159.05L996.89 207.05L955.32 231.05L913.75 207.05L913.75 159.05zM955.32 567.05L996.89 591.05L996.89 639.05L955.32 663.05L913.75 639.05L913.75 591.05zM996.89 639.05L1038.46 663.05L1038.46 711.05L996.89 735.05L955.32 711.05L955.32 663.05zM996.89 927.05L1038.46 951.05L1038.46 999.05L996.89 1023.05L955.32 999.05L955.32 951.05zM955.32 999.05L996.89 1023.05L996.89 1071.05L955.32 1095.05L913.75 1071.05L913.75 1023.05zM996.89 1071.05L1038.46 1095.05L1038.46 1143.05L996.89 1167.05L955.32 1143.05L955.32 1095.05zM955.32 1143.05L996.89 1167.05L996.89 1215.05L955.32 1239.05L913.75 1215.05L913.75 1167.05zM996.89 1215.05L1038.46 1239.05L1038.46 1287.05L996.89 1311.05L955.32 1287.05L955.32 1239.05zM996.89 1359.05L1038.46 1383.05L1038.46 1431.05L996.89 1455.05L955.32 1431.05L955.32 1383.05zM955.32 1431.05L996.89 1455.05L996.89 1503.05L955.32 1527.05L913.75 1503.05L913.75 1455.05zM1080.03 63.05L1121.6 87.05L1121.6 135.05L1080.03 159.05L1038.46 135.05L1038.46 87.05zM1038.46 135.05L1080.03 159.05L1080.03 207.05L1038.46 231.05L996.89 207.05L996.89 159.05zM1080.03 351.05L1121.6 375.05L1121.6 423.05L1080.03 447.05L1038.46 423.05L1038.46 375.05zM1038.46 423.05L1080.03 447.05L1080.03 495.05L1038.46 519.05L996.89 495.05L996.89 447.05zM1080.03 783.05L1121.6 807.05L1121.6 855.05L1080.03 879.05L1038.46 855.05L1038.46 807.05zM1038.46 855.05L1080.03 879.05L1080.03 927.05L1038.46 951.05L996.89 927.05L996.89 879.05zM1080.03 1215.05L1121.6 1239.05L1121.6 1287.05L1080.03 1311.05L1038.46 1287.05L1038.46 1239.05zM1080.03 1359.05L1121.6 1383.05L1121.6 1431.05L1080.03 1455.05L1038.46 1431.05L1038.46 1383.05zM1038.46 1431.05L1080.03 1455.05L1080.03 1503.05L1038.46 1527.05L996.89 1503.05L996.89 1455.05zM1121.6 -8.95L1163.17 15.05L1163.17 63.05L1121.6 87.05L1080.03 63.05L1080.03 15.05zM1121.6 135.05L1163.17 159.05L1163.17 207.05L1121.6 231.05L1080.03 207.05L1080.03 159.05zM1163.17 495.05L1204.74 519.05L1204.74 567.05L1163.17 591.05L1121.6 567.05L1121.6 519.05zM1121.6 567.05L1163.17 591.05L1163.17 639.05L1121.6 663.05L1080.03 639.05L1080.03 591.05zM1163.17 639.05L1204.74 663.05L1204.74 711.05L1163.17 735.05L1121.6 711.05L1121.6 663.05zM1163.17 927.05L1204.74 951.05L1204.74 999.05L1163.17 1023.05L1121.6 999.05L1121.6 951.05zM1163.17 1071.05L1204.74 1095.05L1204.74 1143.05L1163.17 1167.05L1121.6 1143.05L1121.6 1095.05zM1121.6 1287.05L1163.17 1311.05L1163.17 1359.05L1121.6 1383.05L1080.03 1359.05L1080.03 1311.05zM1163.17 1359.05L1204.74 1383.05L1204.74 1431.05L1163.17 1455.05L1121.6 1431.05L1121.6 1383.05zM1121.6 1431.05L1163.17 1455.05L1163.17 1503.05L1121.6 1527.05L1080.03 1503.05L1080.03 1455.05zM1246.31 63.05L1287.88 87.05L1287.88 135.05L1246.31 159.05L1204.74 135.05L1204.74 87.05zM1204.74 135.05L1246.31 159.05L1246.31 207.05L1204.74 231.05L1163.17 207.05L1163.17 159.05zM1246.31 207.05L1287.88 231.05L1287.88 279.05L1246.31 303.05L1204.74 279.05L1204.74 231.05zM1204.74 279.05L1246.31 303.05L1246.31 351.05L1204.74 375.05L1163.17 351.05L1163.17 303.05zM1246.31 351.05L1287.88 375.05L1287.88 423.05L1246.31 447.05L1204.74 423.05L1204.74 375.05zM1246.31 495.05L1287.88 519.05L1287.88 567.05L1246.31 591.05L1204.74 567.05L1204.74 519.05zM1204.74 567.05L1246.31 591.05L1246.31 639.05L1204.74 663.05L1163.17 639.05L1163.17 591.05zM1246.31 783.05L1287.88 807.05L1287.88 855.05L1246.31 879.05L1204.74 855.05L1204.74 807.05zM1204.74 855.05L1246.31 879.05L1246.31 927.05L1204.74 951.05L1163.17 927.05L1163.17 879.05zM1246.31 1071.05L1287.88 1095.05L1287.88 1143.05L1246.31 1167.05L1204.74 1143.05L1204.74 1095.05zM1204.74 1143.05L1246.31 1167.05L1246.31 1215.05L1204.74 1239.05L1163.17 1215.05L1163.17 1167.05zM1246.31 1359.05L1287.88 1383.05L1287.88 1431.05L1246.31 1455.05L1204.74 1431.05L1204.74 1383.05zM1287.88 -8.95L1329.45 15.05L1329.45 63.05L1287.88 87.05L1246.31 63.05L1246.31 15.05zM1329.45 63.05L1371.02 87.05L1371.02 135.05L1329.45 159.05L1287.88 135.05L1287.88 87.05zM1329.45 351.05L1371.02 375.05L1371.02 423.05L1329.45 447.05L1287.88 423.05L1287.88 375.05zM1329.45 495.05L1371.02 519.05L1371.02 567.05L1329.45 591.05L1287.88 567.05L1287.88 519.05zM1287.88 567.05L1329.45 591.05L1329.45 639.05L1287.88 663.05L1246.31 639.05L1246.31 591.05zM1329.45 639.05L1371.02 663.05L1371.02 711.05L1329.45 735.05L1287.88 711.05L1287.88 663.05zM1329.45 783.05L1371.02 807.05L1371.02 855.05L1329.45 879.05L1287.88 855.05L1287.88 807.05zM1287.88 855.05L1329.45 879.05L1329.45 927.05L1287.88 951.05L1246.31 927.05L1246.31 879.05zM1329.45 1071.05L1371.02 1095.05L1371.02 1143.05L1329.45 1167.05L1287.88 1143.05L1287.88 1095.05zM1287.88 1431.05L1329.45 1455.05L1329.45 1503.05L1287.88 1527.05L1246.31 1503.05L1246.31 1455.05zM1371.02 -8.95L1412.59 15.05L1412.59 63.05L1371.02 87.05L1329.45 63.05L1329.45 15.05zM1412.59 63.05L1454.16 87.05L1454.16 135.05L1412.59 159.05L1371.02 135.05L1371.02 87.05zM1371.02 135.05L1412.59 159.05L1412.59 207.05L1371.02 231.05L1329.45 207.05L1329.45 159.05zM1412.59 351.05L1454.16 375.05L1454.16 423.05L1412.59 447.05L1371.02 423.05L1371.02 375.05zM1412.59 495.05L1454.16 519.05L1454.16 567.05L1412.59 591.05L1371.02 567.05L1371.02 519.05zM1371.02 567.05L1412.59 591.05L1412.59 639.05L1371.02 663.05L1329.45 639.05L1329.45 591.05zM1371.02 711.05L1412.59 735.05L1412.59 783.05L1371.02 807.05L1329.45 783.05L1329.45 735.05zM1412.59 783.05L1454.16 807.05L1454.16 855.05L1412.59 879.05L1371.02 855.05L1371.02 807.05zM1371.02 855.05L1412.59 879.05L1412.59 927.05L1371.02 951.05L1329.45 927.05L1329.45 879.05zM1412.59 927.05L1454.16 951.05L1454.16 999.05L1412.59 1023.05L1371.02 999.05L1371.02 951.05zM1371.02 999.05L1412.59 1023.05L1412.59 1071.05L1371.02 1095.05L1329.45 1071.05L1329.45 1023.05zM1371.02 1143.05L1412.59 1167.05L1412.59 1215.05L1371.02 1239.05L1329.45 1215.05L1329.45 1167.05zM1371.02 1287.05L1412.59 1311.05L1412.59 1359.05L1371.02 1383.05L1329.45 1359.05L1329.45 1311.05zM1412.59 1359.05L1454.16 1383.05L1454.16 1431.05L1412.59 1455.05L1371.02 1431.05L1371.02 1383.05zM1454.16 -8.95L1495.73 15.05L1495.73 63.05L1454.16 87.05L1412.59 63.05L1412.59 15.05zM1495.73 207.05L1537.3 231.05L1537.3 279.05L1495.73 303.05L1454.16 279.05L1454.16 231.05zM1454.16 423.05L1495.73 447.05L1495.73 495.05L1454.16 519.05L1412.59 495.05L1412.59 447.05zM1454.16 567.05L1495.73 591.05L1495.73 639.05L1454.16 663.05L1412.59 639.05L1412.59 591.05zM1495.73 639.05L1537.3 663.05L1537.3 711.05L1495.73 735.05L1454.16 711.05L1454.16 663.05zM1454.16 711.05L1495.73 735.05L1495.73 783.05L1454.16 807.05L1412.59 783.05L1412.59 735.05zM1454.16 999.05L1495.73 1023.05L1495.73 1071.05L1454.16 1095.05L1412.59 1071.05L1412.59 1023.05zM1537.3 -8.95L1578.87 15.05L1578.87 63.05L1537.3 87.05L1495.73 63.05L1495.73 15.05zM1537.3 135.05L1578.87 159.05L1578.87 207.05L1537.3 231.05L1495.73 207.05L1495.73 159.05zM1578.87 207.05L1620.45 231.05L1620.45 279.05L1578.87 303.05L1537.3 279.05L1537.3 231.05zM1537.3 279.05L1578.87 303.05L1578.87 351.05L1537.3 375.05L1495.73 351.05L1495.73 303.05zM1578.87 351.05L1620.45 375.05L1620.45 423.05L1578.87 447.05L1537.3 423.05L1537.3 375.05zM1537.3 711.05L1578.87 735.05L1578.87 783.05L1537.3 807.05L1495.73 783.05L1495.73 735.05zM1537.3 999.05L1578.87 1023.05L1578.87 1071.05L1537.3 1095.05L1495.73 1071.05L1495.73 1023.05zM1537.3 1143.05L1578.87 1167.05L1578.87 1215.05L1537.3 1239.05L1495.73 1215.05L1495.73 1167.05zM1578.87 1359.05L1620.45 1383.05L1620.45 1431.05L1578.87 1455.05L1537.3 1431.05L1537.3 1383.05zM1537.3 1431.05L1578.87 1455.05L1578.87 1503.05L1537.3 1527.05L1495.73 1503.05L1495.73 1455.05zM1662.02 63.05L1703.59 87.05L1703.59 135.05L1662.02 159.05L1620.45 135.05L1620.45 87.05zM1662.02 495.05L1703.59 519.05L1703.59 567.05L1662.02 591.05L1620.45 567.05L1620.45 519.05zM1620.45 567.05L1662.02 591.05L1662.02 639.05L1620.45 663.05L1578.87 639.05L1578.87 591.05zM1662.02 783.05L1703.59 807.05L1703.59 855.05L1662.02 879.05L1620.45 855.05L1620.45 807.05zM1620.45 855.05L1662.02 879.05L1662.02 927.05L1620.45 951.05L1578.87 927.05L1578.87 879.05zM1620.45 1287.05L1662.02 1311.05L1662.02 1359.05L1620.45 1383.05L1578.87 1359.05L1578.87 1311.05zM1745.16 207.05L1786.73 231.05L1786.73 279.05L1745.16 303.05L1703.59 279.05L1703.59 231.05zM1745.16 351.05L1786.73 375.05L1786.73 423.05L1745.16 447.05L1703.59 423.05L1703.59 375.05zM1703.59 423.05L1745.16 447.05L1745.16 495.05L1703.59 519.05L1662.02 495.05L1662.02 447.05zM1703.59 567.05L1745.16 591.05L1745.16 639.05L1703.59 663.05L1662.02 639.05L1662.02 591.05zM1703.59 711.05L1745.16 735.05L1745.16 783.05L1703.59 807.05L1662.02 783.05L1662.02 735.05zM1703.59 999.05L1745.16 1023.05L1745.16 1071.05L1703.59 1095.05L1662.02 1071.05L1662.02 1023.05zM1745.16 1215.05L1786.73 1239.05L1786.73 1287.05L1745.16 1311.05L1703.59 1287.05L1703.59 1239.05zM1703.59 1287.05L1745.16 1311.05L1745.16 1359.05L1703.59 1383.05L1662.02 1359.05L1662.02 1311.05zM1745.16 1359.05L1786.73 1383.05L1786.73 1431.05L1745.16 1455.05L1703.59 1431.05L1703.59 1383.05zM1786.73 -8.95L1828.3 15.05L1828.3 63.05L1786.73 87.05L1745.16 63.05L1745.16 15.05zM1828.3 63.05L1869.87 87.05L1869.87 135.05L1828.3 159.05L1786.73 135.05L1786.73 87.05zM1786.73 135.05L1828.3 159.05L1828.3 207.05L1786.73 231.05L1745.16 207.05L1745.16 159.05zM1828.3 207.05L1869.87 231.05L1869.87 279.05L1828.3 303.05L1786.73 279.05L1786.73 231.05zM1828.3 351.05L1869.87 375.05L1869.87 423.05L1828.3 447.05L1786.73 423.05L1786.73 375.05zM1786.73 423.05L1828.3 447.05L1828.3 495.05L1786.73 519.05L1745.16 495.05L1745.16 447.05zM1786.73 567.05L1828.3 591.05L1828.3 639.05L1786.73 663.05L1745.16 639.05L1745.16 591.05zM1786.73 711.05L1828.3 735.05L1828.3 783.05L1786.73 807.05L1745.16 783.05L1745.16 735.05zM1786.73 1143.05L1828.3 1167.05L1828.3 1215.05L1786.73 1239.05L1745.16 1215.05L1745.16 1167.05zM1911.44 63.05L1953.01 87.05L1953.01 135.05L1911.44 159.05L1869.87 135.05L1869.87 87.05zM1869.87 135.05L1911.44 159.05L1911.44 207.05L1869.87 231.05L1828.3 207.05L1828.3 159.05zM1869.87 423.05L1911.44 447.05L1911.44 495.05L1869.87 519.05L1828.3 495.05L1828.3 447.05zM1869.87 567.05L1911.44 591.05L1911.44 639.05L1869.87 663.05L1828.3 639.05L1828.3 591.05zM1869.87 711.05L1911.44 735.05L1911.44 783.05L1869.87 807.05L1828.3 783.05L1828.3 735.05zM1911.44 927.05L1953.01 951.05L1953.01 999.05L1911.44 1023.05L1869.87 999.05L1869.87 951.05zM1869.87 1143.05L1911.44 1167.05L1911.44 1215.05L1869.87 1239.05L1828.3 1215.05L1828.3 1167.05zM1869.87 1287.05L1911.44 1311.05L1911.44 1359.05L1869.87 1383.05L1828.3 1359.05L1828.3 1311.05zM1911.44 1359.05L1953.01 1383.05L1953.01 1431.05L1911.44 1455.05L1869.87 1431.05L1869.87 1383.05zM1869.87 1431.05L1911.44 1455.05L1911.44 1503.05L1869.87 1527.05L1828.3 1503.05L1828.3 1455.05zM1953.01 135.05L1994.58 159.05L1994.58 207.05L1953.01 231.05L1911.44 207.05L1911.44 159.05zM1953.01 279.05L1994.58 303.05L1994.58 351.05L1953.01 375.05L1911.44 351.05L1911.44 303.05zM1994.58 351.05L2036.15 375.05L2036.15 423.05L1994.58 447.05L1953.01 423.05L1953.01 375.05zM1953.01 423.05L1994.58 447.05L1994.58 495.05L1953.01 519.05L1911.44 495.05L1911.44 447.05zM1953.01 999.05L1994.58 1023.05L1994.58 1071.05L1953.01 1095.05L1911.44 1071.05L1911.44 1023.05zM1953.01 1287.05L1994.58 1311.05L1994.58 1359.05L1953.01 1383.05L1911.44 1359.05L1911.44 1311.05zM2077.72 207.05L2119.29 231.05L2119.29 279.05L2077.72 303.05L2036.15 279.05L2036.15 231.05zM2077.72 351.05L2119.29 375.05L2119.29 423.05L2077.72 447.05L2036.15 423.05L2036.15 375.05zM2036.15 423.05L2077.72 447.05L2077.72 495.05L2036.15 519.05L1994.58 495.05L1994.58 447.05zM2036.15 855.05L2077.72 879.05L2077.72 927.05L2036.15 951.05L1994.58 927.05L1994.58 879.05zM2036.15 999.05L2077.72 1023.05L2077.72 1071.05L2036.15 1095.05L1994.58 1071.05L1994.58 1023.05zM2077.72 1359.05L2119.29 1383.05L2119.29 1431.05L2077.72 1455.05L2036.15 1431.05L2036.15 1383.05zM2036.15 1431.05L2077.72 1455.05L2077.72 1503.05L2036.15 1527.05L1994.58 1503.05L1994.58 1455.05z" stroke="rgba(6, 80, 156, 0.93)" stroke-width="2"></path></g><defs><mask id="SvgjsMask1031"><rect width="2000" height="1440" fill="#ffffff"></rect></mask></defs></svg>