<svg xmlns="http://www.w3.org/2000/svg" version="1.1" xmlns:xlink="http://www.w3.org/1999/xlink" xmlns:svgjs="http://svgjs.com/svgjs" width="500" height="500" preserveAspectRatio="none" viewBox="0 0 500 500"><g mask="url(&quot;#SvgjsMask1114&quot;)" fill="none"><rect width="500" height="500" x="0" y="0" fill="#0e2a47"></rect><path d="M16.95 -9.42L34.27 0.58L34.27 20.58L16.95 30.58L-0.37 20.58L-0.37 0.58zM16.95 50.58L34.27 60.58L34.27 80.58L16.95 90.58L-0.37 80.58L-0.37 60.58zM34.27 80.58L51.59 90.58L51.59 110.58L34.27 120.58L16.95 110.58L16.95 90.58zM34.27 140.58L51.59 150.58L51.59 170.58L34.27 180.58L16.95 170.58L16.95 150.58zM16.95 170.58L34.27 180.58L34.27 200.58L16.95 210.58L-0.37 200.58L-0.37 180.58zM34.27 320.58L51.59 330.58L51.59 350.58L34.27 360.58L16.95 350.58L16.95 330.58zM16.95 350.58L34.27 360.58L34.27 380.58L16.95 390.58L-0.37 380.58L-0.37 360.58zM34.27 440.58L51.59 450.58L51.59 470.58L34.27 480.58L16.95 470.58L16.95 450.58zM16.95 470.58L34.27 480.58L34.27 500.58L16.95 510.58L-0.37 500.58L-0.37 480.58zM34.27 500.58L51.59 510.58L51.59 530.58L34.27 540.58L16.95 530.58L16.95 510.58zM68.91 20.58L86.23 30.58L86.23 50.58L68.91 60.58L51.59 50.58L51.59 30.58zM51.59 50.58L68.91 60.58L68.91 80.58L51.59 90.58L34.27 80.58L34.27 60.58zM68.91 140.58L86.23 150.58L86.23 170.58L68.91 180.58L51.59 170.58L51.59 150.58zM51.59 230.58L68.91 240.58L68.91 260.58L51.59 270.58L34.27 260.58L34.27 240.58zM68.91 320.58L86.23 330.58L86.23 350.58L68.91 360.58L51.59 350.58L51.59 330.58zM51.59 350.58L68.91 360.58L68.91 380.58L51.59 390.58L34.27 380.58L34.27 360.58zM51.59 410.58L68.91 420.58L68.91 440.58L51.59 450.58L34.27 440.58L34.27 420.58zM86.23 -9.42L103.55 0.58L103.55 20.58L86.23 30.58L68.91 20.58L68.91 0.58zM103.55 20.58L120.88 30.58L120.88 50.58L103.55 60.58L86.23 50.58L86.23 30.58zM86.23 50.58L103.55 60.58L103.55 80.58L86.23 90.58L68.91 80.58L68.91 60.58zM86.23 170.58L103.55 180.58L103.55 200.58L86.23 210.58L68.91 200.58L68.91 180.58zM86.23 350.58L103.55 360.58L103.55 380.58L86.23 390.58L68.91 380.58L68.91 360.58zM86.23 470.58L103.55 480.58L103.55 500.58L86.23 510.58L68.91 500.58L68.91 480.58zM103.55 500.58L120.88 510.58L120.88 530.58L103.55 540.58L86.23 530.58L86.23 510.58zM120.88 -9.42L138.2 0.58L138.2 20.58L120.88 30.58L103.55 20.58L103.55 0.58zM138.2 20.58L155.52 30.58L155.52 50.58L138.2 60.58L120.88 50.58L120.88 30.58zM120.88 50.58L138.2 60.58L138.2 80.58L120.88 90.58L103.55 80.58L103.55 60.58zM120.88 170.58L138.2 180.58L138.2 200.58L120.88 210.58L103.55 200.58L103.55 180.58zM120.88 230.58L138.2 240.58L138.2 260.58L120.88 270.58L103.55 260.58L103.55 240.58zM120.88 290.58L138.2 300.58L138.2 320.58L120.88 330.58L103.55 320.58L103.55 300.58zM138.2 320.58L155.52 330.58L155.52 350.58L138.2 360.58L120.88 350.58L120.88 330.58zM138.2 440.58L155.52 450.58L155.52 470.58L138.2 480.58L120.88 470.58L120.88 450.58zM120.88 470.58L138.2 480.58L138.2 500.58L120.88 510.58L103.55 500.58L103.55 480.58zM138.2 500.58L155.52 510.58L155.52 530.58L138.2 540.58L120.88 530.58L120.88 510.58zM155.52 350.58L172.84 360.58L172.84 380.58L155.52 390.58L138.2 380.58L138.2 360.58zM190.16 110.58L207.48 120.58L207.48 140.58L190.16 150.58L172.84 140.58L172.84 120.58zM190.16 170.58L207.48 180.58L207.48 200.58L190.16 210.58L172.84 200.58L172.84 180.58zM190.16 230.58L207.48 240.58L207.48 260.58L190.16 270.58L172.84 260.58L172.84 240.58zM190.16 410.58L207.48 420.58L207.48 440.58L190.16 450.58L172.84 440.58L172.84 420.58zM224.8 230.58L242.12 240.58L242.12 260.58L224.8 270.58L207.48 260.58L207.48 240.58zM242.12 260.58L259.44 270.58L259.44 290.58L242.12 300.58L224.8 290.58L224.8 270.58zM242.12 380.58L259.44 390.58L259.44 410.58L242.12 420.58L224.8 410.58L224.8 390.58zM242.12 440.58L259.44 450.58L259.44 470.58L242.12 480.58L224.8 470.58L224.8 450.58zM224.8 470.58L242.12 480.58L242.12 500.58L224.8 510.58L207.48 500.58L207.48 480.58zM242.12 500.58L259.44 510.58L259.44 530.58L242.12 540.58L224.8 530.58L224.8 510.58zM259.44 -9.42L276.76 0.58L276.76 20.58L259.44 30.58L242.12 20.58L242.12 0.58zM259.44 50.58L276.76 60.58L276.76 80.58L259.44 90.58L242.12 80.58L242.12 60.58zM276.76 140.58L294.09 150.58L294.09 170.58L276.76 180.58L259.44 170.58L259.44 150.58zM276.76 200.58L294.09 210.58L294.09 230.58L276.76 240.58L259.44 230.58L259.44 210.58zM259.44 410.58L276.76 420.58L276.76 440.58L259.44 450.58L242.12 440.58L242.12 420.58zM276.76 440.58L294.09 450.58L294.09 470.58L276.76 480.58L259.44 470.58L259.44 450.58zM294.09 50.58L311.41 60.58L311.41 80.58L294.09 90.58L276.76 80.58L276.76 60.58zM311.41 80.58L328.73 90.58L328.73 110.58L311.41 120.58L294.09 110.58L294.09 90.58zM311.41 140.58L328.73 150.58L328.73 170.58L311.41 180.58L294.09 170.58L294.09 150.58zM294.09 290.58L311.41 300.58L311.41 320.58L294.09 330.58L276.76 320.58L276.76 300.58zM311.41 380.58L328.73 390.58L328.73 410.58L311.41 420.58L294.09 410.58L294.09 390.58zM294.09 410.58L311.41 420.58L311.41 440.58L294.09 450.58L276.76 440.58L276.76 420.58zM346.05 20.58L363.37 30.58L363.37 50.58L346.05 60.58L328.73 50.58L328.73 30.58zM328.73 110.58L346.05 120.58L346.05 140.58L328.73 150.58L311.41 140.58L311.41 120.58zM346.05 200.58L363.37 210.58L363.37 230.58L346.05 240.58L328.73 230.58L328.73 210.58zM346.05 260.58L363.37 270.58L363.37 290.58L346.05 300.58L328.73 290.58L328.73 270.58zM328.73 290.58L346.05 300.58L346.05 320.58L328.73 330.58L311.41 320.58L311.41 300.58zM328.73 350.58L346.05 360.58L346.05 380.58L328.73 390.58L311.41 380.58L311.41 360.58zM328.73 410.58L346.05 420.58L346.05 440.58L328.73 450.58L311.41 440.58L311.41 420.58zM346.05 500.58L363.37 510.58L363.37 530.58L346.05 540.58L328.73 530.58L328.73 510.58zM363.37 50.58L380.69 60.58L380.69 80.58L363.37 90.58L346.05 80.58L346.05 60.58zM380.69 80.58L398.01 90.58L398.01 110.58L380.69 120.58L363.37 110.58L363.37 90.58zM380.69 140.58L398.01 150.58L398.01 170.58L380.69 180.58L363.37 170.58L363.37 150.58zM363.37 230.58L380.69 240.58L380.69 260.58L363.37 270.58L346.05 260.58L346.05 240.58zM380.69 320.58L398.01 330.58L398.01 350.58L380.69 360.58L363.37 350.58L363.37 330.58zM398.01 -9.42L415.33 0.58L415.33 20.58L398.01 30.58L380.69 20.58L380.69 0.58zM398.01 50.58L415.33 60.58L415.33 80.58L398.01 90.58L380.69 80.58L380.69 60.58zM415.33 140.58L432.65 150.58L432.65 170.58L415.33 180.58L398.01 170.58L398.01 150.58zM415.33 260.58L432.65 270.58L432.65 290.58L415.33 300.58L398.01 290.58L398.01 270.58zM415.33 320.58L432.65 330.58L432.65 350.58L415.33 360.58L398.01 350.58L398.01 330.58zM398.01 350.58L415.33 360.58L415.33 380.58L398.01 390.58L380.69 380.58L380.69 360.58zM415.33 380.58L432.65 390.58L432.65 410.58L415.33 420.58L398.01 410.58L398.01 390.58zM398.01 410.58L415.33 420.58L415.33 440.58L398.01 450.58L380.69 440.58L380.69 420.58zM398.01 470.58L415.33 480.58L415.33 500.58L398.01 510.58L380.69 500.58L380.69 480.58zM449.97 20.58L467.3 30.58L467.3 50.58L449.97 60.58L432.65 50.58L432.65 30.58zM432.65 50.58L449.97 60.58L449.97 80.58L432.65 90.58L415.33 80.58L415.33 60.58zM449.97 200.58L467.3 210.58L467.3 230.58L449.97 240.58L432.65 230.58L432.65 210.58zM449.97 440.58L467.3 450.58L467.3 470.58L449.97 480.58L432.65 470.58L432.65 450.58zM484.62 140.58L501.94 150.58L501.94 170.58L484.62 180.58L467.3 170.58L467.3 150.58zM484.62 200.58L501.94 210.58L501.94 230.58L484.62 240.58L467.3 230.58L467.3 210.58zM467.3 230.58L484.62 240.58L484.62 260.58L467.3 270.58L449.97 260.58L449.97 240.58zM467.3 290.58L484.62 300.58L484.62 320.58L467.3 330.58L449.97 320.58L449.97 300.58zM484.62 380.58L501.94 390.58L501.94 410.58L484.62 420.58L467.3 410.58L467.3 390.58zM484.62 440.58L501.94 450.58L501.94 470.58L484.62 480.58L467.3 470.58L467.3 450.58zM501.94 -9.42L519.26 0.58L519.26 20.58L501.94 30.58L484.62 20.58L484.62 0.58zM519.26 20.58L536.58 30.58L536.58 50.58L519.26 60.58L501.94 50.58L501.94 30.58zM501.94 50.58L519.26 60.58L519.26 80.58L501.94 90.58L484.62 80.58L484.62 60.58zM501.94 170.58L519.26 180.58L519.26 200.58L501.94 210.58L484.62 200.58L484.62 180.58zM519.26 200.58L536.58 210.58L536.58 230.58L519.26 240.58L501.94 230.58L501.94 210.58zM501.94 230.58L519.26 240.58L519.26 260.58L501.94 270.58L484.62 260.58L484.62 240.58zM519.26 260.58L536.58 270.58L536.58 290.58L519.26 300.58L501.94 290.58L501.94 270.58zM519.26 320.58L536.58 330.58L536.58 350.58L519.26 360.58L501.94 350.58L501.94 330.58zM519.26 500.58L536.58 510.58L536.58 530.58L519.26 540.58L501.94 530.58L501.94 510.58z" stroke="rgba(255, 0, 213, 1)" stroke-width="2"></path><path d="M13.95 -9.42 a3 3 0 1 0 6 0 a3 3 0 1 0 -6 0zM31.27 0.58 a3 3 0 1 0 6 0 a3 3 0 1 0 -6 0zM31.27 20.58 a3 3 0 1 0 6 0 a3 3 0 1 0 -6 0zM13.95 30.58 a3 3 0 1 0 6 0 a3 3 0 1 0 -6 0zM-3.37 20.58 a3 3 0 1 0 6 0 a3 3 0 1 0 -6 0zM-3.37 0.58 a3 3 0 1 0 6 0 a3 3 0 1 0 -6 0zM13.95 50.58 a3 3 0 1 0 6 0 a3 3 0 1 0 -6 0zM31.27 60.58 a3 3 0 1 0 6 0 a3 3 0 1 0 -6 0zM31.27 80.58 a3 3 0 1 0 6 0 a3 3 0 1 0 -6 0zM13.95 90.58 a3 3 0 1 0 6 0 a3 3 0 1 0 -6 0zM-3.37 80.58 a3 3 0 1 0 6 0 a3 3 0 1 0 -6 0zM-3.37 60.58 a3 3 0 1 0 6 0 a3 3 0 1 0 -6 0zM48.59 90.58 a3 3 0 1 0 6 0 a3 3 0 1 0 -6 0zM48.59 110.58 a3 3 0 1 0 6 0 a3 3 0 1 0 -6 0zM31.27 120.58 a3 3 0 1 0 6 0 a3 3 0 1 0 -6 0zM13.95 110.58 a3 3 0 1 0 6 0 a3 3 0 1 0 -6 0zM31.27 140.58 a3 3 0 1 0 6 0 a3 3 0 1 0 -6 0zM48.59 150.58 a3 3 0 1 0 6 0 a3 3 0 1 0 -6 0zM48.59 170.58 a3 3 0 1 0 6 0 a3 3 0 1 0 -6 0zM31.27 180.58 a3 3 0 1 0 6 0 a3 3 0 1 0 -6 0zM13.95 170.58 a3 3 0 1 0 6 0 a3 3 0 1 0 -6 0zM13.95 150.58 a3 3 0 1 0 6 0 a3 3 0 1 0 -6 0zM31.27 200.58 a3 3 0 1 0 6 0 a3 3 0 1 0 -6 0zM13.95 210.58 a3 3 0 1 0 6 0 a3 3 0 1 0 -6 0zM-3.37 200.58 a3 3 0 1 0 6 0 a3 3 0 1 0 -6 0zM-3.37 180.58 a3 3 0 1 0 6 0 a3 3 0 1 0 -6 0zM31.27 320.58 a3 3 0 1 0 6 0 a3 3 0 1 0 -6 0zM48.59 330.58 a3 3 0 1 0 6 0 a3 3 0 1 0 -6 0zM48.59 350.58 a3 3 0 1 0 6 0 a3 3 0 1 0 -6 0zM31.27 360.58 a3 3 0 1 0 6 0 a3 3 0 1 0 -6 0zM13.95 350.58 a3 3 0 1 0 6 0 a3 3 0 1 0 -6 0zM13.95 330.58 a3 3 0 1 0 6 0 a3 3 0 1 0 -6 0zM31.27 380.58 a3 3 0 1 0 6 0 a3 3 0 1 0 -6 0zM13.95 390.58 a3 3 0 1 0 6 0 a3 3 0 1 0 -6 0zM-3.37 380.58 a3 3 0 1 0 6 0 a3 3 0 1 0 -6 0zM-3.37 360.58 a3 3 0 1 0 6 0 a3 3 0 1 0 -6 0zM31.27 440.58 a3 3 0 1 0 6 0 a3 3 0 1 0 -6 0zM48.59 450.58 a3 3 0 1 0 6 0 a3 3 0 1 0 -6 0zM48.59 470.58 a3 3 0 1 0 6 0 a3 3 0 1 0 -6 0zM31.27 480.58 a3 3 0 1 0 6 0 a3 3 0 1 0 -6 0zM13.95 470.58 a3 3 0 1 0 6 0 a3 3 0 1 0 -6 0zM13.95 450.58 a3 3 0 1 0 6 0 a3 3 0 1 0 -6 0zM31.27 500.58 a3 3 0 1 0 6 0 a3 3 0 1 0 -6 0zM13.95 510.58 a3 3 0 1 0 6 0 a3 3 0 1 0 -6 0zM-3.37 500.58 a3 3 0 1 0 6 0 a3 3 0 1 0 -6 0zM-3.37 480.58 a3 3 0 1 0 6 0 a3 3 0 1 0 -6 0zM48.59 510.58 a3 3 0 1 0 6 0 a3 3 0 1 0 -6 0zM48.59 530.58 a3 3 0 1 0 6 0 a3 3 0 1 0 -6 0zM31.27 540.58 a3 3 0 1 0 6 0 a3 3 0 1 0 -6 0zM13.95 530.58 a3 3 0 1 0 6 0 a3 3 0 1 0 -6 0zM65.91 20.58 a3 3 0 1 0 6 0 a3 3 0 1 0 -6 0zM83.23 30.58 a3 3 0 1 0 6 0 a3 3 0 1 0 -6 0zM83.23 50.58 a3 3 0 1 0 6 0 a3 3 0 1 0 -6 0zM65.91 60.58 a3 3 0 1 0 6 0 a3 3 0 1 0 -6 0zM48.59 50.58 a3 3 0 1 0 6 0 a3 3 0 1 0 -6 0zM48.59 30.58 a3 3 0 1 0 6 0 a3 3 0 1 0 -6 0zM65.91 80.58 a3 3 0 1 0 6 0 a3 3 0 1 0 -6 0zM65.91 140.58 a3 3 0 1 0 6 0 a3 3 0 1 0 -6 0zM83.23 150.58 a3 3 0 1 0 6 0 a3 3 0 1 0 -6 0zM83.23 170.58 a3 3 0 1 0 6 0 a3 3 0 1 0 -6 0zM65.91 180.58 a3 3 0 1 0 6 0 a3 3 0 1 0 -6 0zM48.59 230.58 a3 3 0 1 0 6 0 a3 3 0 1 0 -6 0zM65.91 240.58 a3 3 0 1 0 6 0 a3 3 0 1 0 -6 0zM65.91 260.58 a3 3 0 1 0 6 0 a3 3 0 1 0 -6 0zM48.59 270.58 a3 3 0 1 0 6 0 a3 3 0 1 0 -6 0zM31.27 260.58 a3 3 0 1 0 6 0 a3 3 0 1 0 -6 0zM31.27 240.58 a3 3 0 1 0 6 0 a3 3 0 1 0 -6 0zM65.91 320.58 a3 3 0 1 0 6 0 a3 3 0 1 0 -6 0zM83.23 330.58 a3 3 0 1 0 6 0 a3 3 0 1 0 -6 0zM83.23 350.58 a3 3 0 1 0 6 0 a3 3 0 1 0 -6 0zM65.91 360.58 a3 3 0 1 0 6 0 a3 3 0 1 0 -6 0zM65.91 380.58 a3 3 0 1 0 6 0 a3 3 0 1 0 -6 0zM48.59 390.58 a3 3 0 1 0 6 0 a3 3 0 1 0 -6 0zM48.59 410.58 a3 3 0 1 0 6 0 a3 3 0 1 0 -6 0zM65.91 420.58 a3 3 0 1 0 6 0 a3 3 0 1 0 -6 0zM65.91 440.58 a3 3 0 1 0 6 0 a3 3 0 1 0 -6 0zM31.27 420.58 a3 3 0 1 0 6 0 a3 3 0 1 0 -6 0zM83.23 -9.42 a3 3 0 1 0 6 0 a3 3 0 1 0 -6 0zM100.55 0.58 a3 3 0 1 0 6 0 a3 3 0 1 0 -6 0zM100.55 20.58 a3 3 0 1 0 6 0 a3 3 0 1 0 -6 0zM65.91 0.58 a3 3 0 1 0 6 0 a3 3 0 1 0 -6 0zM117.88 30.58 a3 3 0 1 0 6 0 a3 3 0 1 0 -6 0zM117.88 50.58 a3 3 0 1 0 6 0 a3 3 0 1 0 -6 0zM100.55 60.58 a3 3 0 1 0 6 0 a3 3 0 1 0 -6 0zM100.55 80.58 a3 3 0 1 0 6 0 a3 3 0 1 0 -6 0zM83.23 90.58 a3 3 0 1 0 6 0 a3 3 0 1 0 -6 0zM100.55 180.58 a3 3 0 1 0 6 0 a3 3 0 1 0 -6 0zM100.55 200.58 a3 3 0 1 0 6 0 a3 3 0 1 0 -6 0zM83.23 210.58 a3 3 0 1 0 6 0 a3 3 0 1 0 -6 0zM65.91 200.58 a3 3 0 1 0 6 0 a3 3 0 1 0 -6 0zM100.55 360.58 a3 3 0 1 0 6 0 a3 3 0 1 0 -6 0zM100.55 380.58 a3 3 0 1 0 6 0 a3 3 0 1 0 -6 0zM83.23 390.58 a3 3 0 1 0 6 0 a3 3 0 1 0 -6 0zM83.23 470.58 a3 3 0 1 0 6 0 a3 3 0 1 0 -6 0zM100.55 480.58 a3 3 0 1 0 6 0 a3 3 0 1 0 -6 0zM100.55 500.58 a3 3 0 1 0 6 0 a3 3 0 1 0 -6 0zM83.23 510.58 a3 3 0 1 0 6 0 a3 3 0 1 0 -6 0zM65.91 500.58 a3 3 0 1 0 6 0 a3 3 0 1 0 -6 0zM65.91 480.58 a3 3 0 1 0 6 0 a3 3 0 1 0 -6 0zM117.88 510.58 a3 3 0 1 0 6 0 a3 3 0 1 0 -6 0zM117.88 530.58 a3 3 0 1 0 6 0 a3 3 0 1 0 -6 0zM100.55 540.58 a3 3 0 1 0 6 0 a3 3 0 1 0 -6 0zM83.23 530.58 a3 3 0 1 0 6 0 a3 3 0 1 0 -6 0zM117.88 -9.42 a3 3 0 1 0 6 0 a3 3 0 1 0 -6 0zM135.2 0.58 a3 3 0 1 0 6 0 a3 3 0 1 0 -6 0zM135.2 20.58 a3 3 0 1 0 6 0 a3 3 0 1 0 -6 0zM152.52 30.58 a3 3 0 1 0 6 0 a3 3 0 1 0 -6 0zM152.52 50.58 a3 3 0 1 0 6 0 a3 3 0 1 0 -6 0zM135.2 60.58 a3 3 0 1 0 6 0 a3 3 0 1 0 -6 0zM135.2 80.58 a3 3 0 1 0 6 0 a3 3 0 1 0 -6 0zM117.88 90.58 a3 3 0 1 0 6 0 a3 3 0 1 0 -6 0zM117.88 170.58 a3 3 0 1 0 6 0 a3 3 0 1 0 -6 0zM135.2 180.58 a3 3 0 1 0 6 0 a3 3 0 1 0 -6 0zM135.2 200.58 a3 3 0 1 0 6 0 a3 3 0 1 0 -6 0zM117.88 210.58 a3 3 0 1 0 6 0 a3 3 0 1 0 -6 0zM117.88 230.58 a3 3 0 1 0 6 0 a3 3 0 1 0 -6 0zM135.2 240.58 a3 3 0 1 0 6 0 a3 3 0 1 0 -6 0zM135.2 260.58 a3 3 0 1 0 6 0 a3 3 0 1 0 -6 0zM117.88 270.58 a3 3 0 1 0 6 0 a3 3 0 1 0 -6 0zM100.55 260.58 a3 3 0 1 0 6 0 a3 3 0 1 0 -6 0zM100.55 240.58 a3 3 0 1 0 6 0 a3 3 0 1 0 -6 0zM117.88 290.58 a3 3 0 1 0 6 0 a3 3 0 1 0 -6 0zM135.2 300.58 a3 3 0 1 0 6 0 a3 3 0 1 0 -6 0zM135.2 320.58 a3 3 0 1 0 6 0 a3 3 0 1 0 -6 0zM117.88 330.58 a3 3 0 1 0 6 0 a3 3 0 1 0 -6 0zM100.55 320.58 a3 3 0 1 0 6 0 a3 3 0 1 0 -6 0zM100.55 300.58 a3 3 0 1 0 6 0 a3 3 0 1 0 -6 0zM152.52 330.58 a3 3 0 1 0 6 0 a3 3 0 1 0 -6 0zM152.52 350.58 a3 3 0 1 0 6 0 a3 3 0 1 0 -6 0zM135.2 360.58 a3 3 0 1 0 6 0 a3 3 0 1 0 -6 0zM117.88 350.58 a3 3 0 1 0 6 0 a3 3 0 1 0 -6 0zM135.2 440.58 a3 3 0 1 0 6 0 a3 3 0 1 0 -6 0zM152.52 450.58 a3 3 0 1 0 6 0 a3 3 0 1 0 -6 0zM152.52 470.58 a3 3 0 1 0 6 0 a3 3 0 1 0 -6 0zM135.2 480.58 a3 3 0 1 0 6 0 a3 3 0 1 0 -6 0zM117.88 470.58 a3 3 0 1 0 6 0 a3 3 0 1 0 -6 0zM117.88 450.58 a3 3 0 1 0 6 0 a3 3 0 1 0 -6 0zM135.2 500.58 a3 3 0 1 0 6 0 a3 3 0 1 0 -6 0zM152.52 510.58 a3 3 0 1 0 6 0 a3 3 0 1 0 -6 0zM152.52 530.58 a3 3 0 1 0 6 0 a3 3 0 1 0 -6 0zM135.2 540.58 a3 3 0 1 0 6 0 a3 3 0 1 0 -6 0zM169.84 360.58 a3 3 0 1 0 6 0 a3 3 0 1 0 -6 0zM169.84 380.58 a3 3 0 1 0 6 0 a3 3 0 1 0 -6 0zM152.52 390.58 a3 3 0 1 0 6 0 a3 3 0 1 0 -6 0zM135.2 380.58 a3 3 0 1 0 6 0 a3 3 0 1 0 -6 0zM187.16 110.58 a3 3 0 1 0 6 0 a3 3 0 1 0 -6 0zM204.48 120.58 a3 3 0 1 0 6 0 a3 3 0 1 0 -6 0zM204.48 140.58 a3 3 0 1 0 6 0 a3 3 0 1 0 -6 0zM187.16 150.58 a3 3 0 1 0 6 0 a3 3 0 1 0 -6 0zM169.84 140.58 a3 3 0 1 0 6 0 a3 3 0 1 0 -6 0zM169.84 120.58 a3 3 0 1 0 6 0 a3 3 0 1 0 -6 0zM187.16 170.58 a3 3 0 1 0 6 0 a3 3 0 1 0 -6 0zM204.48 180.58 a3 3 0 1 0 6 0 a3 3 0 1 0 -6 0zM204.48 200.58 a3 3 0 1 0 6 0 a3 3 0 1 0 -6 0zM187.16 210.58 a3 3 0 1 0 6 0 a3 3 0 1 0 -6 0zM169.84 200.58 a3 3 0 1 0 6 0 a3 3 0 1 0 -6 0zM169.84 180.58 a3 3 0 1 0 6 0 a3 3 0 1 0 -6 0zM187.16 230.58 a3 3 0 1 0 6 0 a3 3 0 1 0 -6 0zM204.48 240.58 a3 3 0 1 0 6 0 a3 3 0 1 0 -6 0zM204.48 260.58 a3 3 0 1 0 6 0 a3 3 0 1 0 -6 0zM187.16 270.58 a3 3 0 1 0 6 0 a3 3 0 1 0 -6 0zM169.84 260.58 a3 3 0 1 0 6 0 a3 3 0 1 0 -6 0zM169.84 240.58 a3 3 0 1 0 6 0 a3 3 0 1 0 -6 0zM187.16 410.58 a3 3 0 1 0 6 0 a3 3 0 1 0 -6 0zM204.48 420.58 a3 3 0 1 0 6 0 a3 3 0 1 0 -6 0zM204.48 440.58 a3 3 0 1 0 6 0 a3 3 0 1 0 -6 0zM187.16 450.58 a3 3 0 1 0 6 0 a3 3 0 1 0 -6 0zM169.84 440.58 a3 3 0 1 0 6 0 a3 3 0 1 0 -6 0zM169.84 420.58 a3 3 0 1 0 6 0 a3 3 0 1 0 -6 0zM221.8 230.58 a3 3 0 1 0 6 0 a3 3 0 1 0 -6 0zM239.12 240.58 a3 3 0 1 0 6 0 a3 3 0 1 0 -6 0zM239.12 260.58 a3 3 0 1 0 6 0 a3 3 0 1 0 -6 0zM221.8 270.58 a3 3 0 1 0 6 0 a3 3 0 1 0 -6 0zM256.44 270.58 a3 3 0 1 0 6 0 a3 3 0 1 0 -6 0zM256.44 290.58 a3 3 0 1 0 6 0 a3 3 0 1 0 -6 0zM239.12 300.58 a3 3 0 1 0 6 0 a3 3 0 1 0 -6 0zM221.8 290.58 a3 3 0 1 0 6 0 a3 3 0 1 0 -6 0zM239.12 380.58 a3 3 0 1 0 6 0 a3 3 0 1 0 -6 0zM256.44 390.58 a3 3 0 1 0 6 0 a3 3 0 1 0 -6 0zM256.44 410.58 a3 3 0 1 0 6 0 a3 3 0 1 0 -6 0zM239.12 420.58 a3 3 0 1 0 6 0 a3 3 0 1 0 -6 0zM221.8 410.58 a3 3 0 1 0 6 0 a3 3 0 1 0 -6 0zM221.8 390.58 a3 3 0 1 0 6 0 a3 3 0 1 0 -6 0zM239.12 440.58 a3 3 0 1 0 6 0 a3 3 0 1 0 -6 0zM256.44 450.58 a3 3 0 1 0 6 0 a3 3 0 1 0 -6 0zM256.44 470.58 a3 3 0 1 0 6 0 a3 3 0 1 0 -6 0zM239.12 480.58 a3 3 0 1 0 6 0 a3 3 0 1 0 -6 0zM221.8 470.58 a3 3 0 1 0 6 0 a3 3 0 1 0 -6 0zM221.8 450.58 a3 3 0 1 0 6 0 a3 3 0 1 0 -6 0zM239.12 500.58 a3 3 0 1 0 6 0 a3 3 0 1 0 -6 0zM221.8 510.58 a3 3 0 1 0 6 0 a3 3 0 1 0 -6 0zM204.48 500.58 a3 3 0 1 0 6 0 a3 3 0 1 0 -6 0zM204.48 480.58 a3 3 0 1 0 6 0 a3 3 0 1 0 -6 0zM256.44 510.58 a3 3 0 1 0 6 0 a3 3 0 1 0 -6 0zM256.44 530.58 a3 3 0 1 0 6 0 a3 3 0 1 0 -6 0zM239.12 540.58 a3 3 0 1 0 6 0 a3 3 0 1 0 -6 0zM221.8 530.58 a3 3 0 1 0 6 0 a3 3 0 1 0 -6 0zM256.44 -9.42 a3 3 0 1 0 6 0 a3 3 0 1 0 -6 0zM273.76 0.58 a3 3 0 1 0 6 0 a3 3 0 1 0 -6 0zM273.76 20.58 a3 3 0 1 0 6 0 a3 3 0 1 0 -6 0zM256.44 30.58 a3 3 0 1 0 6 0 a3 3 0 1 0 -6 0zM239.12 20.58 a3 3 0 1 0 6 0 a3 3 0 1 0 -6 0zM239.12 0.58 a3 3 0 1 0 6 0 a3 3 0 1 0 -6 0zM256.44 50.58 a3 3 0 1 0 6 0 a3 3 0 1 0 -6 0zM273.76 60.58 a3 3 0 1 0 6 0 a3 3 0 1 0 -6 0zM273.76 80.58 a3 3 0 1 0 6 0 a3 3 0 1 0 -6 0zM256.44 90.58 a3 3 0 1 0 6 0 a3 3 0 1 0 -6 0zM239.12 80.58 a3 3 0 1 0 6 0 a3 3 0 1 0 -6 0zM239.12 60.58 a3 3 0 1 0 6 0 a3 3 0 1 0 -6 0zM273.76 140.58 a3 3 0 1 0 6 0 a3 3 0 1 0 -6 0zM291.09 150.58 a3 3 0 1 0 6 0 a3 3 0 1 0 -6 0zM291.09 170.58 a3 3 0 1 0 6 0 a3 3 0 1 0 -6 0zM273.76 180.58 a3 3 0 1 0 6 0 a3 3 0 1 0 -6 0zM256.44 170.58 a3 3 0 1 0 6 0 a3 3 0 1 0 -6 0zM256.44 150.58 a3 3 0 1 0 6 0 a3 3 0 1 0 -6 0zM273.76 200.58 a3 3 0 1 0 6 0 a3 3 0 1 0 -6 0zM291.09 210.58 a3 3 0 1 0 6 0 a3 3 0 1 0 -6 0zM291.09 230.58 a3 3 0 1 0 6 0 a3 3 0 1 0 -6 0zM273.76 240.58 a3 3 0 1 0 6 0 a3 3 0 1 0 -6 0zM256.44 230.58 a3 3 0 1 0 6 0 a3 3 0 1 0 -6 0zM256.44 210.58 a3 3 0 1 0 6 0 a3 3 0 1 0 -6 0zM273.76 420.58 a3 3 0 1 0 6 0 a3 3 0 1 0 -6 0zM273.76 440.58 a3 3 0 1 0 6 0 a3 3 0 1 0 -6 0zM291.09 450.58 a3 3 0 1 0 6 0 a3 3 0 1 0 -6 0zM291.09 470.58 a3 3 0 1 0 6 0 a3 3 0 1 0 -6 0zM273.76 480.58 a3 3 0 1 0 6 0 a3 3 0 1 0 -6 0zM291.09 50.58 a3 3 0 1 0 6 0 a3 3 0 1 0 -6 0zM308.41 60.58 a3 3 0 1 0 6 0 a3 3 0 1 0 -6 0zM308.41 80.58 a3 3 0 1 0 6 0 a3 3 0 1 0 -6 0zM291.09 90.58 a3 3 0 1 0 6 0 a3 3 0 1 0 -6 0zM325.73 90.58 a3 3 0 1 0 6 0 a3 3 0 1 0 -6 0zM325.73 110.58 a3 3 0 1 0 6 0 a3 3 0 1 0 -6 0zM308.41 120.58 a3 3 0 1 0 6 0 a3 3 0 1 0 -6 0zM291.09 110.58 a3 3 0 1 0 6 0 a3 3 0 1 0 -6 0zM308.41 140.58 a3 3 0 1 0 6 0 a3 3 0 1 0 -6 0zM325.73 150.58 a3 3 0 1 0 6 0 a3 3 0 1 0 -6 0zM325.73 170.58 a3 3 0 1 0 6 0 a3 3 0 1 0 -6 0zM308.41 180.58 a3 3 0 1 0 6 0 a3 3 0 1 0 -6 0zM291.09 290.58 a3 3 0 1 0 6 0 a3 3 0 1 0 -6 0zM308.41 300.58 a3 3 0 1 0 6 0 a3 3 0 1 0 -6 0zM308.41 320.58 a3 3 0 1 0 6 0 a3 3 0 1 0 -6 0zM291.09 330.58 a3 3 0 1 0 6 0 a3 3 0 1 0 -6 0zM273.76 320.58 a3 3 0 1 0 6 0 a3 3 0 1 0 -6 0zM273.76 300.58 a3 3 0 1 0 6 0 a3 3 0 1 0 -6 0zM308.41 380.58 a3 3 0 1 0 6 0 a3 3 0 1 0 -6 0zM325.73 390.58 a3 3 0 1 0 6 0 a3 3 0 1 0 -6 0zM325.73 410.58 a3 3 0 1 0 6 0 a3 3 0 1 0 -6 0zM308.41 420.58 a3 3 0 1 0 6 0 a3 3 0 1 0 -6 0zM291.09 410.58 a3 3 0 1 0 6 0 a3 3 0 1 0 -6 0zM291.09 390.58 a3 3 0 1 0 6 0 a3 3 0 1 0 -6 0zM308.41 440.58 a3 3 0 1 0 6 0 a3 3 0 1 0 -6 0zM343.05 20.58 a3 3 0 1 0 6 0 a3 3 0 1 0 -6 0zM360.37 30.58 a3 3 0 1 0 6 0 a3 3 0 1 0 -6 0zM360.37 50.58 a3 3 0 1 0 6 0 a3 3 0 1 0 -6 0zM343.05 60.58 a3 3 0 1 0 6 0 a3 3 0 1 0 -6 0zM325.73 50.58 a3 3 0 1 0 6 0 a3 3 0 1 0 -6 0zM325.73 30.58 a3 3 0 1 0 6 0 a3 3 0 1 0 -6 0zM343.05 120.58 a3 3 0 1 0 6 0 a3 3 0 1 0 -6 0zM343.05 140.58 a3 3 0 1 0 6 0 a3 3 0 1 0 -6 0zM343.05 200.58 a3 3 0 1 0 6 0 a3 3 0 1 0 -6 0zM360.37 210.58 a3 3 0 1 0 6 0 a3 3 0 1 0 -6 0zM360.37 230.58 a3 3 0 1 0 6 0 a3 3 0 1 0 -6 0zM343.05 240.58 a3 3 0 1 0 6 0 a3 3 0 1 0 -6 0zM325.73 230.58 a3 3 0 1 0 6 0 a3 3 0 1 0 -6 0zM325.73 210.58 a3 3 0 1 0 6 0 a3 3 0 1 0 -6 0zM343.05 260.58 a3 3 0 1 0 6 0 a3 3 0 1 0 -6 0zM360.37 270.58 a3 3 0 1 0 6 0 a3 3 0 1 0 -6 0zM360.37 290.58 a3 3 0 1 0 6 0 a3 3 0 1 0 -6 0zM343.05 300.58 a3 3 0 1 0 6 0 a3 3 0 1 0 -6 0zM325.73 290.58 a3 3 0 1 0 6 0 a3 3 0 1 0 -6 0zM325.73 270.58 a3 3 0 1 0 6 0 a3 3 0 1 0 -6 0zM343.05 320.58 a3 3 0 1 0 6 0 a3 3 0 1 0 -6 0zM325.73 330.58 a3 3 0 1 0 6 0 a3 3 0 1 0 -6 0zM325.73 350.58 a3 3 0 1 0 6 0 a3 3 0 1 0 -6 0zM343.05 360.58 a3 3 0 1 0 6 0 a3 3 0 1 0 -6 0zM343.05 380.58 a3 3 0 1 0 6 0 a3 3 0 1 0 -6 0zM308.41 360.58 a3 3 0 1 0 6 0 a3 3 0 1 0 -6 0zM343.05 420.58 a3 3 0 1 0 6 0 a3 3 0 1 0 -6 0zM343.05 440.58 a3 3 0 1 0 6 0 a3 3 0 1 0 -6 0zM325.73 450.58 a3 3 0 1 0 6 0 a3 3 0 1 0 -6 0zM343.05 500.58 a3 3 0 1 0 6 0 a3 3 0 1 0 -6 0zM360.37 510.58 a3 3 0 1 0 6 0 a3 3 0 1 0 -6 0zM360.37 530.58 a3 3 0 1 0 6 0 a3 3 0 1 0 -6 0zM343.05 540.58 a3 3 0 1 0 6 0 a3 3 0 1 0 -6 0zM325.73 530.58 a3 3 0 1 0 6 0 a3 3 0 1 0 -6 0zM325.73 510.58 a3 3 0 1 0 6 0 a3 3 0 1 0 -6 0zM377.69 60.58 a3 3 0 1 0 6 0 a3 3 0 1 0 -6 0zM377.69 80.58 a3 3 0 1 0 6 0 a3 3 0 1 0 -6 0zM360.37 90.58 a3 3 0 1 0 6 0 a3 3 0 1 0 -6 0zM343.05 80.58 a3 3 0 1 0 6 0 a3 3 0 1 0 -6 0zM395.01 90.58 a3 3 0 1 0 6 0 a3 3 0 1 0 -6 0zM395.01 110.58 a3 3 0 1 0 6 0 a3 3 0 1 0 -6 0zM377.69 120.58 a3 3 0 1 0 6 0 a3 3 0 1 0 -6 0zM360.37 110.58 a3 3 0 1 0 6 0 a3 3 0 1 0 -6 0zM377.69 140.58 a3 3 0 1 0 6 0 a3 3 0 1 0 -6 0zM395.01 150.58 a3 3 0 1 0 6 0 a3 3 0 1 0 -6 0zM395.01 170.58 a3 3 0 1 0 6 0 a3 3 0 1 0 -6 0zM377.69 180.58 a3 3 0 1 0 6 0 a3 3 0 1 0 -6 0zM360.37 170.58 a3 3 0 1 0 6 0 a3 3 0 1 0 -6 0zM360.37 150.58 a3 3 0 1 0 6 0 a3 3 0 1 0 -6 0zM377.69 240.58 a3 3 0 1 0 6 0 a3 3 0 1 0 -6 0zM377.69 260.58 a3 3 0 1 0 6 0 a3 3 0 1 0 -6 0zM377.69 320.58 a3 3 0 1 0 6 0 a3 3 0 1 0 -6 0zM395.01 330.58 a3 3 0 1 0 6 0 a3 3 0 1 0 -6 0zM395.01 350.58 a3 3 0 1 0 6 0 a3 3 0 1 0 -6 0zM377.69 360.58 a3 3 0 1 0 6 0 a3 3 0 1 0 -6 0zM360.37 350.58 a3 3 0 1 0 6 0 a3 3 0 1 0 -6 0zM360.37 330.58 a3 3 0 1 0 6 0 a3 3 0 1 0 -6 0zM395.01 -9.42 a3 3 0 1 0 6 0 a3 3 0 1 0 -6 0zM412.33 0.58 a3 3 0 1 0 6 0 a3 3 0 1 0 -6 0zM412.33 20.58 a3 3 0 1 0 6 0 a3 3 0 1 0 -6 0zM395.01 30.58 a3 3 0 1 0 6 0 a3 3 0 1 0 -6 0zM377.69 20.58 a3 3 0 1 0 6 0 a3 3 0 1 0 -6 0zM377.69 0.58 a3 3 0 1 0 6 0 a3 3 0 1 0 -6 0zM395.01 50.58 a3 3 0 1 0 6 0 a3 3 0 1 0 -6 0zM412.33 60.58 a3 3 0 1 0 6 0 a3 3 0 1 0 -6 0zM412.33 80.58 a3 3 0 1 0 6 0 a3 3 0 1 0 -6 0zM412.33 140.58 a3 3 0 1 0 6 0 a3 3 0 1 0 -6 0zM429.65 150.58 a3 3 0 1 0 6 0 a3 3 0 1 0 -6 0zM429.65 170.58 a3 3 0 1 0 6 0 a3 3 0 1 0 -6 0zM412.33 180.58 a3 3 0 1 0 6 0 a3 3 0 1 0 -6 0zM412.33 260.58 a3 3 0 1 0 6 0 a3 3 0 1 0 -6 0zM429.65 270.58 a3 3 0 1 0 6 0 a3 3 0 1 0 -6 0zM429.65 290.58 a3 3 0 1 0 6 0 a3 3 0 1 0 -6 0zM412.33 300.58 a3 3 0 1 0 6 0 a3 3 0 1 0 -6 0zM395.01 290.58 a3 3 0 1 0 6 0 a3 3 0 1 0 -6 0zM395.01 270.58 a3 3 0 1 0 6 0 a3 3 0 1 0 -6 0zM412.33 320.58 a3 3 0 1 0 6 0 a3 3 0 1 0 -6 0zM429.65 330.58 a3 3 0 1 0 6 0 a3 3 0 1 0 -6 0zM429.65 350.58 a3 3 0 1 0 6 0 a3 3 0 1 0 -6 0zM412.33 360.58 a3 3 0 1 0 6 0 a3 3 0 1 0 -6 0zM412.33 380.58 a3 3 0 1 0 6 0 a3 3 0 1 0 -6 0zM395.01 390.58 a3 3 0 1 0 6 0 a3 3 0 1 0 -6 0zM377.69 380.58 a3 3 0 1 0 6 0 a3 3 0 1 0 -6 0zM429.65 390.58 a3 3 0 1 0 6 0 a3 3 0 1 0 -6 0zM429.65 410.58 a3 3 0 1 0 6 0 a3 3 0 1 0 -6 0zM412.33 420.58 a3 3 0 1 0 6 0 a3 3 0 1 0 -6 0zM395.01 410.58 a3 3 0 1 0 6 0 a3 3 0 1 0 -6 0zM412.33 440.58 a3 3 0 1 0 6 0 a3 3 0 1 0 -6 0zM395.01 450.58 a3 3 0 1 0 6 0 a3 3 0 1 0 -6 0zM377.69 440.58 a3 3 0 1 0 6 0 a3 3 0 1 0 -6 0zM377.69 420.58 a3 3 0 1 0 6 0 a3 3 0 1 0 -6 0zM395.01 470.58 a3 3 0 1 0 6 0 a3 3 0 1 0 -6 0zM412.33 480.58 a3 3 0 1 0 6 0 a3 3 0 1 0 -6 0zM412.33 500.58 a3 3 0 1 0 6 0 a3 3 0 1 0 -6 0zM395.01 510.58 a3 3 0 1 0 6 0 a3 3 0 1 0 -6 0zM377.69 500.58 a3 3 0 1 0 6 0 a3 3 0 1 0 -6 0zM377.69 480.58 a3 3 0 1 0 6 0 a3 3 0 1 0 -6 0zM446.97 20.58 a3 3 0 1 0 6 0 a3 3 0 1 0 -6 0zM464.3 30.58 a3 3 0 1 0 6 0 a3 3 0 1 0 -6 0zM464.3 50.58 a3 3 0 1 0 6 0 a3 3 0 1 0 -6 0zM446.97 60.58 a3 3 0 1 0 6 0 a3 3 0 1 0 -6 0zM429.65 50.58 a3 3 0 1 0 6 0 a3 3 0 1 0 -6 0zM429.65 30.58 a3 3 0 1 0 6 0 a3 3 0 1 0 -6 0zM446.97 80.58 a3 3 0 1 0 6 0 a3 3 0 1 0 -6 0zM429.65 90.58 a3 3 0 1 0 6 0 a3 3 0 1 0 -6 0zM446.97 200.58 a3 3 0 1 0 6 0 a3 3 0 1 0 -6 0zM464.3 210.58 a3 3 0 1 0 6 0 a3 3 0 1 0 -6 0zM464.3 230.58 a3 3 0 1 0 6 0 a3 3 0 1 0 -6 0zM446.97 240.58 a3 3 0 1 0 6 0 a3 3 0 1 0 -6 0zM429.65 230.58 a3 3 0 1 0 6 0 a3 3 0 1 0 -6 0zM429.65 210.58 a3 3 0 1 0 6 0 a3 3 0 1 0 -6 0zM446.97 440.58 a3 3 0 1 0 6 0 a3 3 0 1 0 -6 0zM464.3 450.58 a3 3 0 1 0 6 0 a3 3 0 1 0 -6 0zM464.3 470.58 a3 3 0 1 0 6 0 a3 3 0 1 0 -6 0zM446.97 480.58 a3 3 0 1 0 6 0 a3 3 0 1 0 -6 0zM429.65 470.58 a3 3 0 1 0 6 0 a3 3 0 1 0 -6 0zM429.65 450.58 a3 3 0 1 0 6 0 a3 3 0 1 0 -6 0zM481.62 140.58 a3 3 0 1 0 6 0 a3 3 0 1 0 -6 0zM498.94 150.58 a3 3 0 1 0 6 0 a3 3 0 1 0 -6 0zM498.94 170.58 a3 3 0 1 0 6 0 a3 3 0 1 0 -6 0zM481.62 180.58 a3 3 0 1 0 6 0 a3 3 0 1 0 -6 0zM464.3 170.58 a3 3 0 1 0 6 0 a3 3 0 1 0 -6 0zM464.3 150.58 a3 3 0 1 0 6 0 a3 3 0 1 0 -6 0zM481.62 200.58 a3 3 0 1 0 6 0 a3 3 0 1 0 -6 0zM498.94 210.58 a3 3 0 1 0 6 0 a3 3 0 1 0 -6 0zM498.94 230.58 a3 3 0 1 0 6 0 a3 3 0 1 0 -6 0zM481.62 240.58 a3 3 0 1 0 6 0 a3 3 0 1 0 -6 0zM481.62 260.58 a3 3 0 1 0 6 0 a3 3 0 1 0 -6 0zM464.3 270.58 a3 3 0 1 0 6 0 a3 3 0 1 0 -6 0zM446.97 260.58 a3 3 0 1 0 6 0 a3 3 0 1 0 -6 0zM464.3 290.58 a3 3 0 1 0 6 0 a3 3 0 1 0 -6 0zM481.62 300.58 a3 3 0 1 0 6 0 a3 3 0 1 0 -6 0zM481.62 320.58 a3 3 0 1 0 6 0 a3 3 0 1 0 -6 0zM464.3 330.58 a3 3 0 1 0 6 0 a3 3 0 1 0 -6 0zM446.97 320.58 a3 3 0 1 0 6 0 a3 3 0 1 0 -6 0zM446.97 300.58 a3 3 0 1 0 6 0 a3 3 0 1 0 -6 0zM481.62 380.58 a3 3 0 1 0 6 0 a3 3 0 1 0 -6 0zM498.94 390.58 a3 3 0 1 0 6 0 a3 3 0 1 0 -6 0zM498.94 410.58 a3 3 0 1 0 6 0 a3 3 0 1 0 -6 0zM481.62 420.58 a3 3 0 1 0 6 0 a3 3 0 1 0 -6 0zM464.3 410.58 a3 3 0 1 0 6 0 a3 3 0 1 0 -6 0zM464.3 390.58 a3 3 0 1 0 6 0 a3 3 0 1 0 -6 0zM481.62 440.58 a3 3 0 1 0 6 0 a3 3 0 1 0 -6 0zM498.94 450.58 a3 3 0 1 0 6 0 a3 3 0 1 0 -6 0zM498.94 470.58 a3 3 0 1 0 6 0 a3 3 0 1 0 -6 0zM481.62 480.58 a3 3 0 1 0 6 0 a3 3 0 1 0 -6 0zM498.94 -9.42 a3 3 0 1 0 6 0 a3 3 0 1 0 -6 0zM516.26 0.58 a3 3 0 1 0 6 0 a3 3 0 1 0 -6 0zM516.26 20.58 a3 3 0 1 0 6 0 a3 3 0 1 0 -6 0zM498.94 30.58 a3 3 0 1 0 6 0 a3 3 0 1 0 -6 0zM481.62 20.58 a3 3 0 1 0 6 0 a3 3 0 1 0 -6 0zM481.62 0.58 a3 3 0 1 0 6 0 a3 3 0 1 0 -6 0zM533.58 30.58 a3 3 0 1 0 6 0 a3 3 0 1 0 -6 0zM533.58 50.58 a3 3 0 1 0 6 0 a3 3 0 1 0 -6 0zM516.26 60.58 a3 3 0 1 0 6 0 a3 3 0 1 0 -6 0zM498.94 50.58 a3 3 0 1 0 6 0 a3 3 0 1 0 -6 0zM516.26 80.58 a3 3 0 1 0 6 0 a3 3 0 1 0 -6 0zM498.94 90.58 a3 3 0 1 0 6 0 a3 3 0 1 0 -6 0zM481.62 80.58 a3 3 0 1 0 6 0 a3 3 0 1 0 -6 0zM481.62 60.58 a3 3 0 1 0 6 0 a3 3 0 1 0 -6 0zM516.26 180.58 a3 3 0 1 0 6 0 a3 3 0 1 0 -6 0zM516.26 200.58 a3 3 0 1 0 6 0 a3 3 0 1 0 -6 0zM533.58 210.58 a3 3 0 1 0 6 0 a3 3 0 1 0 -6 0zM533.58 230.58 a3 3 0 1 0 6 0 a3 3 0 1 0 -6 0zM516.26 240.58 a3 3 0 1 0 6 0 a3 3 0 1 0 -6 0zM516.26 260.58 a3 3 0 1 0 6 0 a3 3 0 1 0 -6 0zM498.94 270.58 a3 3 0 1 0 6 0 a3 3 0 1 0 -6 0zM533.58 270.58 a3 3 0 1 0 6 0 a3 3 0 1 0 -6 0zM533.58 290.58 a3 3 0 1 0 6 0 a3 3 0 1 0 -6 0zM516.26 300.58 a3 3 0 1 0 6 0 a3 3 0 1 0 -6 0zM498.94 290.58 a3 3 0 1 0 6 0 a3 3 0 1 0 -6 0zM516.26 320.58 a3 3 0 1 0 6 0 a3 3 0 1 0 -6 0zM533.58 330.58 a3 3 0 1 0 6 0 a3 3 0 1 0 -6 0zM533.58 350.58 a3 3 0 1 0 6 0 a3 3 0 1 0 -6 0zM516.26 360.58 a3 3 0 1 0 6 0 a3 3 0 1 0 -6 0zM498.94 350.58 a3 3 0 1 0 6 0 a3 3 0 1 0 -6 0zM498.94 330.58 a3 3 0 1 0 6 0 a3 3 0 1 0 -6 0zM516.26 500.58 a3 3 0 1 0 6 0 a3 3 0 1 0 -6 0zM533.58 510.58 a3 3 0 1 0 6 0 a3 3 0 1 0 -6 0zM533.58 530.58 a3 3 0 1 0 6 0 a3 3 0 1 0 -6 0zM516.26 540.58 a3 3 0 1 0 6 0 a3 3 0 1 0 -6 0zM498.94 530.58 a3 3 0 1 0 6 0 a3 3 0 1 0 -6 0zM498.94 510.58 a3 3 0 1 0 6 0 a3 3 0 1 0 -6 0z" fill="rgba(255, 0, 213, 1)"></path><path d="M2.8 -7.43L14.06 -0.93L14.06 12.07L2.8 18.57L-8.46 12.07L-8.46 -0.93zM2.8 148.57L14.06 155.07L14.06 168.07L2.8 174.57L-8.46 168.07L-8.46 155.07zM2.8 226.57L14.06 233.07L14.06 246.07L2.8 252.57L-8.46 246.07L-8.46 233.07zM14.06 246.07L25.32 252.57L25.32 265.57L14.06 272.07L2.8 265.57L2.8 252.57zM14.06 285.07L25.32 291.57L25.32 304.57L14.06 311.07L2.8 304.57L2.8 291.57zM2.8 304.57L14.06 311.07L14.06 324.07L2.8 330.57L-8.46 324.07L-8.46 311.07zM14.06 363.07L25.32 369.57L25.32 382.57L14.06 389.07L2.8 382.57L2.8 369.57zM14.06 441.07L25.32 447.57L25.32 460.57L14.06 467.07L2.8 460.57L2.8 447.57zM2.8 499.57L14.06 506.07L14.06 519.07L2.8 525.57L-8.46 519.07L-8.46 506.07zM36.58 51.07L47.83 57.57L47.83 70.57L36.58 77.07L25.32 70.57L25.32 57.57zM36.58 90.07L47.83 96.57L47.83 109.57L36.58 116.07L25.32 109.57L25.32 96.57zM25.32 148.57L36.58 155.07L36.58 168.07L25.32 174.57L14.06 168.07L14.06 155.07zM25.32 187.57L36.58 194.07L36.58 207.07L25.32 213.57L14.06 207.07L14.06 194.07zM25.32 226.57L36.58 233.07L36.58 246.07L25.32 252.57L14.06 246.07L14.06 233.07zM36.58 246.07L47.83 252.57L47.83 265.57L36.58 272.07L25.32 265.57L25.32 252.57zM25.32 265.57L36.58 272.07L36.58 285.07L25.32 291.57L14.06 285.07L14.06 272.07zM25.32 304.57L36.58 311.07L36.58 324.07L25.32 330.57L14.06 324.07L14.06 311.07zM25.32 343.57L36.58 350.07L36.58 363.07L25.32 369.57L14.06 363.07L14.06 350.07zM25.32 382.57L36.58 389.07L36.58 402.07L25.32 408.57L14.06 402.07L14.06 389.07zM36.58 480.07L47.83 486.57L47.83 499.57L36.58 506.07L25.32 499.57L25.32 486.57zM59.09 168.07L70.35 174.57L70.35 187.57L59.09 194.07L47.83 187.57L47.83 174.57zM47.83 226.57L59.09 233.07L59.09 246.07L47.83 252.57L36.58 246.07L36.58 233.07zM47.83 304.57L59.09 311.07L59.09 324.07L47.83 330.57L36.58 324.07L36.58 311.07zM47.83 343.57L59.09 350.07L59.09 363.07L47.83 369.57L36.58 363.07L36.58 350.07zM59.09 363.07L70.35 369.57L70.35 382.57L59.09 389.07L47.83 382.57L47.83 369.57zM47.83 460.57L59.09 467.07L59.09 480.07L47.83 486.57L36.58 480.07L36.58 467.07zM59.09 480.07L70.35 486.57L70.35 499.57L59.09 506.07L47.83 499.57L47.83 486.57zM81.61 51.07L92.87 57.57L92.87 70.57L81.61 77.07L70.35 70.57L70.35 57.57zM70.35 70.57L81.61 77.07L81.61 90.07L70.35 96.57L59.09 90.07L59.09 77.07zM81.61 90.07L92.87 96.57L92.87 109.57L81.61 116.07L70.35 109.57L70.35 96.57zM70.35 187.57L81.61 194.07L81.61 207.07L70.35 213.57L59.09 207.07L59.09 194.07zM70.35 226.57L81.61 233.07L81.61 246.07L70.35 252.57L59.09 246.07L59.09 233.07zM81.61 246.07L92.87 252.57L92.87 265.57L81.61 272.07L70.35 265.57L70.35 252.57zM70.35 265.57L81.61 272.07L81.61 285.07L70.35 291.57L59.09 285.07L59.09 272.07zM81.61 324.07L92.87 330.57L92.87 343.57L81.61 350.07L70.35 343.57L70.35 330.57zM81.61 402.07L92.87 408.57L92.87 421.57L81.61 428.07L70.35 421.57L70.35 408.57zM70.35 460.57L81.61 467.07L81.61 480.07L70.35 486.57L59.09 480.07L59.09 467.07zM104.13 12.07L115.39 18.57L115.39 31.57L104.13 38.07L92.87 31.57L92.87 18.57zM92.87 31.57L104.13 38.07L104.13 51.07L92.87 57.57L81.61 51.07L81.61 38.07zM92.87 109.57L104.13 116.07L104.13 129.07L92.87 135.57L81.61 129.07L81.61 116.07zM104.13 129.07L115.39 135.57L115.39 148.57L104.13 155.07L92.87 148.57L92.87 135.57zM92.87 148.57L104.13 155.07L104.13 168.07L92.87 174.57L81.61 168.07L81.61 155.07zM104.13 168.07L115.39 174.57L115.39 187.57L104.13 194.07L92.87 187.57L92.87 174.57zM92.87 187.57L104.13 194.07L104.13 207.07L92.87 213.57L81.61 207.07L81.61 194.07zM92.87 226.57L104.13 233.07L104.13 246.07L92.87 252.57L81.61 246.07L81.61 233.07zM104.13 246.07L115.39 252.57L115.39 265.57L104.13 272.07L92.87 265.57L92.87 252.57zM92.87 265.57L104.13 272.07L104.13 285.07L92.87 291.57L81.61 285.07L81.61 272.07zM104.13 285.07L115.39 291.57L115.39 304.57L104.13 311.07L92.87 304.57L92.87 291.57zM104.13 324.07L115.39 330.57L115.39 343.57L104.13 350.07L92.87 343.57L92.87 330.57zM92.87 343.57L104.13 350.07L104.13 363.07L92.87 369.57L81.61 363.07L81.61 350.07zM92.87 382.57L104.13 389.07L104.13 402.07L92.87 408.57L81.61 402.07L81.61 389.07zM92.87 499.57L104.13 506.07L104.13 519.07L92.87 525.57L81.61 519.07L81.61 506.07zM126.65 51.07L137.9 57.57L137.9 70.57L126.65 77.07L115.39 70.57L115.39 57.57zM115.39 70.57L126.65 77.07L126.65 90.07L115.39 96.57L104.13 90.07L104.13 77.07zM126.65 90.07L137.9 96.57L137.9 109.57L126.65 116.07L115.39 109.57L115.39 96.57zM115.39 109.57L126.65 116.07L126.65 129.07L115.39 135.57L104.13 129.07L104.13 116.07zM126.65 129.07L137.9 135.57L137.9 148.57L126.65 155.07L115.39 148.57L115.39 135.57zM126.65 168.07L137.9 174.57L137.9 187.57L126.65 194.07L115.39 187.57L115.39 174.57zM115.39 187.57L126.65 194.07L126.65 207.07L115.39 213.57L104.13 207.07L104.13 194.07zM126.65 207.07L137.9 213.57L137.9 226.57L126.65 233.07L115.39 226.57L115.39 213.57zM126.65 285.07L137.9 291.57L137.9 304.57L126.65 311.07L115.39 304.57L115.39 291.57zM126.65 402.07L137.9 408.57L137.9 421.57L126.65 428.07L115.39 421.57L115.39 408.57zM115.39 421.57L126.65 428.07L126.65 441.07L115.39 447.57L104.13 441.07L104.13 428.07zM137.9 -7.43L149.16 -0.93L149.16 12.07L137.9 18.57L126.65 12.07L126.65 -0.93zM149.16 12.07L160.42 18.57L160.42 31.57L149.16 38.07L137.9 31.57L137.9 18.57zM137.9 31.57L149.16 38.07L149.16 51.07L137.9 57.57L126.65 51.07L126.65 38.07zM149.16 51.07L160.42 57.57L160.42 70.57L149.16 77.07L137.9 70.57L137.9 57.57zM137.9 70.57L149.16 77.07L149.16 90.07L137.9 96.57L126.65 90.07L126.65 77.07zM137.9 109.57L149.16 116.07L149.16 129.07L137.9 135.57L126.65 129.07L126.65 116.07zM149.16 129.07L160.42 135.57L160.42 148.57L149.16 155.07L137.9 148.57L137.9 135.57zM137.9 148.57L149.16 155.07L149.16 168.07L137.9 174.57L126.65 168.07L126.65 155.07zM137.9 187.57L149.16 194.07L149.16 207.07L137.9 213.57L126.65 207.07L126.65 194.07zM149.16 207.07L160.42 213.57L160.42 226.57L149.16 233.07L137.9 226.57L137.9 213.57zM149.16 246.07L160.42 252.57L160.42 265.57L149.16 272.07L137.9 265.57L137.9 252.57zM149.16 285.07L160.42 291.57L160.42 304.57L149.16 311.07L137.9 304.57L137.9 291.57zM137.9 304.57L149.16 311.07L149.16 324.07L137.9 330.57L126.65 324.07L126.65 311.07zM137.9 343.57L149.16 350.07L149.16 363.07L137.9 369.57L126.65 363.07L126.65 350.07zM149.16 363.07L160.42 369.57L160.42 382.57L149.16 389.07L137.9 382.57L137.9 369.57zM149.16 402.07L160.42 408.57L160.42 421.57L149.16 428.07L137.9 421.57L137.9 408.57zM149.16 441.07L160.42 447.57L160.42 460.57L149.16 467.07L137.9 460.57L137.9 447.57zM137.9 460.57L149.16 467.07L149.16 480.07L137.9 486.57L126.65 480.07L126.65 467.07zM171.68 51.07L182.94 57.57L182.94 70.57L171.68 77.07L160.42 70.57L160.42 57.57zM160.42 70.57L171.68 77.07L171.68 90.07L160.42 96.57L149.16 90.07L149.16 77.07zM160.42 148.57L171.68 155.07L171.68 168.07L160.42 174.57L149.16 168.07L149.16 155.07zM171.68 207.07L182.94 213.57L182.94 226.57L171.68 233.07L160.42 226.57L160.42 213.57zM160.42 226.57L171.68 233.07L171.68 246.07L160.42 252.57L149.16 246.07L149.16 233.07zM160.42 265.57L171.68 272.07L171.68 285.07L160.42 291.57L149.16 285.07L149.16 272.07zM171.68 285.07L182.94 291.57L182.94 304.57L171.68 311.07L160.42 304.57L160.42 291.57zM160.42 304.57L171.68 311.07L171.68 324.07L160.42 330.57L149.16 324.07L149.16 311.07zM160.42 343.57L171.68 350.07L171.68 363.07L160.42 369.57L149.16 363.07L149.16 350.07zM171.68 402.07L182.94 408.57L182.94 421.57L171.68 428.07L160.42 421.57L160.42 408.57zM160.42 460.57L171.68 467.07L171.68 480.07L160.42 486.57L149.16 480.07L149.16 467.07zM171.68 480.07L182.94 486.57L182.94 499.57L171.68 506.07L160.42 499.57L160.42 486.57zM160.42 499.57L171.68 506.07L171.68 519.07L160.42 525.57L149.16 519.07L149.16 506.07zM182.94 -7.43L194.2 -0.93L194.2 12.07L182.94 18.57L171.68 12.07L171.68 -0.93zM194.2 12.07L205.46 18.57L205.46 31.57L194.2 38.07L182.94 31.57L182.94 18.57zM182.94 31.57L194.2 38.07L194.2 51.07L182.94 57.57L171.68 51.07L171.68 38.07zM194.2 90.07L205.46 96.57L205.46 109.57L194.2 116.07L182.94 109.57L182.94 96.57zM182.94 109.57L194.2 116.07L194.2 129.07L182.94 135.57L171.68 129.07L171.68 116.07zM194.2 129.07L205.46 135.57L205.46 148.57L194.2 155.07L182.94 148.57L182.94 135.57zM194.2 168.07L205.46 174.57L205.46 187.57L194.2 194.07L182.94 187.57L182.94 174.57zM194.2 246.07L205.46 252.57L205.46 265.57L194.2 272.07L182.94 265.57L182.94 252.57zM182.94 265.57L194.2 272.07L194.2 285.07L182.94 291.57L171.68 285.07L171.68 272.07zM194.2 324.07L205.46 330.57L205.46 343.57L194.2 350.07L182.94 343.57L182.94 330.57zM194.2 363.07L205.46 369.57L205.46 382.57L194.2 389.07L182.94 382.57L182.94 369.57zM194.2 480.07L205.46 486.57L205.46 499.57L194.2 506.07L182.94 499.57L182.94 486.57zM182.94 499.57L194.2 506.07L194.2 519.07L182.94 525.57L171.68 519.07L171.68 506.07zM205.46 -7.43L216.71 -0.93L216.71 12.07L205.46 18.57L194.2 12.07L194.2 -0.93zM205.46 31.57L216.71 38.07L216.71 51.07L205.46 57.57L194.2 51.07L194.2 38.07zM216.71 129.07L227.97 135.57L227.97 148.57L216.71 155.07L205.46 148.57L205.46 135.57zM205.46 148.57L216.71 155.07L216.71 168.07L205.46 174.57L194.2 168.07L194.2 155.07zM205.46 265.57L216.71 272.07L216.71 285.07L205.46 291.57L194.2 285.07L194.2 272.07zM216.71 363.07L227.97 369.57L227.97 382.57L216.71 389.07L205.46 382.57L205.46 369.57zM205.46 382.57L216.71 389.07L216.71 402.07L205.46 408.57L194.2 402.07L194.2 389.07zM216.71 402.07L227.97 408.57L227.97 421.57L216.71 428.07L205.46 421.57L205.46 408.57zM216.71 441.07L227.97 447.57L227.97 460.57L216.71 467.07L205.46 460.57L205.46 447.57zM205.46 460.57L216.71 467.07L216.71 480.07L205.46 486.57L194.2 480.07L194.2 467.07zM216.71 480.07L227.97 486.57L227.97 499.57L216.71 506.07L205.46 499.57L205.46 486.57zM205.46 499.57L216.71 506.07L216.71 519.07L205.46 525.57L194.2 519.07L194.2 506.07zM239.23 12.07L250.49 18.57L250.49 31.57L239.23 38.07L227.97 31.57L227.97 18.57zM227.97 31.57L239.23 38.07L239.23 51.07L227.97 57.57L216.71 51.07L216.71 38.07zM239.23 90.07L250.49 96.57L250.49 109.57L239.23 116.07L227.97 109.57L227.97 96.57zM227.97 148.57L239.23 155.07L239.23 168.07L227.97 174.57L216.71 168.07L216.71 155.07zM227.97 226.57L239.23 233.07L239.23 246.07L227.97 252.57L216.71 246.07L216.71 233.07zM239.23 285.07L250.49 291.57L250.49 304.57L239.23 311.07L227.97 304.57L227.97 291.57zM239.23 402.07L250.49 408.57L250.49 421.57L239.23 428.07L227.97 421.57L227.97 408.57zM227.97 421.57L239.23 428.07L239.23 441.07L227.97 447.57L216.71 441.07L216.71 428.07zM261.75 12.07L273.01 18.57L273.01 31.57L261.75 38.07L250.49 31.57L250.49 18.57zM250.49 31.57L261.75 38.07L261.75 51.07L250.49 57.57L239.23 51.07L239.23 38.07zM261.75 51.07L273.01 57.57L273.01 70.57L261.75 77.07L250.49 70.57L250.49 57.57zM250.49 70.57L261.75 77.07L261.75 90.07L250.49 96.57L239.23 90.07L239.23 77.07zM261.75 207.07L273.01 213.57L273.01 226.57L261.75 233.07L250.49 226.57L250.49 213.57zM250.49 265.57L261.75 272.07L261.75 285.07L250.49 291.57L239.23 285.07L239.23 272.07zM261.75 324.07L273.01 330.57L273.01 343.57L261.75 350.07L250.49 343.57L250.49 330.57zM250.49 343.57L261.75 350.07L261.75 363.07L250.49 369.57L239.23 363.07L239.23 350.07zM261.75 363.07L273.01 369.57L273.01 382.57L261.75 389.07L250.49 382.57L250.49 369.57zM250.49 421.57L261.75 428.07L261.75 441.07L250.49 447.57L239.23 441.07L239.23 428.07zM250.49 460.57L261.75 467.07L261.75 480.07L250.49 486.57L239.23 480.07L239.23 467.07zM273.01 -7.43L284.27 -0.93L284.27 12.07L273.01 18.57L261.75 12.07L261.75 -0.93zM284.27 12.07L295.52 18.57L295.52 31.57L284.27 38.07L273.01 31.57L273.01 18.57zM273.01 31.57L284.27 38.07L284.27 51.07L273.01 57.57L261.75 51.07L261.75 38.07zM273.01 187.57L284.27 194.07L284.27 207.07L273.01 213.57L261.75 207.07L261.75 194.07zM273.01 226.57L284.27 233.07L284.27 246.07L273.01 252.57L261.75 246.07L261.75 233.07zM284.27 246.07L295.52 252.57L295.52 265.57L284.27 272.07L273.01 265.57L273.01 252.57zM284.27 285.07L295.52 291.57L295.52 304.57L284.27 311.07L273.01 304.57L273.01 291.57zM284.27 324.07L295.52 330.57L295.52 343.57L284.27 350.07L273.01 343.57L273.01 330.57zM284.27 402.07L295.52 408.57L295.52 421.57L284.27 428.07L273.01 421.57L273.01 408.57zM273.01 421.57L284.27 428.07L284.27 441.07L273.01 447.57L261.75 441.07L261.75 428.07zM284.27 480.07L295.52 486.57L295.52 499.57L284.27 506.07L273.01 499.57L273.01 486.57zM306.78 12.07L318.04 18.57L318.04 31.57L306.78 38.07L295.52 31.57L295.52 18.57zM295.52 31.57L306.78 38.07L306.78 51.07L295.52 57.57L284.27 51.07L284.27 38.07zM306.78 51.07L318.04 57.57L318.04 70.57L306.78 77.07L295.52 70.57L295.52 57.57zM295.52 70.57L306.78 77.07L306.78 90.07L295.52 96.57L284.27 90.07L284.27 77.07zM295.52 109.57L306.78 116.07L306.78 129.07L295.52 135.57L284.27 129.07L284.27 116.07zM295.52 187.57L306.78 194.07L306.78 207.07L295.52 213.57L284.27 207.07L284.27 194.07zM306.78 207.07L318.04 213.57L318.04 226.57L306.78 233.07L295.52 226.57L295.52 213.57zM295.52 265.57L306.78 272.07L306.78 285.07L295.52 291.57L284.27 285.07L284.27 272.07zM295.52 421.57L306.78 428.07L306.78 441.07L295.52 447.57L284.27 441.07L284.27 428.07zM295.52 460.57L306.78 467.07L306.78 480.07L295.52 486.57L284.27 480.07L284.27 467.07zM306.78 480.07L318.04 486.57L318.04 499.57L306.78 506.07L295.52 499.57L295.52 486.57zM318.04 70.57L329.3 77.07L329.3 90.07L318.04 96.57L306.78 90.07L306.78 77.07zM329.3 90.07L340.56 96.57L340.56 109.57L329.3 116.07L318.04 109.57L318.04 96.57zM318.04 109.57L329.3 116.07L329.3 129.07L318.04 135.57L306.78 129.07L306.78 116.07zM329.3 129.07L340.56 135.57L340.56 148.57L329.3 155.07L318.04 148.57L318.04 135.57zM318.04 226.57L329.3 233.07L329.3 246.07L318.04 252.57L306.78 246.07L306.78 233.07zM329.3 246.07L340.56 252.57L340.56 265.57L329.3 272.07L318.04 265.57L318.04 252.57zM329.3 285.07L340.56 291.57L340.56 304.57L329.3 311.07L318.04 304.57L318.04 291.57zM318.04 304.57L329.3 311.07L329.3 324.07L318.04 330.57L306.78 324.07L306.78 311.07zM329.3 324.07L340.56 330.57L340.56 343.57L329.3 350.07L318.04 343.57L318.04 330.57zM318.04 343.57L329.3 350.07L329.3 363.07L318.04 369.57L306.78 363.07L306.78 350.07zM329.3 363.07L340.56 369.57L340.56 382.57L329.3 389.07L318.04 382.57L318.04 369.57zM318.04 382.57L329.3 389.07L329.3 402.07L318.04 408.57L306.78 402.07L306.78 389.07zM318.04 421.57L329.3 428.07L329.3 441.07L318.04 447.57L306.78 441.07L306.78 428.07zM329.3 441.07L340.56 447.57L340.56 460.57L329.3 467.07L318.04 460.57L318.04 447.57zM318.04 499.57L329.3 506.07L329.3 519.07L318.04 525.57L306.78 519.07L306.78 506.07zM340.56 31.57L351.82 38.07L351.82 51.07L340.56 57.57L329.3 51.07L329.3 38.07zM351.82 129.07L363.08 135.57L363.08 148.57L351.82 155.07L340.56 148.57L340.56 135.57zM340.56 148.57L351.82 155.07L351.82 168.07L340.56 174.57L329.3 168.07L329.3 155.07zM351.82 207.07L363.08 213.57L363.08 226.57L351.82 233.07L340.56 226.57L340.56 213.57zM340.56 265.57L351.82 272.07L351.82 285.07L340.56 291.57L329.3 285.07L329.3 272.07zM351.82 363.07L363.08 369.57L363.08 382.57L351.82 389.07L340.56 382.57L340.56 369.57zM340.56 382.57L351.82 389.07L351.82 402.07L340.56 408.57L329.3 402.07L329.3 389.07zM340.56 421.57L351.82 428.07L351.82 441.07L340.56 447.57L329.3 441.07L329.3 428.07zM340.56 499.57L351.82 506.07L351.82 519.07L340.56 525.57L329.3 519.07L329.3 506.07zM363.08 148.57L374.34 155.07L374.34 168.07L363.08 174.57L351.82 168.07L351.82 155.07zM374.34 168.07L385.59 174.57L385.59 187.57L374.34 194.07L363.08 187.57L363.08 174.57zM374.34 207.07L385.59 213.57L385.59 226.57L374.34 233.07L363.08 226.57L363.08 213.57zM374.34 246.07L385.59 252.57L385.59 265.57L374.34 272.07L363.08 265.57L363.08 252.57zM363.08 265.57L374.34 272.07L374.34 285.07L363.08 291.57L351.82 285.07L351.82 272.07zM374.34 324.07L385.59 330.57L385.59 343.57L374.34 350.07L363.08 343.57L363.08 330.57zM374.34 363.07L385.59 369.57L385.59 382.57L374.34 389.07L363.08 382.57L363.08 369.57zM363.08 460.57L374.34 467.07L374.34 480.07L363.08 486.57L351.82 480.07L351.82 467.07zM374.34 480.07L385.59 486.57L385.59 499.57L374.34 506.07L363.08 499.57L363.08 486.57zM363.08 499.57L374.34 506.07L374.34 519.07L363.08 525.57L351.82 519.07L351.82 506.07zM385.59 -7.43L396.85 -0.93L396.85 12.07L385.59 18.57L374.34 12.07L374.34 -0.93zM385.59 31.57L396.85 38.07L396.85 51.07L385.59 57.57L374.34 51.07L374.34 38.07zM396.85 129.07L408.11 135.57L408.11 148.57L396.85 155.07L385.59 148.57L385.59 135.57zM385.59 187.57L396.85 194.07L396.85 207.07L385.59 213.57L374.34 207.07L374.34 194.07zM385.59 226.57L396.85 233.07L396.85 246.07L385.59 252.57L374.34 246.07L374.34 233.07zM396.85 285.07L408.11 291.57L408.11 304.57L396.85 311.07L385.59 304.57L385.59 291.57zM385.59 304.57L396.85 311.07L396.85 324.07L385.59 330.57L374.34 324.07L374.34 311.07zM385.59 343.57L396.85 350.07L396.85 363.07L385.59 369.57L374.34 363.07L374.34 350.07zM396.85 363.07L408.11 369.57L408.11 382.57L396.85 389.07L385.59 382.57L385.59 369.57zM396.85 441.07L408.11 447.57L408.11 460.57L396.85 467.07L385.59 460.57L385.59 447.57zM408.11 -7.43L419.37 -0.93L419.37 12.07L408.11 18.57L396.85 12.07L396.85 -0.93zM419.37 51.07L430.63 57.57L430.63 70.57L419.37 77.07L408.11 70.57L408.11 57.57zM408.11 109.57L419.37 116.07L419.37 129.07L408.11 135.57L396.85 129.07L396.85 116.07zM408.11 187.57L419.37 194.07L419.37 207.07L408.11 213.57L396.85 207.07L396.85 194.07zM419.37 246.07L430.63 252.57L430.63 265.57L419.37 272.07L408.11 265.57L408.11 252.57zM408.11 265.57L419.37 272.07L419.37 285.07L408.11 291.57L396.85 285.07L396.85 272.07zM408.11 304.57L419.37 311.07L419.37 324.07L408.11 330.57L396.85 324.07L396.85 311.07zM408.11 343.57L419.37 350.07L419.37 363.07L408.11 369.57L396.85 363.07L396.85 350.07zM441.89 12.07L453.15 18.57L453.15 31.57L441.89 38.07L430.63 31.57L430.63 18.57zM430.63 70.57L441.89 77.07L441.89 90.07L430.63 96.57L419.37 90.07L419.37 77.07zM441.89 90.07L453.15 96.57L453.15 109.57L441.89 116.07L430.63 109.57L430.63 96.57zM441.89 129.07L453.15 135.57L453.15 148.57L441.89 155.07L430.63 148.57L430.63 135.57zM441.89 207.07L453.15 213.57L453.15 226.57L441.89 233.07L430.63 226.57L430.63 213.57zM441.89 246.07L453.15 252.57L453.15 265.57L441.89 272.07L430.63 265.57L430.63 252.57zM430.63 382.57L441.89 389.07L441.89 402.07L430.63 408.57L419.37 402.07L419.37 389.07zM441.89 480.07L453.15 486.57L453.15 499.57L441.89 506.07L430.63 499.57L430.63 486.57zM430.63 499.57L441.89 506.07L441.89 519.07L430.63 525.57L419.37 519.07L419.37 506.07zM464.4 12.07L475.66 18.57L475.66 31.57L464.4 38.07L453.15 31.57L453.15 18.57zM453.15 70.57L464.4 77.07L464.4 90.07L453.15 96.57L441.89 90.07L441.89 77.07zM464.4 90.07L475.66 96.57L475.66 109.57L464.4 116.07L453.15 109.57L453.15 96.57zM453.15 109.57L464.4 116.07L464.4 129.07L453.15 135.57L441.89 129.07L441.89 116.07zM453.15 148.57L464.4 155.07L464.4 168.07L453.15 174.57L441.89 168.07L441.89 155.07zM453.15 226.57L464.4 233.07L464.4 246.07L453.15 252.57L441.89 246.07L441.89 233.07zM464.4 246.07L475.66 252.57L475.66 265.57L464.4 272.07L453.15 265.57L453.15 252.57zM453.15 304.57L464.4 311.07L464.4 324.07L453.15 330.57L441.89 324.07L441.89 311.07zM464.4 324.07L475.66 330.57L475.66 343.57L464.4 350.07L453.15 343.57L453.15 330.57zM464.4 402.07L475.66 408.57L475.66 421.57L464.4 428.07L453.15 421.57L453.15 408.57zM464.4 480.07L475.66 486.57L475.66 499.57L464.4 506.07L453.15 499.57L453.15 486.57zM453.15 499.57L464.4 506.07L464.4 519.07L453.15 525.57L441.89 519.07L441.89 506.07zM475.66 -7.43L486.92 -0.93L486.92 12.07L475.66 18.57L464.4 12.07L464.4 -0.93zM486.92 12.07L498.18 18.57L498.18 31.57L486.92 38.07L475.66 31.57L475.66 18.57zM486.92 51.07L498.18 57.57L498.18 70.57L486.92 77.07L475.66 70.57L475.66 57.57zM475.66 109.57L486.92 116.07L486.92 129.07L475.66 135.57L464.4 129.07L464.4 116.07zM486.92 129.07L498.18 135.57L498.18 148.57L486.92 155.07L475.66 148.57L475.66 135.57zM475.66 148.57L486.92 155.07L486.92 168.07L475.66 174.57L464.4 168.07L464.4 155.07zM486.92 168.07L498.18 174.57L498.18 187.57L486.92 194.07L475.66 187.57L475.66 174.57zM486.92 207.07L498.18 213.57L498.18 226.57L486.92 233.07L475.66 226.57L475.66 213.57zM475.66 304.57L486.92 311.07L486.92 324.07L475.66 330.57L464.4 324.07L464.4 311.07zM475.66 421.57L486.92 428.07L486.92 441.07L475.66 447.57L464.4 441.07L464.4 428.07zM475.66 499.57L486.92 506.07L486.92 519.07L475.66 525.57L464.4 519.07L464.4 506.07zM498.18 -7.43L509.44 -0.93L509.44 12.07L498.18 18.57L486.92 12.07L486.92 -0.93zM509.44 12.07L520.7 18.57L520.7 31.57L509.44 38.07L498.18 31.57L498.18 18.57zM509.44 129.07L520.7 135.57L520.7 148.57L509.44 155.07L498.18 148.57L498.18 135.57zM498.18 148.57L509.44 155.07L509.44 168.07L498.18 174.57L486.92 168.07L486.92 155.07zM509.44 168.07L520.7 174.57L520.7 187.57L509.44 194.07L498.18 187.57L498.18 174.57zM498.18 187.57L509.44 194.07L509.44 207.07L498.18 213.57L486.92 207.07L486.92 194.07zM509.44 207.07L520.7 213.57L520.7 226.57L509.44 233.07L498.18 226.57L498.18 213.57zM498.18 304.57L509.44 311.07L509.44 324.07L498.18 330.57L486.92 324.07L486.92 311.07zM509.44 363.07L520.7 369.57L520.7 382.57L509.44 389.07L498.18 382.57L498.18 369.57zM498.18 382.57L509.44 389.07L509.44 402.07L498.18 408.57L486.92 402.07L486.92 389.07zM509.44 402.07L520.7 408.57L520.7 421.57L509.44 428.07L498.18 421.57L498.18 408.57zM498.18 460.57L509.44 467.07L509.44 480.07L498.18 486.57L486.92 480.07L486.92 467.07zM509.44 480.07L520.7 486.57L520.7 499.57L509.44 506.07L498.18 499.57L498.18 486.57z" stroke="rgba(255, 10, 169, 0.93)" stroke-width="2"></path></g><defs><mask id="SvgjsMask1114"><rect width="500" height="500" fill="#ffffff"></rect></mask></defs></svg>