<svg xmlns="http://www.w3.org/2000/svg" version="1.1" xmlns:xlink="http://www.w3.org/1999/xlink" xmlns:svgjs="http://svgjs.dev/svgjs" viewBox="0 0 800 800"><defs><linearGradient x1="50%" y1="0%" x2="50%" y2="100%" id="ssscribble-grad"><stop stop-color="hsl(206, 75%, 49%)" stop-opacity="1" offset="0%"></stop><stop stop-color="hsl(331, 90%, 56%)" stop-opacity="1" offset="100%"></stop></linearGradient></defs><g fill="none" stroke-width="1.5" stroke="url(#ssscribble-grad)" stroke-linecap="round"><path d="M565.34 316.93C918.4 345.25 505.93 316.69 626.97 365.88 802.53 441.79 942.74 555.7 999.14 700.61 965.67 846.87 857.2 976.71 716.78 1054.04 561.93 1055.38 432.04 974.17 337.25 827.67 265.3 672.52 221.03 556.39 191.17 533.11 169.43 622.46 146.76 796.18 116.69 986.98 86.63 1112.58 50.6 1117.27 15.63 1007.48 -11.2 828.2 -21.62 648.78 -1.77 528.67 40.91 497.34 121.29 553.23 229.79 662.91 323.89 798.02 389.19 909.11 383.26 971.9 287.45 984.87 111.59 944.57 -95.26 869.19 -245.45 766.77 -276.71 659.25 -158.86 560.98 42.33 463.22 223.52 383.26 264.1 321.86 124.13 263.2 -118.52 219.2 -305.64 189.14 -305.38 159.07 -120.65 144.36 117.94 146.32 266.75 151.03 244.12 176.29 85.8 221.95 -118.56 268.12 -248.35 326.12 -249.23 382.21 -128.41 411.25 58.39 408.39 238.56 356.02 373.53 253.82 430.29 107.08 422.05 -59.32 361.58 -200.3 284.8 -283.15 218.37 -273.87 153.13 -175.8 116.17 -13.48 106.37 154.18 102.22 252.37 117.08 241.59 147.14 115.99 177.21 -74.8 221.06 -242.42 281.91 -320.18 348.4 -285.29 440.06 -152.05 557.4 25.13 675.93 193.66 802.22 301.84 909.03 331.8 963.61 285.77 950.01 191.58 854.45 84.72 713.68 -20.77 562.52 -91.51 473 -121.09 505.19 -117.43 661.93 -80.95 888.34 -26.32 1068.7 43.62 1108.44 113.96 971.23 175.05 744.24 238.41 565.6 286.87 565.34 316.93Q565.34 316.93 565.34 316.93" opacity="0.96"></path><path d="M531.91 145.65C700.46 173.4 921.7 191.4 1067.63 203.11 1067.49 218.76 922.91 235.96 715.11 263.06 532.4 305.07 451.07 368.81 482.89 459.74 605.35 567.51 754.71 695.03 874.8 827.1 944.58 936.14 941.16 1008.49 881.26 1020.69 778.27 969.18 660.91 857.48 551.57 711.17 442.64 581.34 356.33 502.51 292.93 510.52 233.92 611.62 191.61 777.88 163.86 953.5 136.1 1073.26 124.23 1091.03 130.9 1007.84 141.96 854.24 177.78 682.18 238.62 542.96 299.87 467.12 371.52 467.94 431.75 530.18 448.87 637.42 412.45 751.17 306.29 844.24 149.83 911.52 -32.43 935.07 -183.78 920.43 -244.5 875.55 -188.06 809.98 -25.69 737.88 161.76 656.53 290.54 582.28 279.96 521.46 123.33 460.08 -103.53 414.42 -272.08 386.66 -279.54 358.91 -123.72 350.37 98.17 359.41 270.99 367.89 309.7 391.66 214.17 424.91 34.89 448.92 -132.06 468.79 -217.9 470.9 -200.76 442.79 -89.44 379.4 67.99 275.76 238.03 146.32 372.64 -0.32 456.22 -136.47 492.59 -227.62 488.37 -253.34 465.01 -197.86 423.08 -78.99 387.77 77.26 369.94 220.15 350.93 292.66 354.17 269.3 381.92 149.57 409.67 -26.04 460.62 -186.7 531.98 -277.12 602.14 -274.44 687.93 -179.83 777.96 -29.66 849.41 136.99 899.34 273.59 905.74 354.01 864.94 370.7 770.17 331.26 636.5 258.6 515.43 162.9 437.02 75.22 448.78 10.22 563.52 -37.92 755.36 -55.96 954.99 -49.88 1070.86 -28.89 1047.95 4.39 885.84 41.08 674.64 81.7 524.45 117.89 531.91 145.65Q531.91 145.65 531.91 145.65" opacity="0.64"></path><path d="M498.87 108.96C649.77 134.4 853.24 163.11 1008.3 197.07 1051.66 234.32 964.23 282.68 793.13 346.19 601.46 418.13 461.64 508.46 408.75 614.56 446.57 719.92 547.32 825.56 667.57 914.98 786.26 969.86 863.85 981.2 892.92 938.37 881.4 852.05 833.83 730.14 768.83 599.73 687.93 502.21 610.73 459.96 547.22 494.4 482.27 602.81 435.62 759.75 410.18 920.13 384.74 1033.34 381.71 1061.9 398.69 1003.5 414.23 877.81 445.14 721.58 481.96 576.31 502.88 469.44 508.54 421.96 480.86 432.23 412.58 493.56 298.46 581.74 146.43 673.37 -7.15 763.26 -138.06 827.8 -202.37 862.61 -175.97 875.36 -58.96 862.41 114.05 832.78 266.5 790.79 339.45 744.14 286.27 700.56 121.4 654.29 -87.22 616.76 -238.12 591.32 -252.74 565.87 -125.45 553.72 74.03 552.02 257.7 547.62 346.46 547.99 317.63 545.91 190.11 531.45 27.62 502.51 -106.15 450.57 -178.62 376.55 -164.82 275.49 -82.11 152.26 49.91 27.29 193.73 -91.05 321.46 -178.88 431.14 -215.65 505.36 -191 549.93 -102.79 573.8 23.81 583.94 165.56 592.22 281.45 595.26 330.05 607.14 296.36 632.58 183.19 658.02 22.81 695.82 -128.98 740.75 -227.6 780.45 -252.24 816.58 -195.53 836.8 -79.36 836.32 69.68 804 214.42 733.52 327.23 645 396.55 537.7 415.39 439.02 393.84 389.65 337.78 406.01 268.65 504.98 202.5 665.25 135.61 850.55 87.17 996.71 59.32 1044.19 39.9 969.91 37.81 796.06 48.54 606.38 62.56 484.25 83.52 498.87 108.96Q498.87 108.96 498.87 108.96" opacity="0.17"></path><path d="M465.37 226.12C598.56 249.25 782.27 284.6 939.36 331.9 1017.08 380.54 985.32 443.01 864.92 518.41 694.68 594.23 531.39 679.21 416.99 766.1 368.76 840.25 389.22 900.45 456.38 933.83 556.85 933.84 655.81 894.79 733.72 816.17 794.46 716.12 822.22 602.68 822.97 499.82 806.64 437.7 776.53 428.92 742.78 484.13 704.56 595.55 671.65 741.51 648.53 886.63 625.4 992.59 613.14 1029.59 607.75 993.59 597.89 896.46 585.92 762.48 562.17 623.15 521.35 500.5 455.51 417.46 359.11 380.8 245.57 390.12 113.4 434.87 -17.37 498.87 -114.84 578.37 -162.73 651.91 -138.58 709.96 -48.25 759.28 94.28 787.4 247.57 796.69 351.02 796.56 369.62 784.03 282.97 764.41 116.95 741.87 -71.43 717.74 -204.62 694.62 -224.31 671.49 -123.45 650.46 49.67 629.38 231.12 605.39 353.87 575.85 384.92 535.91 322.33 486.54 198.75 420.35 61.36 335.39 -60.58 241.69 -127.75 134.95 -133.48 25.13 -84.46 -69.17 4.9 -141.35 110.86 -174.76 228.74 -162.2 334.58 -99.92 420.39 5.76 497.39 128.14 554.44 248.96 595.84 337.18 632.96 364.27 661.79 322.61 684.92 216.69 708.04 71.57 724.38 -69.71 730.87 -172.22 733.08 -218.53 718.1 -196.6 681.18 -117.53 635.46 2.26 567.71 136.44 485.46 260.58 415.15 363.29 358.98 429.77 340.27 460.07 376.32 457 470.91 430.01 616.94 391.49 778.41 340.26 922.73 293.36 1002.28 257.62 988.18 222.3 878.58 201.9 706.06 196.88 541.85 193.19 445.68 203 465.37 226.12Q465.37 226.12 465.37 226.12" opacity="0.31"></path><path d="M431.51 435.17C547.2 455.98 709.58 490.08 861.87 535.62 963.15 580.56 980.08 635.32 915.8 695.94 789.71 751.44 638.45 805.89 498.9 851.53 390.54 880.84 333.25 890.06 324.55 872.18 359.14 830.68 419.2 761.5 486.19 670.23 561.01 576.39 621.8 485.91 663.17 417.22 697.63 389.82 713.1 409.35 713.07 479.25 709.73 589.6 696.55 723.15 675.74 853.03 654.92 951.05 627.45 994.11 591.55 977.61 552.32 908.23 498.98 800.57 428.45 677.01 351.02 553.56 255.94 451.02 149.04 379.98 49.98 342.87 -39.96 339.55 -101.83 361.63 -120.41 406.63 -87.8 460.06 -1.11 511.92 116.76 567.05 249.35 610.68 360.18 640.03 409.21 665.85 380.43 677.74 271.12 677.1 110.8 674.74 -55.79 662.75 -171.48 641.94 -194.47 621.13 -117.62 592.48 26.94 555.59 195.31 516.99 335.13 467.23 412.13 405.34 413.82 339.93 348.91 262.02 245.09 174.81 121.63 90.87 15.59 7.55 -54.6 -64.73 -88.59 -114.09 -79.46 -135.47 -38.53 -120.04 28.06 -70.68 105.71 13.17 181.76 121.36 262.59 229.66 331.68 325.49 385.2 386.84 438.12 395.34 475.54 348.08 496.35 250.09 517.17 120.21 520.39 -9.12 506.73 -111.46 492.46 -173.35 461.23 -181.05 416.48 -138.39 376.5 -54.45 333.13 54.68 298.6 170.19 289.75 283.15 310.51 377.01 371.78 445.79 469.26 490.96 599.98 511.62 745.11 514.39 870.61 500.83 954.18 480.66 967.74 461.23 906.01 436.68 778.03 419.79 617.7 414.1 481.15 407.81 408.52 414.35 431.51 435.17Q431.51 435.17 431.51 435.17" opacity="0.32"></path><path d="M398.4 625.75C498.05 644.26 638.51 670.16 779.67 701.41 892.33 731.1 945.58 762.99 933.02 792.85 861.48 816.18 749.04 831.22 621.7 832.69 494.44 821.26 390.95 791.08 320.26 740.59 281.56 679.2 274.51 603.43 289.08 521.03 323.28 448.7 362.75 389.74 398.13 356.55 437.49 359.82 465.09 401.05 477.91 479.44 490.49 585 487.99 704.95 469.48 819.64 450.98 909.07 417.36 955.81 369.89 955.5 322.18 911.7 260.92 831.97 189.5 731.14 122.05 619.74 52.11 514.19 -10.59 425.46 -53.68 356.31 -73.19 312.76 -58.74 292.68 -12.31 294.01 69.25 310.57 177.24 334.97 285.32 369.16 381.17 401.84 439.15 428.04 438.14 455.95 374.36 473.81 254.56 479.89 106.26 485.81 -37.94 479.9 -137.59 461.4 -163.64 442.9 -109.25 412.68 5.44 371.87 152.27 330.89 293.53 279.38 399.18 219.4 454.1 161.14 451.93 97.99 403.64 35.28 318.38 -17.62 221.3 -60.74 131.52 -86.32 51.13 -90.49 -1.98 -68.88 -27.09 -19 -31.34 50.47 -14.21 139.42 15.6 237.26 55.9 324.53 98.23 393.73 135.97 430.39 175.89 423.56 206.56 373.07 225.06 283.64 243.57 168.95 249.04 52.74 244.01 -45.67 241.17 -116.91 232.49 -147.61 224.25 -137.32 226.49 -90.57 239.82 -15.02 272.57 76.56 326.18 178.23 405.86 275.94 510.49 361.58 624.52 436.31 743.54 493.05 848.07 533 915.64 560.04 934.42 575.47 893.09 584.21 801.01 586.4 670.3 588.18 530.61 593.38 423.02 597.02 372.36 607.24 398.37 625.74Q398.4 625.75 398.4 625.75" opacity="0.22"></path><path d="M364.9 696.79C571.79 729.17 812.03 755.26 911.56 759.13 831.18 744.49 630.83 681.44 434.43 567.99 284.86 454.06 222.36 350.25 209.66 319.98 229.01 401.11 236.32 580.27 203.94 786.14 171.56 916.85 102.57 904.82 27.1 778.14 -16.3 590.47 -4.33 417.45 102.8 303.98 256.76 247.65 422.77 241.52 479.42 250.44 356.15 276.01 102.79 280.65 -104.09 248.27 -96.25 215.9 113.83 149.58 352.66 67.9 488.75 2.86 465.07 -41.54 351.92 -27.66 196.81 43.35 91.8 182.03 54.38 345.96 45.9 448.93 70.65 447.86 103.02 317.2 135.4 111.31 172.34 -54.74 236.92 -112.16 330.44 -58.17 485.97 79.97 683.52 236.34 839.13 392.23 897.18 505.81 784.85 576.57 569.76 628.8 372.77 664.4 364.87 696.78Q364.9 696.79 364.9 696.79" opacity="0.42"></path><path d="M331.16 610.73C500.01 638.48 713.33 637.19 849.27 604.16 865.39 564.73 760.64 489.79 607.13 394.7 436.46 323.35 306.55 282.05 226.7 308.03 167.95 411.27 132.52 576.96 104.77 752.57 77.02 872.33 59.57 888.05 70.23 811.57 101.98 671.95 188.58 516.28 322.88 386.13 440.01 281.1 515.33 217.34 478.87 181.71 322.57 161.16 98.01 143.09 -70.83 115.34 -78.75 87.59 74.51 52.78 283.54 25.24 461.37 12.78 536.53 33.22 520.16 101.86 434.55 195.64 339.87 321.87 277.91 441.15 219.62 497.29 204.67 470.35 232.42 350.63 260.17 175.01 328 20.55 434.38 -62.36 544.43 -68.01 682.43 2.71 804.42 110.44 857.16 241.9 811.44 360.16 653.95 447.69 465.26 528.81 323.24 582.98 331.16 610.73Q331.16 610.73 331.16 610.73" opacity="0.95"></path><path d="M297.69 413.22C430.66 436.34 607.39 427.45 750.88 392.29 831.69 359.7 822.03 309.91 750.56 261.41 636.23 241.79 518.92 255.48 427.13 319.26 337.56 428.88 279.53 573.97 256.41 719.08 233.28 825.04 247.25 859.6 296.74 826.18 348.45 739.73 429.66 624.26 513.68 510.56 554.84 397.73 539.97 308.84 442.21 247.17 281.76 193.21 95.66 156.18 -37.3 133.06 -56.71 109.93 43.18 102.89 204.44 116.77 378.84 138.36 507.8 191.15 573.27 273.67 584.9 357.06 560.78 447.99 533.74 517.5 495.09 533.98 480.92 490.06 504.04 384.14 527.17 239.02 585.41 103.29 664.14 10.61 731.25 -36.23 791.46 -25.4 810.15 24.53 774.99 103.34 670.56 189.22 513.11 261.89 368.81 337.14 278.28 390.09 297.69 413.22Q297.69 413.22 297.69 413.22" opacity="0.90"></path><path d="M264.4 208.73C364.04 227.23 498.92 226.61 625.97 213.41 731.88 205.62 786.08 196.25 791.74 197.75 762.12 220.68 708.98 270.13 654.97 350.14 593.37 451.92 547.9 570.96 529.4 685.64 516.01 797.18 584.73 746.78 602.24 637.15 572.33 550.51 498.5 471.92 379.03 411.27 238.42 351.55 96.04 310.52 -3.59 292.02 -29.64 273.52 24.49 279.29 130.63 306.96 266.85 335.54 396.92 385.26 497.36 447.65 574.97 499.76 620.25 546.68 644.51 571.24 657.67 558.78 668.96 507.07 687.47 417.64 705.97 302.96 729.92 191.42 748.83 103.2 756.63 36.75 740.23 6.92 686.87 8.24 610.69 30.99 500.25 69.24 377.6 109.09 285.02 154.35 238.36 190.22 264.37 208.72Q264.4 208.73 264.4 208.73" opacity="0.98"></path><path d="M230.73 105.32C399.67 133.07 597.06 158.08 702.06 214.38 746.08 312.04 720.88 476.48 693.13 652.09 665.38 771.86 640.32 783.28 559.93 725.08 418.55 625.95 198.67 535.75 29.73 508 21.68 480.25 170.57 520.19 337.27 582.95 501.77 604.78 599.07 570.86 626.82 451.09 654.57 275.48 607.53 133.54 479.4 72.25 349.07 52.32 222.68 77.57 230.73 105.32Q230.73 105.32 230.73 105.32" opacity="0.96"></path><path d="M197.4 157.89C443.07 194.89 645.13 383.11 608.13 618.64 571.12 757.32 309.07 703.91 63.4 666.91 92.04 629.9 336.44 623.32 373.45 484.64 410.45 249.11 226.04 120.88 197.4 157.89Q197.4 157.89 197.4 157.89" opacity="0.60"></path></g></svg>