<svg xmlns="http://www.w3.org/2000/svg" version="1.1" xmlns:xlink="http://www.w3.org/1999/xlink" xmlns:svgjs="http://svgjs.com/svgjs" width="1800" height="1200" preserveAspectRatio="none" viewBox="0 0 1800 1200"><g mask="url(&quot;#SvgjsMask1008&quot;)" fill="none"><rect width="1800" height="1200" x="0" y="0" fill="#0e2a47"></rect><path d="M137.64 101.43L202.6 138.93L202.6 213.93L137.64 251.43L72.69 213.93L72.69 138.93zM137.64 326.43L202.6 363.93L202.6 438.93L137.64 476.43L72.69 438.93L72.69 363.93zM72.69 888.93L137.64 926.43L137.64 1001.43L72.69 1038.93L7.74 1001.43L7.74 926.43zM137.64 1001.43L202.6 1038.93L202.6 1113.93L137.64 1151.43L72.69 1113.93L72.69 1038.93zM267.55 326.43L332.5 363.93L332.5 438.93L267.55 476.43L202.6 438.93L202.6 363.93zM202.6 438.93L267.55 476.43L267.55 551.43L202.6 588.93L137.64 551.43L137.64 476.43zM202.6 663.93L267.55 701.43L267.55 776.43L202.6 813.93L137.64 776.43L137.64 701.43zM267.55 1001.43L332.5 1038.93L332.5 1113.93L267.55 1151.43L202.6 1113.93L202.6 1038.93zM332.5 213.93L397.46 251.43L397.46 326.43L332.5 363.93L267.55 326.43L267.55 251.43zM527.37 101.43L592.32 138.93L592.32 213.93L527.37 251.43L462.41 213.93L462.41 138.93zM462.41 213.93L527.37 251.43L527.37 326.43L462.41 363.93L397.46 326.43L397.46 251.43zM462.41 438.93L527.37 476.43L527.37 551.43L462.41 588.93L397.46 551.43L397.46 476.43zM462.41 663.93L527.37 701.43L527.37 776.43L462.41 813.93L397.46 776.43L397.46 701.43zM527.37 1001.43L592.32 1038.93L592.32 1113.93L527.37 1151.43L462.41 1113.93L462.41 1038.93zM527.37 1226.43L592.32 1263.93L592.32 1338.93L527.37 1376.43L462.41 1338.93L462.41 1263.93zM657.27 101.43L722.23 138.93L722.23 213.93L657.27 251.43L592.32 213.93L592.32 138.93zM592.32 663.93L657.27 701.43L657.27 776.43L592.32 813.93L527.37 776.43L527.37 701.43zM657.27 776.43L722.23 813.93L722.23 888.93L657.27 926.43L592.32 888.93L592.32 813.93zM592.32 888.93L657.27 926.43L657.27 1001.43L592.32 1038.93L527.37 1001.43L527.37 926.43zM657.27 1001.43L722.23 1038.93L722.23 1113.93L657.27 1151.43L592.32 1113.93L592.32 1038.93zM657.27 1226.43L722.23 1263.93L722.23 1338.93L657.27 1376.43L592.32 1338.93L592.32 1263.93zM787.18 101.43L852.13 138.93L852.13 213.93L787.18 251.43L722.23 213.93L722.23 138.93zM722.23 663.93L787.18 701.43L787.18 776.43L722.23 813.93L657.27 776.43L657.27 701.43zM787.18 1001.43L852.13 1038.93L852.13 1113.93L787.18 1151.43L722.23 1113.93L722.23 1038.93zM852.13 438.93L917.09 476.43L917.09 551.43L852.13 588.93L787.18 551.43L787.18 476.43zM852.13 1113.93L917.09 1151.43L917.09 1226.43L852.13 1263.93L787.18 1226.43L787.18 1151.43zM1047 1001.43L1111.95 1038.93L1111.95 1113.93L1047 1151.43L982.04 1113.93L982.04 1038.93zM1176.9 326.43L1241.86 363.93L1241.86 438.93L1176.9 476.43L1111.95 438.93L1111.95 363.93zM1111.95 663.93L1176.9 701.43L1176.9 776.43L1111.95 813.93L1047 776.43L1047 701.43zM1176.9 776.43L1241.86 813.93L1241.86 888.93L1176.9 926.43L1111.95 888.93L1111.95 813.93zM1241.86 -11.07L1306.81 26.43L1306.81 101.43L1241.86 138.93L1176.9 101.43L1176.9 26.43zM1241.86 663.93L1306.81 701.43L1306.81 776.43L1241.86 813.93L1176.9 776.43L1176.9 701.43zM1306.81 776.43L1371.76 813.93L1371.76 888.93L1306.81 926.43L1241.86 888.93L1241.86 813.93zM1306.81 1001.43L1371.76 1038.93L1371.76 1113.93L1306.81 1151.43L1241.86 1113.93L1241.86 1038.93zM1306.81 1226.43L1371.76 1263.93L1371.76 1338.93L1306.81 1376.43L1241.86 1338.93L1241.86 1263.93zM1436.72 101.43L1501.67 138.93L1501.67 213.93L1436.72 251.43L1371.77 213.93L1371.77 138.93zM1436.72 551.43L1501.67 588.93L1501.67 663.93L1436.72 701.43L1371.77 663.93L1371.77 588.93zM1371.77 663.93L1436.72 701.43L1436.72 776.43L1371.77 813.93L1306.81 776.43L1306.81 701.43zM1371.77 888.93L1436.72 926.43L1436.72 1001.43L1371.77 1038.93L1306.81 1001.43L1306.81 926.43zM1566.63 326.43L1631.58 363.93L1631.58 438.93L1566.63 476.43L1501.67 438.93L1501.67 363.93zM1501.67 888.93L1566.63 926.43L1566.63 1001.43L1501.67 1038.93L1436.72 1001.43L1436.72 926.43zM1631.58 -11.07L1696.53 26.43L1696.53 101.43L1631.58 138.93L1566.63 101.43L1566.63 26.43zM1696.53 326.43L1761.49 363.93L1761.49 438.93L1696.53 476.43L1631.58 438.93L1631.58 363.93zM1631.58 438.93L1696.53 476.43L1696.53 551.43L1631.58 588.93L1566.63 551.43L1566.63 476.43zM1631.58 663.93L1696.53 701.43L1696.53 776.43L1631.58 813.93L1566.63 776.43L1566.63 701.43zM1761.49 -11.07L1826.44 26.43L1826.44 101.43L1761.49 138.93L1696.53 101.43L1696.53 26.43zM1826.44 101.43L1891.39 138.93L1891.39 213.93L1826.44 251.43L1761.49 213.93L1761.49 138.93z" stroke="#03305d" stroke-width="2"></path><path d="M130.14 101.43 a7.5 7.5 0 1 0 15 0 a7.5 7.5 0 1 0 -15 0zM195.1 138.93 a7.5 7.5 0 1 0 15 0 a7.5 7.5 0 1 0 -15 0zM195.1 213.93 a7.5 7.5 0 1 0 15 0 a7.5 7.5 0 1 0 -15 0zM130.14 251.43 a7.5 7.5 0 1 0 15 0 a7.5 7.5 0 1 0 -15 0zM65.19 213.93 a7.5 7.5 0 1 0 15 0 a7.5 7.5 0 1 0 -15 0zM65.19 138.93 a7.5 7.5 0 1 0 15 0 a7.5 7.5 0 1 0 -15 0zM130.14 326.43 a7.5 7.5 0 1 0 15 0 a7.5 7.5 0 1 0 -15 0zM195.1 363.93 a7.5 7.5 0 1 0 15 0 a7.5 7.5 0 1 0 -15 0zM195.1 438.93 a7.5 7.5 0 1 0 15 0 a7.5 7.5 0 1 0 -15 0zM130.14 476.43 a7.5 7.5 0 1 0 15 0 a7.5 7.5 0 1 0 -15 0zM65.19 438.93 a7.5 7.5 0 1 0 15 0 a7.5 7.5 0 1 0 -15 0zM65.19 363.93 a7.5 7.5 0 1 0 15 0 a7.5 7.5 0 1 0 -15 0zM65.19 888.93 a7.5 7.5 0 1 0 15 0 a7.5 7.5 0 1 0 -15 0zM130.14 926.43 a7.5 7.5 0 1 0 15 0 a7.5 7.5 0 1 0 -15 0zM130.14 1001.43 a7.5 7.5 0 1 0 15 0 a7.5 7.5 0 1 0 -15 0zM65.19 1038.93 a7.5 7.5 0 1 0 15 0 a7.5 7.5 0 1 0 -15 0zM0.24 1001.43 a7.5 7.5 0 1 0 15 0 a7.5 7.5 0 1 0 -15 0zM0.24 926.43 a7.5 7.5 0 1 0 15 0 a7.5 7.5 0 1 0 -15 0zM195.1 1038.93 a7.5 7.5 0 1 0 15 0 a7.5 7.5 0 1 0 -15 0zM195.1 1113.93 a7.5 7.5 0 1 0 15 0 a7.5 7.5 0 1 0 -15 0zM130.14 1151.43 a7.5 7.5 0 1 0 15 0 a7.5 7.5 0 1 0 -15 0zM65.19 1113.93 a7.5 7.5 0 1 0 15 0 a7.5 7.5 0 1 0 -15 0zM260.05 326.43 a7.5 7.5 0 1 0 15 0 a7.5 7.5 0 1 0 -15 0zM325 363.93 a7.5 7.5 0 1 0 15 0 a7.5 7.5 0 1 0 -15 0zM325 438.93 a7.5 7.5 0 1 0 15 0 a7.5 7.5 0 1 0 -15 0zM260.05 476.43 a7.5 7.5 0 1 0 15 0 a7.5 7.5 0 1 0 -15 0zM260.05 551.43 a7.5 7.5 0 1 0 15 0 a7.5 7.5 0 1 0 -15 0zM195.1 588.93 a7.5 7.5 0 1 0 15 0 a7.5 7.5 0 1 0 -15 0zM130.14 551.43 a7.5 7.5 0 1 0 15 0 a7.5 7.5 0 1 0 -15 0zM195.1 663.93 a7.5 7.5 0 1 0 15 0 a7.5 7.5 0 1 0 -15 0zM260.05 701.43 a7.5 7.5 0 1 0 15 0 a7.5 7.5 0 1 0 -15 0zM260.05 776.43 a7.5 7.5 0 1 0 15 0 a7.5 7.5 0 1 0 -15 0zM195.1 813.93 a7.5 7.5 0 1 0 15 0 a7.5 7.5 0 1 0 -15 0zM130.14 776.43 a7.5 7.5 0 1 0 15 0 a7.5 7.5 0 1 0 -15 0zM130.14 701.43 a7.5 7.5 0 1 0 15 0 a7.5 7.5 0 1 0 -15 0zM260.05 1001.43 a7.5 7.5 0 1 0 15 0 a7.5 7.5 0 1 0 -15 0zM325 1038.93 a7.5 7.5 0 1 0 15 0 a7.5 7.5 0 1 0 -15 0zM325 1113.93 a7.5 7.5 0 1 0 15 0 a7.5 7.5 0 1 0 -15 0zM260.05 1151.43 a7.5 7.5 0 1 0 15 0 a7.5 7.5 0 1 0 -15 0zM325 213.93 a7.5 7.5 0 1 0 15 0 a7.5 7.5 0 1 0 -15 0zM389.96 251.43 a7.5 7.5 0 1 0 15 0 a7.5 7.5 0 1 0 -15 0zM389.96 326.43 a7.5 7.5 0 1 0 15 0 a7.5 7.5 0 1 0 -15 0zM260.05 251.43 a7.5 7.5 0 1 0 15 0 a7.5 7.5 0 1 0 -15 0zM519.87 101.43 a7.5 7.5 0 1 0 15 0 a7.5 7.5 0 1 0 -15 0zM584.82 138.93 a7.5 7.5 0 1 0 15 0 a7.5 7.5 0 1 0 -15 0zM584.82 213.93 a7.5 7.5 0 1 0 15 0 a7.5 7.5 0 1 0 -15 0zM519.87 251.43 a7.5 7.5 0 1 0 15 0 a7.5 7.5 0 1 0 -15 0zM454.91 213.93 a7.5 7.5 0 1 0 15 0 a7.5 7.5 0 1 0 -15 0zM454.91 138.93 a7.5 7.5 0 1 0 15 0 a7.5 7.5 0 1 0 -15 0zM519.87 326.43 a7.5 7.5 0 1 0 15 0 a7.5 7.5 0 1 0 -15 0zM454.91 363.93 a7.5 7.5 0 1 0 15 0 a7.5 7.5 0 1 0 -15 0zM454.91 438.93 a7.5 7.5 0 1 0 15 0 a7.5 7.5 0 1 0 -15 0zM519.87 476.43 a7.5 7.5 0 1 0 15 0 a7.5 7.5 0 1 0 -15 0zM519.87 551.43 a7.5 7.5 0 1 0 15 0 a7.5 7.5 0 1 0 -15 0zM454.91 588.93 a7.5 7.5 0 1 0 15 0 a7.5 7.5 0 1 0 -15 0zM389.96 551.43 a7.5 7.5 0 1 0 15 0 a7.5 7.5 0 1 0 -15 0zM389.96 476.43 a7.5 7.5 0 1 0 15 0 a7.5 7.5 0 1 0 -15 0zM454.91 663.93 a7.5 7.5 0 1 0 15 0 a7.5 7.5 0 1 0 -15 0zM519.87 701.43 a7.5 7.5 0 1 0 15 0 a7.5 7.5 0 1 0 -15 0zM519.87 776.43 a7.5 7.5 0 1 0 15 0 a7.5 7.5 0 1 0 -15 0zM454.91 813.93 a7.5 7.5 0 1 0 15 0 a7.5 7.5 0 1 0 -15 0zM389.96 776.43 a7.5 7.5 0 1 0 15 0 a7.5 7.5 0 1 0 -15 0zM389.96 701.43 a7.5 7.5 0 1 0 15 0 a7.5 7.5 0 1 0 -15 0zM519.87 1001.43 a7.5 7.5 0 1 0 15 0 a7.5 7.5 0 1 0 -15 0zM584.82 1038.93 a7.5 7.5 0 1 0 15 0 a7.5 7.5 0 1 0 -15 0zM584.82 1113.93 a7.5 7.5 0 1 0 15 0 a7.5 7.5 0 1 0 -15 0zM519.87 1151.43 a7.5 7.5 0 1 0 15 0 a7.5 7.5 0 1 0 -15 0zM454.91 1113.93 a7.5 7.5 0 1 0 15 0 a7.5 7.5 0 1 0 -15 0zM454.91 1038.93 a7.5 7.5 0 1 0 15 0 a7.5 7.5 0 1 0 -15 0zM519.87 1226.43 a7.5 7.5 0 1 0 15 0 a7.5 7.5 0 1 0 -15 0zM584.82 1263.93 a7.5 7.5 0 1 0 15 0 a7.5 7.5 0 1 0 -15 0zM584.82 1338.93 a7.5 7.5 0 1 0 15 0 a7.5 7.5 0 1 0 -15 0zM519.87 1376.43 a7.5 7.5 0 1 0 15 0 a7.5 7.5 0 1 0 -15 0zM454.91 1338.93 a7.5 7.5 0 1 0 15 0 a7.5 7.5 0 1 0 -15 0zM454.91 1263.93 a7.5 7.5 0 1 0 15 0 a7.5 7.5 0 1 0 -15 0zM649.77 101.43 a7.5 7.5 0 1 0 15 0 a7.5 7.5 0 1 0 -15 0zM714.73 138.93 a7.5 7.5 0 1 0 15 0 a7.5 7.5 0 1 0 -15 0zM714.73 213.93 a7.5 7.5 0 1 0 15 0 a7.5 7.5 0 1 0 -15 0zM649.77 251.43 a7.5 7.5 0 1 0 15 0 a7.5 7.5 0 1 0 -15 0zM584.82 663.93 a7.5 7.5 0 1 0 15 0 a7.5 7.5 0 1 0 -15 0zM649.77 701.43 a7.5 7.5 0 1 0 15 0 a7.5 7.5 0 1 0 -15 0zM649.77 776.43 a7.5 7.5 0 1 0 15 0 a7.5 7.5 0 1 0 -15 0zM584.82 813.93 a7.5 7.5 0 1 0 15 0 a7.5 7.5 0 1 0 -15 0zM714.73 813.93 a7.5 7.5 0 1 0 15 0 a7.5 7.5 0 1 0 -15 0zM714.73 888.93 a7.5 7.5 0 1 0 15 0 a7.5 7.5 0 1 0 -15 0zM649.77 926.43 a7.5 7.5 0 1 0 15 0 a7.5 7.5 0 1 0 -15 0zM584.82 888.93 a7.5 7.5 0 1 0 15 0 a7.5 7.5 0 1 0 -15 0zM649.77 1001.43 a7.5 7.5 0 1 0 15 0 a7.5 7.5 0 1 0 -15 0zM519.87 926.43 a7.5 7.5 0 1 0 15 0 a7.5 7.5 0 1 0 -15 0zM714.73 1038.93 a7.5 7.5 0 1 0 15 0 a7.5 7.5 0 1 0 -15 0zM714.73 1113.93 a7.5 7.5 0 1 0 15 0 a7.5 7.5 0 1 0 -15 0zM649.77 1151.43 a7.5 7.5 0 1 0 15 0 a7.5 7.5 0 1 0 -15 0zM649.77 1226.43 a7.5 7.5 0 1 0 15 0 a7.5 7.5 0 1 0 -15 0zM714.73 1263.93 a7.5 7.5 0 1 0 15 0 a7.5 7.5 0 1 0 -15 0zM714.73 1338.93 a7.5 7.5 0 1 0 15 0 a7.5 7.5 0 1 0 -15 0zM649.77 1376.43 a7.5 7.5 0 1 0 15 0 a7.5 7.5 0 1 0 -15 0zM779.68 101.43 a7.5 7.5 0 1 0 15 0 a7.5 7.5 0 1 0 -15 0zM844.63 138.93 a7.5 7.5 0 1 0 15 0 a7.5 7.5 0 1 0 -15 0zM844.63 213.93 a7.5 7.5 0 1 0 15 0 a7.5 7.5 0 1 0 -15 0zM779.68 251.43 a7.5 7.5 0 1 0 15 0 a7.5 7.5 0 1 0 -15 0zM714.73 663.93 a7.5 7.5 0 1 0 15 0 a7.5 7.5 0 1 0 -15 0zM779.68 701.43 a7.5 7.5 0 1 0 15 0 a7.5 7.5 0 1 0 -15 0zM779.68 776.43 a7.5 7.5 0 1 0 15 0 a7.5 7.5 0 1 0 -15 0zM779.68 1001.43 a7.5 7.5 0 1 0 15 0 a7.5 7.5 0 1 0 -15 0zM844.63 1038.93 a7.5 7.5 0 1 0 15 0 a7.5 7.5 0 1 0 -15 0zM844.63 1113.93 a7.5 7.5 0 1 0 15 0 a7.5 7.5 0 1 0 -15 0zM779.68 1151.43 a7.5 7.5 0 1 0 15 0 a7.5 7.5 0 1 0 -15 0zM844.63 438.93 a7.5 7.5 0 1 0 15 0 a7.5 7.5 0 1 0 -15 0zM909.59 476.43 a7.5 7.5 0 1 0 15 0 a7.5 7.5 0 1 0 -15 0zM909.59 551.43 a7.5 7.5 0 1 0 15 0 a7.5 7.5 0 1 0 -15 0zM844.63 588.93 a7.5 7.5 0 1 0 15 0 a7.5 7.5 0 1 0 -15 0zM779.68 551.43 a7.5 7.5 0 1 0 15 0 a7.5 7.5 0 1 0 -15 0zM779.68 476.43 a7.5 7.5 0 1 0 15 0 a7.5 7.5 0 1 0 -15 0zM909.59 1151.43 a7.5 7.5 0 1 0 15 0 a7.5 7.5 0 1 0 -15 0zM909.59 1226.43 a7.5 7.5 0 1 0 15 0 a7.5 7.5 0 1 0 -15 0zM844.63 1263.93 a7.5 7.5 0 1 0 15 0 a7.5 7.5 0 1 0 -15 0zM779.68 1226.43 a7.5 7.5 0 1 0 15 0 a7.5 7.5 0 1 0 -15 0zM1039.5 1001.43 a7.5 7.5 0 1 0 15 0 a7.5 7.5 0 1 0 -15 0zM1104.45 1038.93 a7.5 7.5 0 1 0 15 0 a7.5 7.5 0 1 0 -15 0zM1104.45 1113.93 a7.5 7.5 0 1 0 15 0 a7.5 7.5 0 1 0 -15 0zM1039.5 1151.43 a7.5 7.5 0 1 0 15 0 a7.5 7.5 0 1 0 -15 0zM974.54 1113.93 a7.5 7.5 0 1 0 15 0 a7.5 7.5 0 1 0 -15 0zM974.54 1038.93 a7.5 7.5 0 1 0 15 0 a7.5 7.5 0 1 0 -15 0zM1169.4 326.43 a7.5 7.5 0 1 0 15 0 a7.5 7.5 0 1 0 -15 0zM1234.36 363.93 a7.5 7.5 0 1 0 15 0 a7.5 7.5 0 1 0 -15 0zM1234.36 438.93 a7.5 7.5 0 1 0 15 0 a7.5 7.5 0 1 0 -15 0zM1169.4 476.43 a7.5 7.5 0 1 0 15 0 a7.5 7.5 0 1 0 -15 0zM1104.45 438.93 a7.5 7.5 0 1 0 15 0 a7.5 7.5 0 1 0 -15 0zM1104.45 363.93 a7.5 7.5 0 1 0 15 0 a7.5 7.5 0 1 0 -15 0zM1104.45 663.93 a7.5 7.5 0 1 0 15 0 a7.5 7.5 0 1 0 -15 0zM1169.4 701.43 a7.5 7.5 0 1 0 15 0 a7.5 7.5 0 1 0 -15 0zM1169.4 776.43 a7.5 7.5 0 1 0 15 0 a7.5 7.5 0 1 0 -15 0zM1104.45 813.93 a7.5 7.5 0 1 0 15 0 a7.5 7.5 0 1 0 -15 0zM1039.5 776.43 a7.5 7.5 0 1 0 15 0 a7.5 7.5 0 1 0 -15 0zM1039.5 701.43 a7.5 7.5 0 1 0 15 0 a7.5 7.5 0 1 0 -15 0zM1234.36 813.93 a7.5 7.5 0 1 0 15 0 a7.5 7.5 0 1 0 -15 0zM1234.36 888.93 a7.5 7.5 0 1 0 15 0 a7.5 7.5 0 1 0 -15 0zM1169.4 926.43 a7.5 7.5 0 1 0 15 0 a7.5 7.5 0 1 0 -15 0zM1104.45 888.93 a7.5 7.5 0 1 0 15 0 a7.5 7.5 0 1 0 -15 0zM1234.36 -11.07 a7.5 7.5 0 1 0 15 0 a7.5 7.5 0 1 0 -15 0zM1299.31 26.43 a7.5 7.5 0 1 0 15 0 a7.5 7.5 0 1 0 -15 0zM1299.31 101.43 a7.5 7.5 0 1 0 15 0 a7.5 7.5 0 1 0 -15 0zM1234.36 138.93 a7.5 7.5 0 1 0 15 0 a7.5 7.5 0 1 0 -15 0zM1169.4 101.43 a7.5 7.5 0 1 0 15 0 a7.5 7.5 0 1 0 -15 0zM1169.4 26.43 a7.5 7.5 0 1 0 15 0 a7.5 7.5 0 1 0 -15 0zM1234.36 663.93 a7.5 7.5 0 1 0 15 0 a7.5 7.5 0 1 0 -15 0zM1299.31 701.43 a7.5 7.5 0 1 0 15 0 a7.5 7.5 0 1 0 -15 0zM1299.31 776.43 a7.5 7.5 0 1 0 15 0 a7.5 7.5 0 1 0 -15 0zM1364.26 813.93 a7.5 7.5 0 1 0 15 0 a7.5 7.5 0 1 0 -15 0zM1364.26 888.93 a7.5 7.5 0 1 0 15 0 a7.5 7.5 0 1 0 -15 0zM1299.31 926.43 a7.5 7.5 0 1 0 15 0 a7.5 7.5 0 1 0 -15 0zM1299.31 1001.43 a7.5 7.5 0 1 0 15 0 a7.5 7.5 0 1 0 -15 0zM1364.26 1038.93 a7.5 7.5 0 1 0 15 0 a7.5 7.5 0 1 0 -15 0zM1364.26 1113.93 a7.5 7.5 0 1 0 15 0 a7.5 7.5 0 1 0 -15 0zM1299.31 1151.43 a7.5 7.5 0 1 0 15 0 a7.5 7.5 0 1 0 -15 0zM1234.36 1113.93 a7.5 7.5 0 1 0 15 0 a7.5 7.5 0 1 0 -15 0zM1234.36 1038.93 a7.5 7.5 0 1 0 15 0 a7.5 7.5 0 1 0 -15 0zM1299.31 1226.43 a7.5 7.5 0 1 0 15 0 a7.5 7.5 0 1 0 -15 0zM1364.26 1263.93 a7.5 7.5 0 1 0 15 0 a7.5 7.5 0 1 0 -15 0zM1364.26 1338.93 a7.5 7.5 0 1 0 15 0 a7.5 7.5 0 1 0 -15 0zM1299.31 1376.43 a7.5 7.5 0 1 0 15 0 a7.5 7.5 0 1 0 -15 0zM1234.36 1338.93 a7.5 7.5 0 1 0 15 0 a7.5 7.5 0 1 0 -15 0zM1234.36 1263.93 a7.5 7.5 0 1 0 15 0 a7.5 7.5 0 1 0 -15 0zM1429.22 101.43 a7.5 7.5 0 1 0 15 0 a7.5 7.5 0 1 0 -15 0zM1494.17 138.93 a7.5 7.5 0 1 0 15 0 a7.5 7.5 0 1 0 -15 0zM1494.17 213.93 a7.5 7.5 0 1 0 15 0 a7.5 7.5 0 1 0 -15 0zM1429.22 251.43 a7.5 7.5 0 1 0 15 0 a7.5 7.5 0 1 0 -15 0zM1364.27 213.93 a7.5 7.5 0 1 0 15 0 a7.5 7.5 0 1 0 -15 0zM1364.27 138.93 a7.5 7.5 0 1 0 15 0 a7.5 7.5 0 1 0 -15 0zM1429.22 551.43 a7.5 7.5 0 1 0 15 0 a7.5 7.5 0 1 0 -15 0zM1494.17 588.93 a7.5 7.5 0 1 0 15 0 a7.5 7.5 0 1 0 -15 0zM1494.17 663.93 a7.5 7.5 0 1 0 15 0 a7.5 7.5 0 1 0 -15 0zM1429.22 701.43 a7.5 7.5 0 1 0 15 0 a7.5 7.5 0 1 0 -15 0zM1364.27 663.93 a7.5 7.5 0 1 0 15 0 a7.5 7.5 0 1 0 -15 0zM1364.27 588.93 a7.5 7.5 0 1 0 15 0 a7.5 7.5 0 1 0 -15 0zM1429.22 776.43 a7.5 7.5 0 1 0 15 0 a7.5 7.5 0 1 0 -15 0zM1364.27 813.93 a7.5 7.5 0 1 0 15 0 a7.5 7.5 0 1 0 -15 0zM1364.27 888.93 a7.5 7.5 0 1 0 15 0 a7.5 7.5 0 1 0 -15 0zM1429.22 926.43 a7.5 7.5 0 1 0 15 0 a7.5 7.5 0 1 0 -15 0zM1429.22 1001.43 a7.5 7.5 0 1 0 15 0 a7.5 7.5 0 1 0 -15 0zM1364.27 1038.93 a7.5 7.5 0 1 0 15 0 a7.5 7.5 0 1 0 -15 0zM1559.13 326.43 a7.5 7.5 0 1 0 15 0 a7.5 7.5 0 1 0 -15 0zM1624.08 363.93 a7.5 7.5 0 1 0 15 0 a7.5 7.5 0 1 0 -15 0zM1624.08 438.93 a7.5 7.5 0 1 0 15 0 a7.5 7.5 0 1 0 -15 0zM1559.13 476.43 a7.5 7.5 0 1 0 15 0 a7.5 7.5 0 1 0 -15 0zM1494.17 438.93 a7.5 7.5 0 1 0 15 0 a7.5 7.5 0 1 0 -15 0zM1494.17 363.93 a7.5 7.5 0 1 0 15 0 a7.5 7.5 0 1 0 -15 0zM1494.17 888.93 a7.5 7.5 0 1 0 15 0 a7.5 7.5 0 1 0 -15 0zM1559.13 926.43 a7.5 7.5 0 1 0 15 0 a7.5 7.5 0 1 0 -15 0zM1559.13 1001.43 a7.5 7.5 0 1 0 15 0 a7.5 7.5 0 1 0 -15 0zM1494.17 1038.93 a7.5 7.5 0 1 0 15 0 a7.5 7.5 0 1 0 -15 0zM1624.08 -11.07 a7.5 7.5 0 1 0 15 0 a7.5 7.5 0 1 0 -15 0zM1689.03 26.43 a7.5 7.5 0 1 0 15 0 a7.5 7.5 0 1 0 -15 0zM1689.03 101.43 a7.5 7.5 0 1 0 15 0 a7.5 7.5 0 1 0 -15 0zM1624.08 138.93 a7.5 7.5 0 1 0 15 0 a7.5 7.5 0 1 0 -15 0zM1559.13 101.43 a7.5 7.5 0 1 0 15 0 a7.5 7.5 0 1 0 -15 0zM1559.13 26.43 a7.5 7.5 0 1 0 15 0 a7.5 7.5 0 1 0 -15 0zM1689.03 326.43 a7.5 7.5 0 1 0 15 0 a7.5 7.5 0 1 0 -15 0zM1753.99 363.93 a7.5 7.5 0 1 0 15 0 a7.5 7.5 0 1 0 -15 0zM1753.99 438.93 a7.5 7.5 0 1 0 15 0 a7.5 7.5 0 1 0 -15 0zM1689.03 476.43 a7.5 7.5 0 1 0 15 0 a7.5 7.5 0 1 0 -15 0zM1689.03 551.43 a7.5 7.5 0 1 0 15 0 a7.5 7.5 0 1 0 -15 0zM1624.08 588.93 a7.5 7.5 0 1 0 15 0 a7.5 7.5 0 1 0 -15 0zM1559.13 551.43 a7.5 7.5 0 1 0 15 0 a7.5 7.5 0 1 0 -15 0zM1624.08 663.93 a7.5 7.5 0 1 0 15 0 a7.5 7.5 0 1 0 -15 0zM1689.03 701.43 a7.5 7.5 0 1 0 15 0 a7.5 7.5 0 1 0 -15 0zM1689.03 776.43 a7.5 7.5 0 1 0 15 0 a7.5 7.5 0 1 0 -15 0zM1624.08 813.93 a7.5 7.5 0 1 0 15 0 a7.5 7.5 0 1 0 -15 0zM1559.13 776.43 a7.5 7.5 0 1 0 15 0 a7.5 7.5 0 1 0 -15 0zM1559.13 701.43 a7.5 7.5 0 1 0 15 0 a7.5 7.5 0 1 0 -15 0zM1753.99 -11.07 a7.5 7.5 0 1 0 15 0 a7.5 7.5 0 1 0 -15 0zM1818.94 26.43 a7.5 7.5 0 1 0 15 0 a7.5 7.5 0 1 0 -15 0zM1818.94 101.43 a7.5 7.5 0 1 0 15 0 a7.5 7.5 0 1 0 -15 0zM1753.99 138.93 a7.5 7.5 0 1 0 15 0 a7.5 7.5 0 1 0 -15 0zM1883.89 138.93 a7.5 7.5 0 1 0 15 0 a7.5 7.5 0 1 0 -15 0zM1883.89 213.93 a7.5 7.5 0 1 0 15 0 a7.5 7.5 0 1 0 -15 0zM1818.94 251.43 a7.5 7.5 0 1 0 15 0 a7.5 7.5 0 1 0 -15 0zM1753.99 213.93 a7.5 7.5 0 1 0 15 0 a7.5 7.5 0 1 0 -15 0z" fill="#03305d"></path><path d="M40.93 -36.57L84.23 -11.57L84.23 38.43L40.93 63.43L-2.37 38.43L-2.37 -11.57zM40.93 263.43L84.23 288.43L84.23 338.43L40.93 363.43L-2.37 338.43L-2.37 288.43zM84.23 488.43L127.53 513.43L127.53 563.43L84.23 588.43L40.93 563.43L40.93 513.43zM40.93 563.43L84.23 588.43L84.23 638.43L40.93 663.43L-2.37 638.43L-2.37 588.43zM84.23 638.43L127.53 663.43L127.53 713.43L84.23 738.43L40.93 713.43L40.93 663.43zM40.93 713.43L84.23 738.43L84.23 788.43L40.93 813.43L-2.37 788.43L-2.37 738.43zM84.23 788.43L127.53 813.43L127.53 863.43L84.23 888.43L40.93 863.43L40.93 813.43zM40.93 1013.43L84.23 1038.43L84.23 1088.43L40.93 1113.43L-2.37 1088.43L-2.37 1038.43zM170.84 38.43L214.14 63.43L214.14 113.43L170.84 138.43L127.53 113.43L127.53 63.43zM127.53 113.43L170.84 138.43L170.84 188.43L127.53 213.43L84.23 188.43L84.23 138.43zM170.84 188.43L214.14 213.43L214.14 263.43L170.84 288.43L127.53 263.43L127.53 213.43zM127.53 263.43L170.84 288.43L170.84 338.43L127.53 363.43L84.23 338.43L84.23 288.43zM170.84 338.43L214.14 363.43L214.14 413.43L170.84 438.43L127.53 413.43L127.53 363.43zM127.53 413.43L170.84 438.43L170.84 488.43L127.53 513.43L84.23 488.43L84.23 438.43zM170.84 488.43L214.14 513.43L214.14 563.43L170.84 588.43L127.53 563.43L127.53 513.43zM170.84 638.43L214.14 663.43L214.14 713.43L170.84 738.43L127.53 713.43L127.53 663.43zM127.53 713.43L170.84 738.43L170.84 788.43L127.53 813.43L84.23 788.43L84.23 738.43zM127.53 1163.43L170.84 1188.43L170.84 1238.43L127.53 1263.43L84.23 1238.43L84.23 1188.43zM214.14 -36.57L257.44 -11.57L257.44 38.43L214.14 63.43L170.84 38.43L170.84 -11.57zM214.14 113.43L257.44 138.43L257.44 188.43L214.14 213.43L170.84 188.43L170.84 138.43zM257.44 338.43L300.75 363.43L300.75 413.43L257.44 438.43L214.14 413.43L214.14 363.43zM257.44 488.43L300.75 513.43L300.75 563.43L257.44 588.43L214.14 563.43L214.14 513.43zM214.14 713.43L257.44 738.43L257.44 788.43L214.14 813.43L170.84 788.43L170.84 738.43zM257.44 938.43L300.75 963.43L300.75 1013.43L257.44 1038.43L214.14 1013.43L214.14 963.43zM214.14 1013.43L257.44 1038.43L257.44 1088.43L214.14 1113.43L170.84 1088.43L170.84 1038.43zM214.14 1163.43L257.44 1188.43L257.44 1238.43L214.14 1263.43L170.84 1238.43L170.84 1188.43zM300.75 113.43L344.05 138.43L344.05 188.43L300.75 213.43L257.44 188.43L257.44 138.43zM344.05 338.43L387.35 363.43L387.35 413.43L344.05 438.43L300.75 413.43L300.75 363.43zM344.05 788.43L387.35 813.43L387.35 863.43L344.05 888.43L300.75 863.43L300.75 813.43zM300.75 1013.43L344.05 1038.43L344.05 1088.43L300.75 1113.43L257.44 1088.43L257.44 1038.43zM300.75 1163.43L344.05 1188.43L344.05 1238.43L300.75 1263.43L257.44 1238.43L257.44 1188.43zM387.35 263.43L430.65 288.43L430.65 338.43L387.35 363.43L344.05 338.43L344.05 288.43zM430.65 338.43L473.96 363.43L473.96 413.43L430.65 438.43L387.35 413.43L387.35 363.43zM430.65 638.43L473.96 663.43L473.96 713.43L430.65 738.43L387.35 713.43L387.35 663.43zM430.65 788.43L473.96 813.43L473.96 863.43L430.65 888.43L387.35 863.43L387.35 813.43zM430.65 938.43L473.96 963.43L473.96 1013.43L430.65 1038.43L387.35 1013.43L387.35 963.43zM387.35 1013.43L430.65 1038.43L430.65 1088.43L387.35 1113.43L344.05 1088.43L344.05 1038.43zM430.65 1088.43L473.96 1113.43L473.96 1163.43L430.65 1188.43L387.35 1163.43L387.35 1113.43zM387.35 1163.43L430.65 1188.43L430.65 1238.43L387.35 1263.43L344.05 1238.43L344.05 1188.43zM473.96 -36.57L517.26 -11.57L517.26 38.43L473.96 63.43L430.65 38.43L430.65 -11.57zM473.96 113.43L517.26 138.43L517.26 188.43L473.96 213.43L430.65 188.43L430.65 138.43zM473.96 263.43L517.26 288.43L517.26 338.43L473.96 363.43L430.65 338.43L430.65 288.43zM473.96 413.43L517.26 438.43L517.26 488.43L473.96 513.43L430.65 488.43L430.65 438.43zM517.26 488.43L560.56 513.43L560.56 563.43L517.26 588.43L473.96 563.43L473.96 513.43zM517.26 638.43L560.56 663.43L560.56 713.43L517.26 738.43L473.96 713.43L473.96 663.43zM517.26 788.43L560.56 813.43L560.56 863.43L517.26 888.43L473.96 863.43L473.96 813.43zM473.96 863.43L517.26 888.43L517.26 938.43L473.96 963.43L430.65 938.43L430.65 888.43zM517.26 1088.43L560.56 1113.43L560.56 1163.43L517.26 1188.43L473.96 1163.43L473.96 1113.43zM473.96 1163.43L517.26 1188.43L517.26 1238.43L473.96 1263.43L430.65 1238.43L430.65 1188.43zM560.56 113.43L603.86 138.43L603.86 188.43L560.56 213.43L517.26 188.43L517.26 138.43zM603.86 488.43L647.16 513.43L647.16 563.43L603.86 588.43L560.56 563.43L560.56 513.43zM560.56 563.43L603.86 588.43L603.86 638.43L560.56 663.43L517.26 638.43L517.26 588.43zM603.86 638.43L647.16 663.43L647.16 713.43L603.86 738.43L560.56 713.43L560.56 663.43zM603.86 788.43L647.16 813.43L647.16 863.43L603.86 888.43L560.56 863.43L560.56 813.43zM560.56 863.43L603.86 888.43L603.86 938.43L560.56 963.43L517.26 938.43L517.26 888.43zM560.56 1163.43L603.86 1188.43L603.86 1238.43L560.56 1263.43L517.26 1238.43L517.26 1188.43zM690.47 38.43L733.77 63.43L733.77 113.43L690.47 138.43L647.16 113.43L647.16 63.43zM647.16 113.43L690.47 138.43L690.47 188.43L647.16 213.43L603.86 188.43L603.86 138.43zM690.47 338.43L733.77 363.43L733.77 413.43L690.47 438.43L647.16 413.43L647.16 363.43zM690.47 488.43L733.77 513.43L733.77 563.43L690.47 588.43L647.16 563.43L647.16 513.43zM690.47 638.43L733.77 663.43L733.77 713.43L690.47 738.43L647.16 713.43L647.16 663.43zM647.16 713.43L690.47 738.43L690.47 788.43L647.16 813.43L603.86 788.43L603.86 738.43zM647.16 863.43L690.47 888.43L690.47 938.43L647.16 963.43L603.86 938.43L603.86 888.43zM733.77 -36.57L777.07 -11.57L777.07 38.43L733.77 63.43L690.47 38.43L690.47 -11.57zM777.07 638.43L820.38 663.43L820.38 713.43L777.07 738.43L733.77 713.43L733.77 663.43zM733.77 713.43L777.07 738.43L777.07 788.43L733.77 813.43L690.47 788.43L690.47 738.43zM777.07 788.43L820.38 813.43L820.38 863.43L777.07 888.43L733.77 863.43L733.77 813.43zM777.07 938.43L820.38 963.43L820.38 1013.43L777.07 1038.43L733.77 1013.43L733.77 963.43zM777.07 1088.43L820.38 1113.43L820.38 1163.43L777.07 1188.43L733.77 1163.43L733.77 1113.43zM820.38 -36.57L863.68 -11.57L863.68 38.43L820.38 63.43L777.07 38.43L777.07 -11.57zM863.68 38.43L906.98 63.43L906.98 113.43L863.68 138.43L820.38 113.43L820.38 63.43zM820.38 563.43L863.68 588.43L863.68 638.43L820.38 663.43L777.07 638.43L777.07 588.43zM820.38 713.43L863.68 738.43L863.68 788.43L820.38 813.43L777.07 788.43L777.07 738.43zM863.68 788.43L906.98 813.43L906.98 863.43L863.68 888.43L820.38 863.43L820.38 813.43zM863.68 938.43L906.98 963.43L906.98 1013.43L863.68 1038.43L820.38 1013.43L820.38 963.43zM906.98 -36.57L950.28 -11.57L950.28 38.43L906.98 63.43L863.68 38.43L863.68 -11.57zM906.98 113.43L950.28 138.43L950.28 188.43L906.98 213.43L863.68 188.43L863.68 138.43zM950.28 488.43L993.59 513.43L993.59 563.43L950.28 588.43L906.98 563.43L906.98 513.43zM906.98 713.43L950.28 738.43L950.28 788.43L906.98 813.43L863.68 788.43L863.68 738.43zM950.28 938.43L993.59 963.43L993.59 1013.43L950.28 1038.43L906.98 1013.43L906.98 963.43zM906.98 1163.43L950.28 1188.43L950.28 1238.43L906.98 1263.43L863.68 1238.43L863.68 1188.43zM1036.89 38.43L1080.19 63.43L1080.19 113.43L1036.89 138.43L993.59 113.43L993.59 63.43zM1036.89 188.43L1080.19 213.43L1080.19 263.43L1036.89 288.43L993.59 263.43L993.59 213.43zM1036.89 338.43L1080.19 363.43L1080.19 413.43L1036.89 438.43L993.59 413.43L993.59 363.43zM993.59 413.43L1036.89 438.43L1036.89 488.43L993.59 513.43L950.28 488.43L950.28 438.43zM1036.89 788.43L1080.19 813.43L1080.19 863.43L1036.89 888.43L993.59 863.43L993.59 813.43zM1080.19 -36.57L1123.49 -11.57L1123.49 38.43L1080.19 63.43L1036.89 38.43L1036.89 -11.57zM1123.49 38.43L1166.8 63.43L1166.8 113.43L1123.49 138.43L1080.19 113.43L1080.19 63.43zM1080.19 113.43L1123.49 138.43L1123.49 188.43L1080.19 213.43L1036.89 188.43L1036.89 138.43zM1123.49 638.43L1166.8 663.43L1166.8 713.43L1123.49 738.43L1080.19 713.43L1080.19 663.43zM1123.49 938.43L1166.8 963.43L1166.8 1013.43L1123.49 1038.43L1080.19 1013.43L1080.19 963.43zM1080.19 1013.43L1123.49 1038.43L1123.49 1088.43L1080.19 1113.43L1036.89 1088.43L1036.89 1038.43zM1123.49 1088.43L1166.8 1113.43L1166.8 1163.43L1123.49 1188.43L1080.19 1163.43L1080.19 1113.43zM1080.19 1163.43L1123.49 1188.43L1123.49 1238.43L1080.19 1263.43L1036.89 1238.43L1036.89 1188.43zM1210.1 38.43L1253.4 63.43L1253.4 113.43L1210.1 138.43L1166.8 113.43L1166.8 63.43zM1166.8 113.43L1210.1 138.43L1210.1 188.43L1166.8 213.43L1123.49 188.43L1123.49 138.43zM1210.1 188.43L1253.4 213.43L1253.4 263.43L1210.1 288.43L1166.8 263.43L1166.8 213.43zM1166.8 263.43L1210.1 288.43L1210.1 338.43L1166.8 363.43L1123.49 338.43L1123.49 288.43zM1210.1 338.43L1253.4 363.43L1253.4 413.43L1210.1 438.43L1166.8 413.43L1166.8 363.43zM1166.8 413.43L1210.1 438.43L1210.1 488.43L1166.8 513.43L1123.49 488.43L1123.49 438.43zM1210.1 488.43L1253.4 513.43L1253.4 563.43L1210.1 588.43L1166.8 563.43L1166.8 513.43zM1166.8 563.43L1210.1 588.43L1210.1 638.43L1166.8 663.43L1123.49 638.43L1123.49 588.43zM1166.8 713.43L1210.1 738.43L1210.1 788.43L1166.8 813.43L1123.49 788.43L1123.49 738.43zM1166.8 863.43L1210.1 888.43L1210.1 938.43L1166.8 963.43L1123.49 938.43L1123.49 888.43zM1210.1 938.43L1253.4 963.43L1253.4 1013.43L1210.1 1038.43L1166.8 1013.43L1166.8 963.43zM1210.1 1088.43L1253.4 1113.43L1253.4 1163.43L1210.1 1188.43L1166.8 1163.43L1166.8 1113.43zM1166.8 1163.43L1210.1 1188.43L1210.1 1238.43L1166.8 1263.43L1123.49 1238.43L1123.49 1188.43zM1253.4 113.43L1296.7 138.43L1296.7 188.43L1253.4 213.43L1210.1 188.43L1210.1 138.43zM1253.4 263.43L1296.7 288.43L1296.7 338.43L1253.4 363.43L1210.1 338.43L1210.1 288.43zM1296.7 338.43L1340.01 363.43L1340.01 413.43L1296.7 438.43L1253.4 413.43L1253.4 363.43zM1253.4 563.43L1296.7 588.43L1296.7 638.43L1253.4 663.43L1210.1 638.43L1210.1 588.43zM1253.4 713.43L1296.7 738.43L1296.7 788.43L1253.4 813.43L1210.1 788.43L1210.1 738.43zM1296.7 788.43L1340.01 813.43L1340.01 863.43L1296.7 888.43L1253.4 863.43L1253.4 813.43zM1296.7 1088.43L1340.01 1113.43L1340.01 1163.43L1296.7 1188.43L1253.4 1163.43L1253.4 1113.43zM1340.01 -36.57L1383.31 -11.57L1383.31 38.43L1340.01 63.43L1296.7 38.43L1296.7 -11.57zM1340.01 113.43L1383.31 138.43L1383.31 188.43L1340.01 213.43L1296.7 188.43L1296.7 138.43zM1383.31 188.43L1426.61 213.43L1426.61 263.43L1383.31 288.43L1340.01 263.43L1340.01 213.43zM1340.01 563.43L1383.31 588.43L1383.31 638.43L1340.01 663.43L1296.7 638.43L1296.7 588.43zM1340.01 713.43L1383.31 738.43L1383.31 788.43L1340.01 813.43L1296.7 788.43L1296.7 738.43zM1383.31 788.43L1426.61 813.43L1426.61 863.43L1383.31 888.43L1340.01 863.43L1340.01 813.43zM1340.01 863.43L1383.31 888.43L1383.31 938.43L1340.01 963.43L1296.7 938.43L1296.7 888.43zM1383.31 1088.43L1426.61 1113.43L1426.61 1163.43L1383.31 1188.43L1340.01 1163.43L1340.01 1113.43zM1340.01 1163.43L1383.31 1188.43L1383.31 1238.43L1340.01 1263.43L1296.7 1238.43L1296.7 1188.43zM1426.61 -36.57L1469.91 -11.57L1469.91 38.43L1426.61 63.43L1383.31 38.43L1383.31 -11.57zM1426.61 113.43L1469.91 138.43L1469.91 188.43L1426.61 213.43L1383.31 188.43L1383.31 138.43zM1469.91 188.43L1513.22 213.43L1513.22 263.43L1469.91 288.43L1426.61 263.43L1426.61 213.43zM1469.91 488.43L1513.22 513.43L1513.22 563.43L1469.91 588.43L1426.61 563.43L1426.61 513.43zM1469.91 788.43L1513.22 813.43L1513.22 863.43L1469.91 888.43L1426.61 863.43L1426.61 813.43zM1469.91 938.43L1513.22 963.43L1513.22 1013.43L1469.91 1038.43L1426.61 1013.43L1426.61 963.43zM1556.52 188.43L1599.82 213.43L1599.82 263.43L1556.52 288.43L1513.22 263.43L1513.22 213.43zM1556.52 338.43L1599.82 363.43L1599.82 413.43L1556.52 438.43L1513.22 413.43L1513.22 363.43zM1556.52 488.43L1599.82 513.43L1599.82 563.43L1556.52 588.43L1513.22 563.43L1513.22 513.43zM1513.22 713.43L1556.52 738.43L1556.52 788.43L1513.22 813.43L1469.91 788.43L1469.91 738.43zM1513.22 863.43L1556.52 888.43L1556.52 938.43L1513.22 963.43L1469.91 938.43L1469.91 888.43zM1556.52 938.43L1599.82 963.43L1599.82 1013.43L1556.52 1038.43L1513.22 1013.43L1513.22 963.43zM1513.22 1013.43L1556.52 1038.43L1556.52 1088.43L1513.22 1113.43L1469.91 1088.43L1469.91 1038.43zM1643.12 488.43L1686.43 513.43L1686.43 563.43L1643.12 588.43L1599.82 563.43L1599.82 513.43zM1643.12 638.43L1686.43 663.43L1686.43 713.43L1643.12 738.43L1599.82 713.43L1599.82 663.43zM1599.82 713.43L1643.12 738.43L1643.12 788.43L1599.82 813.43L1556.52 788.43L1556.52 738.43zM1599.82 1013.43L1643.12 1038.43L1643.12 1088.43L1599.82 1113.43L1556.52 1088.43L1556.52 1038.43zM1643.12 1088.43L1686.43 1113.43L1686.43 1163.43L1643.12 1188.43L1599.82 1163.43L1599.82 1113.43zM1686.43 113.43L1729.73 138.43L1729.73 188.43L1686.43 213.43L1643.12 188.43L1643.12 138.43zM1729.73 638.43L1773.03 663.43L1773.03 713.43L1729.73 738.43L1686.43 713.43L1686.43 663.43zM1686.43 1163.43L1729.73 1188.43L1729.73 1238.43L1686.43 1263.43L1643.12 1238.43L1643.12 1188.43zM1816.33 188.43L1859.64 213.43L1859.64 263.43L1816.33 288.43L1773.03 263.43L1773.03 213.43zM1773.03 263.43L1816.33 288.43L1816.33 338.43L1773.03 363.43L1729.73 338.43L1729.73 288.43zM1816.33 488.43L1859.64 513.43L1859.64 563.43L1816.33 588.43L1773.03 563.43L1773.03 513.43zM1773.03 563.43L1816.33 588.43L1816.33 638.43L1773.03 663.43L1729.73 638.43L1729.73 588.43zM1816.33 638.43L1859.64 663.43L1859.64 713.43L1816.33 738.43L1773.03 713.43L1773.03 663.43zM1773.03 713.43L1816.33 738.43L1816.33 788.43L1773.03 813.43L1729.73 788.43L1729.73 738.43zM1773.03 863.43L1816.33 888.43L1816.33 938.43L1773.03 963.43L1729.73 938.43L1729.73 888.43zM1773.03 1013.43L1816.33 1038.43L1816.33 1088.43L1773.03 1113.43L1729.73 1088.43L1729.73 1038.43zM1773.03 1163.43L1816.33 1188.43L1816.33 1238.43L1773.03 1263.43L1729.73 1238.43L1729.73 1188.43z" stroke="rgba(6, 80, 156, 0.93)" stroke-width="2"></path></g><defs><mask id="SvgjsMask1008"><rect width="1800" height="1200" fill="#ffffff"></rect></mask></defs></svg>